<?xml version="1.0" standalone="no"?>
<!DOCTYPE svg PUBLIC "-//W3C//DTD SVG 1.1//EN" "http://www.w3.org/Graphics/SVG/1.1/DTD/svg11.dtd" >
<svg xmlns="http://www.w3.org/2000/svg">
<metadata>
Created by FontPrep 20130207 at Tue Jan 12 05:51:29 2016
 By Brandon
Copyright (c) 2014 by Richard Miller. All rights reserved.
</metadata>
<defs>
<font id="e07be1a0889a1c5e3ddfc5765420b10a" horiz-adv-x='1024' >
  <font-face 
    font-family="Uniform-Condensed2"
    font-weight="400"
    font-stretch="condensed"
    units-per-em="2048"
    panose-1="2 0 0 0 0 0 0 0 0 0"
    ascent="1659"
    descent="-389"
    x-height="1051"
    cap-height="1434"
    bbox="-389 -440 2140 1942"
    underline-thickness="102"
    underline-position="-102"
    unicode-range="U+0020-FB02"
  />
<missing-glyph horiz-adv-x="1415" 
d="M780 717l326 323l-74 74l-325 -323l-324 325l-74 -74l324 -325l-326 -326l74 -74l326 326l325 -326l74 74zM41 0v1434h1333v-1434h-1333z" />
    <glyph glyph-name="ellipsis" unicode="&#x2e;&#x2e;&#x2e;" horiz-adv-x="1484" 
d="M1263.5 256q59.5 0 99.5 -40t40 -99.5t-40 -98t-99.5 -38.5t-98.5 38.5t-39 98t39 99.5t98.5 40zM741.5 256q59.5 0 99.5 -40t40 -99.5t-40.5 -98t-98.5 -38.5t-98 38.5t-40 98t39 99.5t98.5 40zM219.5 256q59.5 0 99 -40t39.5 -99.5t-39.5 -98t-99 -38.5t-98.5 38.5
t-39 98t39 99.5t98.5 40z" />
    <glyph glyph-name="ff" unicode="ff" horiz-adv-x="1331" 
d="M403 1120v-110h283v-164h-283v-846h-208v846h-164v164h164v137q0 150 79.5 228.5t211.5 78.5t198 -24l23 -9l-27 -161q-55 18 -123 18q-154 0 -154 -158zM1008 1106v-96h282v-164h-282v-846h-209v1126q0 162 78.5 245t212.5 83t200 -24l21 -9l-27 -161q-55 18 -127 18
q-149 0 -149 -172z" />
    <glyph glyph-name="ft" unicode="ft" horiz-adv-x="1351" 
d="M403 1120v-110h283v-164h-283v-846h-208v846h-164v164h164v137q0 150 79.5 228.5t211.5 78.5t198 -24l23 -9l-27 -161q-55 18 -123 18q-154 0 -154 -158zM1147 166q59 0 127 16l26 -172q-80 -30 -215 -30t-210.5 74.5t-75.5 211.5v1045h209v-260h292v-164h-292v-580
q0 -141 139 -141z" />
    <glyph glyph-name="rf" unicode="rf" horiz-adv-x="1312" 
d="M123 0v1051h184l12 -177q98 197 349 197v-213h-82q-119 0 -186.5 -74.5t-67.5 -224.5v-559h-209zM989 1106v-96h283v-164h-283v-846h-209v1126q0 162 79 245t213 83q135 0 198 -24l22 -9l-26 -161q-55 18 -127 18q-150 0 -150 -172z" />
    <glyph glyph-name="rt" unicode="rt" horiz-adv-x="1333" 
d="M123 0v1051h184l12 -177q98 197 349 197v-213h-82q-119 0 -186.5 -74.5t-67.5 -224.5v-559h-209zM1128 166q55 0 127 16l27 -172q-80 -30 -215 -30t-211 74.5t-76 211.5v1045h209v-260h293v-164h-293v-580q0 -141 139 -141z" />
    <glyph glyph-name="tf" unicode="tf" horiz-adv-x="1341" 
d="M543 166q51 0 127 16l26 -172q-80 -30 -215 -30t-210.5 74.5t-75.5 211.5v621h-164v164h164v260h208v-260h293v-164h-293v-580q0 -141 140 -141zM1018 1106v-96h282v-164h-282v-846h-209v1126q0 162 78.5 245t214.5 83t196 -24l23 -9l-27 -161q-55 18 -127 18
q-149 0 -149 -172z" />
    <glyph glyph-name="tt" unicode="tt" horiz-adv-x="1361" 
d="M543 166q51 0 127 16l26 -172q-80 -30 -215 -30t-210.5 74.5t-75.5 211.5v621h-164v164h164v260h208v-260h293v-164h-293v-580q0 -141 140 -141zM1157 166q55 0 127 16l27 -172q-80 -30 -215 -30t-211 74.5t-76 211.5v1045h209v-260h293v-164h-293v-580q0 -141 139 -141z
" />
    <glyph glyph-name="rtf" unicode="rtf" horiz-adv-x="1927" 
d="M1604 1106v-96h282v-164h-282v-846h-209v1126q0 162 78.5 245t214.5 83t196 -24l23 -9l-27 -161q-55 18 -127 18q-149 0 -149 -172zM123 0v1051h184l12 -177q98 197 349 197v-213h-82q-119 0 -186.5 -74.5t-67.5 -224.5v-559h-209zM1128 166q55 0 127 16l27 -172
q-80 -30 -215 -30t-211 74.5t-76 211.5v1045h209v-260h293v-164h-293v-580q0 -141 139 -141z" />
    <glyph glyph-name=".notdef" horiz-adv-x="1415" 
d="M780 717l326 323l-74 74l-325 -323l-324 325l-74 -74l324 -325l-326 -326l74 -74l326 326l325 -326l74 74zM41 0v1434h1333v-1434h-1333z" />
    <glyph glyph-name=".null" horiz-adv-x="0" 
 />
    <glyph glyph-name="nonmarkingreturn" horiz-adv-x="681" 
 />
    <glyph glyph-name="space" unicode=" " horiz-adv-x="481" 
 />
    <glyph glyph-name="exclam" unicode="!" horiz-adv-x="542" 
d="M270.5 256q59.5 0 99.5 -40t40 -99.5t-40 -98t-98 -38.5t-98.5 38.5t-40.5 98t39 99.5t98.5 40zM197 451l-50 983h246l-47 -983h-149z" />
    <glyph glyph-name="quotedbl" unicode="&#x22;" horiz-adv-x="716" 
d="M614 891h-174v543h174v-543zM276 891h-174v543h174v-543z" />
    <glyph glyph-name="numbersign" unicode="#" 
d="M51 330v129h189l41 311h-168v129h184l45 330h141l-45 -330h240l45 330h141l-45 -330h174v-129h-190l-41 -311h170v-129h-189l-43 -330h-141l43 330h-240l-43 -330h-141l43 330h-170zM422 770l-41 -311h240l41 311h-240z" />
    <glyph glyph-name="dollar" unicode="$" horiz-adv-x="1015" 
d="M444 1618h131v-174q154 -16 243 -120.5t89 -272.5v-37h-202v45q0 96 -52.5 152.5t-139.5 56.5t-137 -51.5t-50 -134.5t63.5 -148.5t198.5 -132.5q326 -164 325 -436q0 -154 -93 -254.5t-245 -120.5v-174h-131v172q-158 18 -250 124.5t-92 278.5v60h203v-68
q0 -98 55.5 -157.5t147.5 -59.5t144.5 53t52.5 139t-63 153.5t-198 135.5q-330 174 -329 430q0 147 90 246.5t239 118.5v176z" />
    <glyph glyph-name="percent" unicode="%" horiz-adv-x="1351" 
d="M356.5 1112q-59.5 0 -99.5 -40t-40 -102t40 -102.5t99.5 -40.5t99.5 40.5t40 102.5t-40 102t-99.5 40zM203 0l801 1229h143l-801 -1229h-143zM358.5 1249q120.5 0 201.5 -78.5t81 -199.5t-83 -201t-205 -80t-201.5 78t-79.5 198.5t83 201.5t203.5 81zM711 256
q0 121 83 202t203.5 81t201.5 -79t81 -200t-83 -200.5t-205 -79.5t-201.5 77.5t-79.5 198.5zM856 258q0 -61 40 -102t99.5 -41t98.5 41t39 102t-39 102t-98.5 41t-99.5 -41t-40 -102z" />
    <glyph glyph-name="ampersand" unicode="&#x26;" horiz-adv-x="1243" 
d="M387 1145q0 -113 113 -256q96 68 137 125.5t41 123.5t-40 109t-106 43t-105.5 -41t-39.5 -104zM473 160q137 0 248 176l-270 330q-178 -139 -179 -291q0 -94 55.5 -154.5t145.5 -60.5zM858 1162q0 -118 -64.5 -210t-189.5 -190l215 -266l203 323h201l-287 -465l287 -354
h-226l-163 199q-84 -115 -173.5 -167t-209.5 -52q-164 0 -271.5 105t-107.5 249t65.5 250t206.5 213q-150 193 -150 337t95.5 232t241.5 88t236.5 -87t90.5 -205z" />
    <glyph glyph-name="quotesingle" unicode="'" horiz-adv-x="378" 
d="M276 891h-174v543h174v-543z" />
    <glyph glyph-name="parenleft" unicode="(" horiz-adv-x="743" 
d="M102 736q0 158 48.5 321.5t117 264.5t137 177t115.5 107l49 32l113 -133q-45 -28 -121 -111t-126 -167t-91 -222.5t-41 -288.5t39 -287.5t124.5 -272t176.5 -201.5l39 -29l-113 -131q-156 94 -311.5 323t-155.5 618z" />
    <glyph glyph-name="parenright" unicode=")" horiz-adv-x="743" 
d="M641 698q0 -158 -48 -321.5t-116.5 -265t-137.5 -177t-118 -106.5l-47 -33l-113 133q43 27 120 111t127 168t91 222t41 289t-39 288t-123 270t-178 203l-39 28l113 131q158 -95 312.5 -323t154.5 -617z" />
    <glyph glyph-name="asterisk" unicode="*" horiz-adv-x="890" 
d="M526 1434l-18 -285l264 104l47 -151l-272 -70l180 -219l-129 -94l-152 237l-151 -237l-129 94l178 217l-272 72l47 151l264 -104l-18 285h161z" />
    <glyph glyph-name="plus" unicode="+" 
d="M608 1192v-381h355v-168h-355v-379h-172v379h-354v168h354v381h172z" />
    <glyph glyph-name="comma" unicode="," horiz-adv-x="430" 
d="M250 -266h-168l35 542h231z" />
    <glyph glyph-name="hyphen" unicode="-" horiz-adv-x="737" 
d="M655 629h-573v194h573v-194z" />
    <glyph glyph-name="period" unicode="." horiz-adv-x="440" 
d="M219.5 256q59.5 0 99 -40t39.5 -99.5t-39.5 -98t-99 -38.5t-98.5 38.5t-39 98t39 99.5t98.5 40z" />
    <glyph glyph-name="slash" unicode="/" horiz-adv-x="884" 
d="M0 -164l707 1761h178l-707 -1761h-178z" />
    <glyph glyph-name="zero" unicode="0" 
d="M113 397v635q0 193 114.5 307.5t295.5 114.5t295 -112.5t114 -305.5v-635q0 -193 -116 -307t-297 -114t-293.5 112t-112.5 305zM322 1038v-645q0 -102 54 -162.5t146 -60.5t145.5 60.5t53.5 162.5v645q0 104 -53.5 164t-145.5 60t-146 -60t-54 -164z" />
    <glyph glyph-name="one" unicode="1" horiz-adv-x="833" 
d="M659 1434v-1434h-208v1180l-310 -236l-100 141l444 349h174z" />
    <glyph glyph-name="two" unicode="2" horiz-adv-x="1003" 
d="M901 186v-186h-799v145l486 637q102 134 102 248t-52 173t-140 59t-140.5 -58.5t-52.5 -159.5v-71h-203v63q0 190 112 304t287 114t287.5 -107t112.5 -291t-180 -411l-356 -459h536z" />
    <glyph glyph-name="three" unicode="3" horiz-adv-x="991" 
d="M113 1034v39q0 168 108.5 274.5t275.5 106.5t274.5 -101.5t107.5 -262.5v-31q0 -213 -177 -314q92 -45 144.5 -131t52.5 -198v-51q0 -170 -115.5 -277.5t-292 -107.5t-288 107.5t-111.5 283.5v59h197v-41q0 -104 54 -163.5t146.5 -59.5t145.5 59.5t53 163.5v47
q0 102 -53 162.5t-152 60.5h-106v164h106q86 0 135.5 54.5t49.5 146.5v43q0 90 -49.5 145.5t-130.5 55.5t-130 -55.5t-49 -147.5v-31h-196z" />
    <glyph glyph-name="four" unicode="4" 
d="M809 1434v-918h164v-164h-164v-352h-201v352h-536v170l532 912h205zM608 516v627l-366 -627h366z" />
    <glyph glyph-name="five" unicode="5" horiz-adv-x="1017" 
d="M864 1247h-540v-381q84 96 236 96t248.5 -101t96.5 -271v-199q0 -188 -111.5 -299.5t-288.5 -111.5t-284.5 109.5t-107.5 297.5v33h204v-37q0 -98 50.5 -155.5t138.5 -57.5t139 57.5t51 155.5v190q0 96 -52 151.5t-138 55.5q-120 0 -150.5 -59.5t-33.5 -85.5h-189v799
h731v-187z" />
    <glyph glyph-name="six" unicode="6" 
d="M580 922q162 0 262 -107.5t100 -290.5v-112q0 -197 -117.5 -314.5t-304 -117.5t-302.5 115.5t-116 312.5v71q0 170 76 316l338 639h232l-308 -549q66 37 140 37zM731 403v113q0 109 -56.5 171.5t-152.5 62.5t-153.5 -62.5t-57.5 -171.5v-113q0 -106 57.5 -169.5
t153.5 -63.5t152.5 62t56.5 171z" />
    <glyph glyph-name="seven" unicode="7" horiz-adv-x="921" 
d="M72 1243v191h778v-150l-451 -1284h-221l449 1243h-555z" />
    <glyph glyph-name="eight" unicode="8" 
d="M301 442v-43q0 -111 60.5 -175t159.5 -64t159.5 64.5t60.5 174.5v43q0 111 -59.5 174.5t-159.5 63.5t-160.5 -63.5t-60.5 -174.5zM123 1063v20q0 160 114.5 265.5t286.5 105.5t285 -103.5t113 -263.5v-20q0 -199 -168 -303q199 -109 198 -348v-21q0 -184 -122.5 -299.5
t-309 -115.5t-307.5 113.5t-121 297.5v21q0 242 197 348q-166 102 -166 303zM332 1075v-39q0 -86 52 -141t137 -55t137.5 55t52.5 141v39q0 86 -52.5 141.5t-137.5 55.5t-137 -55.5t-52 -141.5z" />
    <glyph glyph-name="nine" unicode="9" 
d="M465 512q-162 0 -262.5 107.5t-100.5 289.5v113q0 197 118 314.5t304.5 117.5t302 -115.5t115.5 -312.5v-72q0 -170 -76 -315l-338 -639h-231l307 549q-65 -37 -139 -37zM313 1030v-112q0 -109 56.5 -171.5t152.5 -62.5t153.5 62.5t57.5 171.5v112q0 106 -57.5 170
t-153.5 64t-152.5 -62.5t-56.5 -171.5z" />
    <glyph glyph-name="colon" unicode=":" horiz-adv-x="440" 
d="M219.5 1071q59.5 0 99 -40t39.5 -99.5t-39.5 -98t-99 -38.5t-98.5 38.5t-39 98t39 99.5t98.5 40zM219.5 256q59.5 0 99 -40t39.5 -99.5t-39.5 -98t-99 -38.5t-98.5 38.5t-39 98t39 99.5t98.5 40z" />
    <glyph glyph-name="semicolon" unicode=";" horiz-adv-x="440" 
d="M219.5 1071q59.5 0 99 -40t39.5 -99.5t-39.5 -98t-99 -38.5t-98.5 38.5t-39 98t39 99.5t98.5 40zM250 -266h-168l35 542h231z" />
    <glyph glyph-name="less" unicode="&#x3c;" 
d="M963 1044l-680 -315l680 -315v-205l-881 430v174l881 430v-199z" />
    <glyph glyph-name="equal" unicode="=" 
d="M963 418h-881v170h881v-170zM963 823h-881v168h881v-168z" />
    <glyph glyph-name="greater" unicode="&#x3e;" 
d="M82 410l680 315l-680 315v205l881 -430v-174l-881 -430v199z" />
    <glyph glyph-name="question" unicode="?" horiz-adv-x="983" 
d="M598 475v-24h-195v41q0 86 45.5 164.5t98.5 130t98 124t45 157.5t-52 139.5t-141 54.5t-140.5 -58.5t-51.5 -159.5v-51h-203v39q0 190 113 306t287 116t286.5 -106.5t112.5 -271.5t-75.5 -251t-151.5 -164.5t-76 -185.5zM501.5 256q59.5 0 98.5 -40t39 -99.5t-39 -98
t-98.5 -38.5t-99.5 38.5t-40 98t40 99.5t99.5 40z" />
    <glyph glyph-name="at" unicode="@" horiz-adv-x="1937" 
d="M964 1010q144 0 210 -123l30 106h131l21 -22l-99 -697q-10 -82 25 -129t104 -47q121 0 216.5 130t95.5 325q0 328 -210 540t-517 212t-520 -216.5t-213 -520.5t212 -513t517 -209q76 0 157 17l27 -135q-131 -25 -186 -25q-371 0 -627 248.5t-256 614.5t259 627t629 261
t627.5 -259t257.5 -630q0 -258 -140 -436t-341 -178q-141 0 -214.5 87t-59.5 226q-84 -110 -230 -110t-220.5 90t-53.5 233l33 234q20 143 105.5 221t229.5 78zM983 852q-154 0 -178 -166l-27 -190q-12 -84 27 -135.5t115 -51.5t124 42t60 124l26 191q12 82 -29.5 134
t-117.5 52z" />
    <glyph glyph-name="A" unicode="A" horiz-adv-x="1105" 
d="M657 1434l449 -1434h-232l-104 352h-448l-103 -352h-219l446 1434h211zM545 1130l-180 -610h360z" />
    <glyph glyph-name="B" unicode="B" horiz-adv-x="1157" 
d="M362 662v-488h218q113 0 183.5 68.5t70.5 175t-70 175.5t-182 69h-220zM143 0v1434h475q182 0 294 -101.5t112 -259.5q0 -109 -56.5 -194.5t-154.5 -128.5q113 -43 177.5 -137.5t64.5 -217.5q0 -170 -123 -282.5t-318 -112.5h-471zM362 1260v-437h211q104 0 167 60.5
t63 157t-62.5 158t-165.5 61.5h-213z" />
    <glyph glyph-name="C" unicode="C" horiz-adv-x="1138" 
d="M803 440v72h213v-70q0 -213 -123 -337.5t-325 -124.5t-323.5 121.5t-121.5 334.5v553q0 213 124.5 339t326.5 126t322 -123t120 -336v-53h-213v51q0 125 -60.5 194.5t-169 69.5t-170 -69.5t-61.5 -194.5v-553q0 -125 61.5 -194.5t170 -69.5t169 69.5t60.5 194.5z" />
    <glyph glyph-name="D" unicode="D" horiz-adv-x="1167" 
d="M143 1434h428q223 0 348 -127t125 -363v-450q0 -233 -128 -363.5t-351 -130.5h-422v1434zM362 1239v-1044h201q125 0 192.5 76.5t67.5 220.5v450q0 143 -67.5 220t-192.5 77h-201z" />
    <glyph glyph-name="E" unicode="E" horiz-adv-x="962" 
d="M901 0h-758v1434h748v-195h-529v-405h447v-183h-447v-456h539v-195z" />
    <glyph glyph-name="F" unicode="F" horiz-adv-x="931" 
d="M799 578h-437v-578h-219v1434h738v-195h-519v-471h437v-190z" />
    <glyph glyph-name="G" unicode="G" horiz-adv-x="1167" 
d="M579.5 -20q-208.5 0 -332.5 124.5t-124 341.5v533q0 217 128 346t336 129t332.5 -126t124.5 -343v-29h-221v27q0 129 -63.5 201.5t-176 72.5t-177 -72.5t-64.5 -201.5v-528q0 -135 65.5 -210t180 -75t180.5 74.5t66 210.5v133h-240v164h450v-299q0 -217 -128 -345
t-336.5 -128z" />
    <glyph glyph-name="H" unicode="H" horiz-adv-x="1187" 
d="M823 0v649h-461v-649h-219v1434h219v-584h461v584h221v-1434h-221z" />
    <glyph glyph-name="I" unicode="I" horiz-adv-x="534" 
d="M154 0v1434h227v-1434h-227z" />
    <glyph glyph-name="J" unicode="J" horiz-adv-x="737" 
d="M377 1434h227v-1022q0 -203 -114.5 -317.5t-309.5 -114.5q-105 0 -137 16l-12 4l37 195q42 -15 122 -15t133.5 62.5t53.5 177.5v1014z" />
    <glyph glyph-name="K" unicode="K" horiz-adv-x="1058" 
d="M143 0v1434h219v-666l422 666h254l-467 -684l488 -750h-254l-443 707v-707h-219z" />
    <glyph glyph-name="L" unicode="L" horiz-adv-x="901" 
d="M143 0v1434h219v-1235h498v-199h-717z" />
    <glyph glyph-name="M" unicode="M" horiz-adv-x="1433" 
d="M350 0h-207v1434h222l358 -887l356 887h211v-1434h-207v997l-315 -772h-104l-314 772v-997z" />
    <glyph glyph-name="N" unicode="N" horiz-adv-x="1208" 
d="M346 0h-203v1434h215l504 -1010v1010h203v-1434h-203l-516 1034v-1034z" />
    <glyph glyph-name="O" unicode="O" horiz-adv-x="1167" 
d="M123 446v533q0 217 128 346t336 129t332.5 -126t124.5 -343v-532q0 -217 -128 -345t-336.5 -128t-332.5 124.5t-124 341.5zM342 983v-532q0 -129 64.5 -202t177 -73t176 73t63.5 202v532q0 129 -63.5 201.5t-176 72.5t-177 -72.5t-64.5 -201.5z" />
    <glyph glyph-name="P" unicode="P" horiz-adv-x="1095" 
d="M539 516h-177v-516h-219v1434h402q217 0 353 -130t136 -329t-137 -329t-358 -130zM532 1243h-170v-543h168q127 0 205 77t78 196t-77 194.5t-204 75.5z" />
    <glyph glyph-name="Q" unicode="Q" horiz-adv-x="1167" 
d="M123 446v533q0 217 128 346t336 129t332.5 -126t124.5 -343v-532q0 -276 -196 -398l162 -301h-222l-120 234q-57 -8 -88 -8q-209 0 -333 124.5t-124 341.5zM342 983v-532q0 -129 64.5 -202t177 -73t176 73t63.5 202v532q0 129 -63.5 201.5t-176 72.5t-177 -72.5
t-64.5 -201.5z" />
    <glyph glyph-name="R" unicode="R" horiz-adv-x="1126" 
d="M522 549h-160v-549h-219v1434h418q211 0 342 -126t131 -317q0 -127 -66.5 -228t-181.5 -153l279 -610h-248l-235 551q-14 -2 -60 -2zM362 1243v-522h179q123 0 198.5 74.5t75.5 186.5t-74.5 186.5t-197.5 74.5h-181z" />
    <glyph glyph-name="S" unicode="S" horiz-adv-x="1026" 
d="M127 1090q0 162 113.5 263t283.5 101q94 0 173 -30.5t145.5 -98.5t91.5 -143l10 -31l-180 -70q-6 23 -28.5 60t-46 61.5t-66.5 45t-108 20.5t-116 -45t-51 -122t58.5 -140.5t189.5 -141.5q332 -195 332 -448q0 -182 -118 -286.5t-300 -104.5q-100 0 -183 35.5t-157 116.5
t-96 159l-13 37l181 69q4 -10 10 -25.5t29.5 -55.5t51 -70.5t75 -55t98.5 -24.5q92 0 147.5 51t55.5 139t-63 155.5t-200 147.5q-319 188 -319 431z" />
    <glyph glyph-name="T" unicode="T" horiz-adv-x="952" 
d="M911 1233h-325v-1233h-221v1233h-324v201h870v-201z" />
    <glyph glyph-name="U" unicode="U" horiz-adv-x="1167" 
d="M815 440v994h219v-992q0 -213 -126 -337.5t-328.5 -124.5t-324.5 121.5t-122 334.5v998h221v-994q0 -125 61.5 -194.5t170 -69.5t169 69.5t60.5 194.5z" />
    <glyph glyph-name="V" unicode="V" horiz-adv-x="1095" 
d="M442 0l-442 1434h240l313 -1088l315 1088h228l-443 -1434h-211z" />
    <glyph glyph-name="W" unicode="W" horiz-adv-x="1576" 
d="M381 0l-381 1434h240l245 -1041l232 1041h153l232 -1041l248 1041h227l-381 -1434h-188l-220 961l-219 -961h-188z" />
    <glyph glyph-name="X" unicode="X" 
d="M1024 1434l-383 -693l403 -741h-245l-283 541l-283 -541h-233l401 729l-381 705h246l260 -504l265 504h233z" />
    <glyph glyph-name="Y" unicode="Y" horiz-adv-x="1075" 
d="M428 0v553l-428 881h248l295 -660l297 660h235l-428 -881v-553h-219z" />
    <glyph glyph-name="Z" unicode="Z" horiz-adv-x="1003" 
d="M922 0h-840v158l584 1085h-543v191h799v-160l-584 -1086h584v-188z" />
    <glyph glyph-name="bracketleft" unicode="[" horiz-adv-x="788" 
d="M707 -164h-543v1761h543v-178h-342v-1407h342v-176z" />
    <glyph glyph-name="backslash" unicode="\" horiz-adv-x="884" 
d="M178 1597l707 -1761h-178l-707 1761h178z" />
    <glyph glyph-name="bracketright" unicode="]" horiz-adv-x="788" 
d="M625 -164h-543v176h342v1407h-342v178h543v-1761z" />
    <glyph glyph-name="asciicircum" unicode="^" horiz-adv-x="1005" 
d="M719 694l-215 529l-217 -529h-205l338 738h166l338 -738h-205z" />
    <glyph glyph-name="underscore" unicode="_" horiz-adv-x="1024" 
d="M1024 -246h-1024v144h1024v-144z" />
    <glyph glyph-name="grave" unicode="`" horiz-adv-x="757" 
d="M432 1516l127 -338h-160l-184 338h217z" />
    <glyph glyph-name="a" unicode="a" horiz-adv-x="1024" 
d="M911 641v-641h-170l-14 98q-99 -118 -275 -118t-273 89t-97 232t100.5 235.5t264.5 92.5t253 -90v88q0 127 -63.5 192.5t-177.5 65.5q-72 0 -136.5 -16.5t-93.5 -32.5l-30 -17l-56 166q14 10 40 24.5t117 38t194 23.5q197 0 307 -111.5t110 -318.5zM500 135
q94 0 152.5 49t58.5 125t-58.5 125t-152.5 49t-151.5 -49t-57.5 -125t57.5 -125t151.5 -49z" />
    <glyph glyph-name="b" unicode="b" horiz-adv-x="1064" 
d="M123 0v1434h209v-490q92 127 264 127t269.5 -101.5t97.5 -285.5v-313q0 -182 -100.5 -286.5t-279.5 -104.5t-270 137l-6 -117h-184zM332 653v-256q0 -109 57 -170t153 -61t153 61.5t57 169.5v256q0 106 -57.5 169t-152.5 63t-152.5 -63t-57.5 -169z" />
    <glyph glyph-name="c" unicode="c" horiz-adv-x="1015" 
d="M711 381v22h202v-22q0 -182 -113.5 -291.5t-294.5 -109.5t-292 107.5t-111 293.5v283q0 186 115 296.5t295 110.5t290.5 -106.5t110.5 -290.5v-19h-202v13q0 98 -54.5 157.5t-145.5 59.5t-145.5 -59.5t-54.5 -161.5v-277q0 -102 54.5 -161.5t145.5 -59.5t145.5 58.5
t54.5 156.5z" />
    <glyph glyph-name="d" unicode="d" horiz-adv-x="1064" 
d="M942 1434v-1434h-184l-10 123q-92 -143 -272 -143t-277 101t-97 284v313q0 184 99.5 288.5t269.5 104.5t260 -119v482h211zM731 397v256q0 106 -57.5 169t-152.5 63t-152.5 -62.5t-57.5 -169.5v-256q0 -109 57.5 -170t152.5 -61t152.5 61t57.5 170z" />
    <glyph glyph-name="e" unicode="e" horiz-adv-x="1036" 
d="M518 -20q-188 0 -302 109.5t-114 301.5v262q0 190 118 304t303 114t298 -110.5t113 -301.5v-151h-623v-111q0 -109 57.5 -170t153.5 -61q55 0 97.5 21.5t74 72t35.5 92.5l2 21l199 -41q-19 -133 -79 -205t-142 -109.5t-191 -37.5zM311 674v-27h420v27q0 106 -57.5 168.5
t-152.5 62.5t-152.5 -62.5t-57.5 -168.5z" />
    <glyph glyph-name="f" unicode="f" horiz-adv-x="727" 
d="M403 1120v-110h283v-164h-283v-846h-208v846h-164v164h164v137q0 150 79.5 228.5t211.5 78.5t198 -24l23 -9l-27 -161q-55 18 -123 18q-154 0 -154 -158z" />
    <glyph glyph-name="g" unicode="g" horiz-adv-x="1064" 
d="M731 102v93q-92 -123 -264 -123t-268.5 101t-96.5 284v221q0 184 99.5 288.5t278.5 104.5t268 -139l10 119h184v-932q0 -223 -123 -345t-338 -122q-102 0 -191 20.5t-128 40.5l-39 21l65 168q121 -63 279 -64q264 0 264 264zM731 479v174q0 106 -57.5 169t-152.5 63
t-152.5 -62.5t-57.5 -169.5v-174q0 -109 57.5 -170t152.5 -61t152.5 61t57.5 170z" />
    <glyph glyph-name="h" unicode="h" horiz-adv-x="1054" 
d="M123 0v1434h209v-508q92 145 276 145q154 0 244 -101.5t90 -289.5v-680h-211v633q0 252 -192 252q-94 0 -150.5 -61.5t-56.5 -184.5v-639h-209z" />
    <glyph glyph-name="i" unicode="i" horiz-adv-x="481" 
d="M239.5 1481q59.5 0 99.5 -39t40 -98.5t-40 -98.5t-99.5 -39t-98.5 40t-39 97.5t39 97.5t98.5 40zM133 0v1051h215v-1051h-215z" />
    <glyph glyph-name="j" unicode="j" horiz-adv-x="481" 
d="M239.5 1481q59.5 0 99.5 -39t40 -98.5t-40 -98.5t-99.5 -39t-98.5 40t-39 97.5t39 97.5t98.5 40zM133 1051h215v-1057q0 -168 -84 -255t-231 -87q-31 0 -115 14l23 176q41 -10 75 -10q117 0 117 135v1084z" />
    <glyph glyph-name="k" unicode="k" horiz-adv-x="962" 
d="M123 0v1434h209v-848l366 465h254l-409 -476l430 -575h-258l-383 535v-535h-209z" />
    <glyph glyph-name="l" unicode="l" horiz-adv-x="481" 
d="M133 0v1434h215v-1434h-215z" />
    <glyph glyph-name="m" unicode="m" horiz-adv-x="1622" 
d="M332 647v-647h-209v1051h184l8 -133q90 154 293 154t277 -191q84 190 301 190q150 0 236.5 -100.5t86.5 -284.5v-686h-209v637q0 248 -182 248q-92 0 -144 -61.5t-52 -186.5v-637h-211v637q0 248 -183 248q-88 0 -142 -59.5t-54 -178.5z" />
    <glyph glyph-name="n" unicode="n" horiz-adv-x="1054" 
d="M123 0v1051h184l8 -136q94 156 293 156q154 0 244 -101.5t90 -289.5v-680h-211v633q0 252 -192 252q-92 0 -148.5 -61.5t-58.5 -182.5v-641h-209z" />
    <glyph glyph-name="o" unicode="o" 
d="M102 391v262q0 190 118 304t305 114t302 -110.5t115 -301.5v-262q0 -193 -117.5 -305t-306 -112t-302.5 109t-114 302zM311 653v-256q0 -109 57.5 -170t152.5 -61t152.5 61.5t57.5 169.5v256q0 106 -57.5 169t-152.5 63t-152.5 -63t-57.5 -169z" />
    <glyph glyph-name="p" unicode="p" horiz-adv-x="1064" 
d="M123 -328v1379h184l8 -125q93 145 273 145t277.5 -101.5t97.5 -285.5v-313q0 -182 -100.5 -286.5t-271.5 -104.5t-259 116v-424h-209zM332 653v-256q0 -109 57 -170t153 -61t153 61.5t57 169.5v256q0 106 -57.5 169t-152.5 63t-152.5 -63t-57.5 -169z" />
    <glyph glyph-name="q" unicode="q" horiz-adv-x="1064" 
d="M942 1051v-1379h-211v430q-92 -122 -264 -122t-268.5 101t-96.5 284v313q0 184 99.5 288.5t278.5 104.5t268 -139l10 119h184zM731 397v256q0 106 -57.5 169t-152.5 63t-152.5 -62.5t-57.5 -169.5v-256q0 -109 57.5 -170t152.5 -61t152.5 61t57.5 170z" />
    <glyph glyph-name="r" unicode="r" horiz-adv-x="698" 
d="M123 0v1051h184l12 -177q98 197 349 197v-213h-82q-119 0 -186.5 -74.5t-67.5 -224.5v-559h-209z" />
    <glyph glyph-name="s" unicode="s" horiz-adv-x="839" 
d="M778 289q0 -137 -100 -223t-260 -86q-106 0 -200.5 35.5t-135.5 72.5l-41 37l111 139q14 -12 38.5 -31.5t94 -51t135.5 -31.5t106.5 35.5t40.5 89.5t-45 99.5t-164 90.5q-266 102 -266 317q0 125 93.5 207t244.5 82q98 0 181 -30.5t118 -61.5l33 -31l-111 -141
q-38 38 -96.5 65t-118.5 27t-97.5 -31.5t-37.5 -74.5q0 -100 184 -172q293 -111 293 -332z" />
    <glyph glyph-name="t" unicode="t" horiz-adv-x="747" 
d="M543 166q51 0 127 16l26 -172q-80 -30 -215 -30t-210.5 74.5t-75.5 211.5v621h-164v164h164v260h208v-260h293v-164h-293v-580q0 -141 140 -141z" />
    <glyph glyph-name="u" unicode="u" horiz-adv-x="1054" 
d="M932 1051v-1051h-184l-9 135q-94 -156 -293 -155q-154 0 -243.5 101t-89.5 290v680h211v-633q0 -252 192 -252q92 0 148.5 61.5t58.5 182.5v641h209z" />
    <glyph glyph-name="v" unicode="v" horiz-adv-x="921" 
d="M362 0l-352 1051h226l231 -750l231 750h213l-354 -1051h-195z" />
    <glyph glyph-name="w" unicode="w" horiz-adv-x="1341" 
d="M317 0l-307 1051h226l188 -727l182 727h142l180 -727l190 727h213l-307 -1051h-182l-172 668l-170 -668h-183z" />
    <glyph glyph-name="x" unicode="x" horiz-adv-x="942" 
d="M922 1051l-336 -506l356 -545h-240l-237 383l-240 -383h-225l354 535l-334 516h238l217 -355l219 355h228z" />
    <glyph glyph-name="y" unicode="y" horiz-adv-x="921" 
d="M214 -348q-108 0 -165 24l-18 11l41 166q41 -20 104 -21q133 0 186 168l-352 1051h226l231 -781l231 781h213l-366 -1088q-55 -168 -139 -239.5t-192 -71.5z" />
    <glyph glyph-name="z" unicode="z" horiz-adv-x="870" 
d="M113 874v177h675v-146l-464 -729h464v-176h-706v145l463 729h-432z" />
    <glyph glyph-name="braceleft" unicode="{" horiz-adv-x="870" 
d="M487 504v-354q0 -76 35 -110t109 -34h157v-170h-190q-311 0 -311 311v373q0 61 -27 87t-86 26h-92v166h92q59 0 86 25.5t27 86.5v373q0 313 311 313h190v-172h-157q-74 0 -109 -33.5t-35 -109.5v-354q0 -100 -43 -153.5t-116 -57.5q159 -10 159 -213z" />
    <glyph glyph-name="bar" unicode="|" horiz-adv-x="583" 
d="M205 -205v1843h174v-1843h-174z" />
    <glyph glyph-name="braceright" unicode="}" horiz-adv-x="870" 
d="M383 930v354q0 76 -35 109.5t-108 33.5h-158v170h190q311 0 312 -311v-373q0 -61 26.5 -86.5t85.5 -25.5h92v-166h-92q-59 0 -85.5 -25.5t-26.5 -87.5v-372q0 -313 -312 -314h-190v172h158q74 0 108.5 34t34.5 110v354q0 100 43 153.5t117 57.5q-160 10 -160 213z" />
    <glyph glyph-name="asciitilde" unicode="~" 
d="M318 858q68 0 127 -29.5t126.5 -95t145.5 -65.5q49 0 76.5 40t29.5 78l4 41l156 -10q0 -41 -16.5 -105.5t-41 -107.5t-79 -79t-122.5 -36t-126.5 30t-126 95.5t-145.5 65.5q-49 0 -77 -40t-32 -79l-2 -41l-154 10q0 36 15.5 103t40 110t79 79t122.5 36z" />
    <glyph glyph-name="exclamdown" unicode="&#xa1;" horiz-adv-x="542" 
d="M272.5 1178q-59.5 0 -99.5 39.5t-40 99t40 98.5t99.5 39t98.5 -39t39 -98.5t-39 -99t-98.5 -39.5zM346 983l49 -983h-245l47 983h149z" />
    <glyph glyph-name="cent" unicode="&#xa2;" horiz-adv-x="1036" 
d="M721 786h203v-16q0 -166 -92.5 -271.5t-243.5 -127.5v-172h-131v170q-158 16 -251 120.5t-93 274.5v283q0 166 94 272t250 125v174h131v-174q154 -18 245 -121.5t91 -269.5v-15h-203v9q0 102 -54.5 161.5t-145.5 59.5t-145 -59.5t-54 -161.5v-277q0 -102 54 -161.5
t145 -59.5t145.5 59.5t54.5 161.5v16z" />
    <glyph glyph-name="sterling" unicode="&#xa3;" horiz-adv-x="1077" 
d="M768 635h-365v-451h549v-184h-757v635h-164v127h164v280q0 188 111.5 300t287.5 112t283.5 -108.5t107.5 -294.5v-37h-203v35q0 100 -50 156.5t-138 56.5t-139.5 -56.5t-51.5 -156.5v-287h365v-127z" />
    <glyph glyph-name="currency" unicode="&#xa4;" horiz-adv-x="1212" 
d="M610 1167q143 0 262 -82l166 162l92 -92l-163 -158q98 -121 98 -279t-100 -282l165 -157l-92 -93l-168 162q-120 -82 -268 -82t-262 80l-166 -160l-92 93l164 155q-96 118 -96 280t98 279l-166 162l92 92l168 -164q125 84 268 84zM607 438q116 0 195 80t79 198t-79 197.5
t-195 79.5t-195.5 -79.5t-79.5 -197.5t79.5 -198t195.5 -80z" />
    <glyph glyph-name="yen" unicode="&#xa5;" horiz-adv-x="1116" 
d="M449 0v393h-367v119h367v133l-19 35h-348v119h291l-332 635h244l278 -586l279 586h233l-332 -635h291v-119h-350l-16 -35v-133h366v-119h-366v-393h-219z" />
    <glyph glyph-name="brokenbar" unicode="&#xa6;" horiz-adv-x="583" 
d="M205 -205v686h174v-686h-174zM379 1638v-686h-174v686h174z" />
    <glyph glyph-name="section" unicode="&#xa7;" horiz-adv-x="1146" 
d="M594 1454q94 0 169 -28.5t137.5 -95t74.5 -126.5l8 -28l-184 -62q0 18 -17.5 51t-37 54.5t-58 39t-100.5 17.5t-109 -43t-47 -107q0 -137 211 -215q414 -150 414 -397q0 -100 -62.5 -179t-167.5 -114q107 -99 107 -239t-106.5 -235t-274.5 -95q-94 0 -168 28.5t-136 93.5
t-75 128l-8 28l184 60q0 -17 35.5 -89.5t154.5 -72.5q83 0 131 43t48 106q0 139 -213 216q-412 150 -412 397q0 100 62 179t168 114q-106 96 -106 237t106 237.5t272 96.5zM307 611q0 -67 64.5 -129t230.5 -122q25 -8 70 -28q76 10 122 51t46 109t-64.5 131t-230.5 122
q-49 15 -74 29q-74 -10 -119 -53t-45 -110z" />
    <glyph glyph-name="dieresis" unicode="&#xa8;" 
d="M334 1458q51 0 85 -33.5t34 -85t-34 -85t-85 -33.5t-85 32.5t-34 84.5t34 86t85 34zM710.5 1458q51.5 0 85 -33.5t33.5 -85t-33.5 -85t-85 -33.5t-85 32.5t-33.5 84.5t33.5 86t85 34z" />
    <glyph glyph-name="copyright" unicode="&#xa9;" horiz-adv-x="1650" 
d="M825 104q256 0 432.5 177.5t176.5 435.5t-176.5 435t-432.5 177t-433 -177t-177 -435t177 -435.5t433 -177.5zM829.5 1454q315.5 0 527.5 -211t212 -522t-216 -526t-531.5 -215t-527.5 210.5t-212 522t216 526.5t531.5 215zM840 311q-178 0 -292 115t-114 287t117 290.5
t281 118.5t235 -56t90 -83l-108 -92q-20 34 -79 62t-120 28q-111 0 -186.5 -76t-75.5 -188.5t75.5 -188t186.5 -75.5q66 0 118 25.5t72 49.5l21 27l102 -92q-63 -94 -161.5 -123t-161.5 -29z" />
    <glyph glyph-name="ordfeminine" unicode="&#xaa;" horiz-adv-x="714" 
d="M113 565v105h510v-105h-510zM623 1180v-389h-123l-11 49q-57 -62 -165 -62t-170 53.5t-62 142.5t65 144.5t163 55.5t149 -44v46q0 139 -135 139q-85 0 -150 -31l-18 -10l-39 112q84 56 219 56t206 -67.5t71 -194.5zM358.5 883q51.5 0 84 27.5t32.5 68.5t-32.5 68.5
t-84 27.5t-83 -27.5t-31.5 -68.5t31.5 -68.5t83 -27.5z" />
    <glyph glyph-name="guillemotleft" unicode="&#xab;" horiz-adv-x="1380" 
d="M1257 1069l-350 -350l350 -348l-112 -121l-465 430v72l465 430zM659 1069l-350 -350l350 -348l-112 -121l-465 430v72l465 430z" />
    <glyph glyph-name="logicalnot" unicode="&#xac;" 
d="M782 358v342h-700v170h881v-512h-181z" />
    <glyph glyph-name="registered" unicode="&#xae;" horiz-adv-x="966" 
d="M336 862v387h174q61 0 101 -34.5t40 -92.5q0 -88 -84 -118l101 -142h-103l-88 131h-55v-131h-86zM482 743q132 0 221.5 89.5t89.5 223.5t-89.5 223t-221.5 89t-221 -89t-89 -223t89 -223.5t221 -89.5zM484 1454q169 0 285 -114.5t116 -282.5t-117 -284t-287 -116
t-284.5 114t-114.5 282t116.5 284.5t285.5 116.5zM500 1176h-78v-115h78q66 0 66 57.5t-66 57.5z" />
    <glyph glyph-name="macron" unicode="&#xaf;" horiz-adv-x="942" 
d="M154 1286v133h634v-133h-634z" />
    <glyph glyph-name="degree" unicode="&#xb0;" horiz-adv-x="823" 
d="M400 1454q138 0 231.5 -92t93.5 -229.5t-95 -230.5t-234.5 -93t-231.5 91t-92 228.5t95 231.5t233 94zM397 946q78 0 129.5 54t51.5 132t-51.5 131.5t-129.5 53.5t-129 -53.5t-51 -132.5t51 -132t129 -53z" />
    <glyph glyph-name="plusminus" unicode="&#xb1;" 
d="M963 90h-881v170h881v-170zM608 1339v-356h355v-168h-355v-356h-172v356h-354v168h354v356h172z" />
    <glyph glyph-name="twosuperior" unicode="&#xb2;" horiz-adv-x="620" 
d="M559 702v-129h-498v105l289 364q62 76 62 142t-29 97.5t-76 31.5t-74.5 -30t-27.5 -83v-45h-144v39q0 115 70 183.5t178 68.5t179.5 -63t71.5 -175t-109 -247l-207 -259h315z" />
    <glyph glyph-name="threesuperior" unicode="&#xb3;" horiz-adv-x="634" 
d="M74 1192v20q0 104 67.5 169t170.5 65t171 -63.5t68 -161.5v-11q0 -121 -100 -190q113 -63 112 -197v-22q0 -104 -72.5 -172t-181 -68t-178.5 65.5t-70 172.5v35h140v-27q0 -55 28.5 -86t77.5 -31t79 32t30 87v29q0 57 -30 90t-81 33h-69v114h69q45 0 71.5 29t26.5 80v26
q0 47 -26.5 76t-69.5 29t-68.5 -26.5t-25.5 -76.5v-20h-139z" />
    <glyph glyph-name="acute" unicode="&#xb4;" horiz-adv-x="757" 
d="M199 1178l127 338h217l-185 -338h-159z" />
    <glyph glyph-name="mu" unicode="&#xb5;" horiz-adv-x="1064" 
d="M123 -328v1379h211v-633q0 -252 192 -252q92 0 149.5 60.5t57.5 176.5v648h209v-1051h-184l-10 129q-94 -150 -275 -149q-78 0 -139 28v-336h-211z" />
    <glyph glyph-name="mu" unicode="&#x3bc;" horiz-adv-x="1064" 
d="M123 -328v1379h211v-633q0 -252 192 -252q92 0 149.5 60.5t57.5 176.5v648h209v-1051h-184l-10 129q-94 -150 -275 -149q-78 0 -139 28v-336h-211z" />
    <glyph glyph-name="paragraph" unicode="&#xb6;" horiz-adv-x="1335" 
d="M522 0v649h-33q-193 0 -305 109.5t-112 279.5t115.5 283t308.5 113h655v-1434h-195v1260h-239v-1260h-195z" />
    <glyph glyph-name="periodcentered" unicode="&#xb7;" horiz-adv-x="440" 
d="M219.5 854q59.5 0 99 -40t39.5 -99.5t-39.5 -98t-99 -38.5t-98.5 38.5t-39 98t39 99.5t98.5 40z" />
    <glyph glyph-name="cedilla" unicode="&#xb8;" horiz-adv-x="727" 
d="M523 -333q-81 -66 -179 -66t-174 34l25 132q39 -25 106 -25t105 34t38 83q0 87 -53 129l-18 12l78 76q15 -5 84 -54.5t69 -185.5q0 -103 -81 -169z" />
    <glyph glyph-name="onesuperior" unicode="&#xb9;" horiz-adv-x="524" 
d="M412 1434v-861h-148v687l-162 -130l-71 95l258 209h123z" />
    <glyph glyph-name="ordmasculine" unicode="&#xba;" horiz-adv-x="720" 
d="M113 565v105h495v-105h-495zM92 1040v136q0 123 75 194.5t195.5 71.5t193.5 -69.5t73 -194.5v-134q0 -125 -75 -195.5t-195.5 -70.5t-193.5 69.5t-73 192.5zM244 1180v-140q0 -131 116 -131t115 131v140q1 129 -115 129t-116 -129z" />
    <glyph glyph-name="guillemotright" unicode="&#xbb;" horiz-adv-x="1380" 
d="M721 365l350 350l-350 348l113 121l464 -430v-72l-464 -430zM123 365l350 350l-350 348l113 121l464 -430v-72l-464 -430z" />
    <glyph glyph-name="onequarter" unicode="&#xbc;" horiz-adv-x="1495" 
d="M225 0l949 1434h141l-948 -1434h-142zM1294 860v-545h99v-114h-99v-201h-141v201h-319v118l315 541h145zM1153 315v344l-203 -344h203zM412 1434v-861h-148v687l-162 -130l-71 95l258 209h123z" />
    <glyph glyph-name="onehalf" unicode="&#xbd;" horiz-adv-x="1607" 
d="M1505 129v-129h-497v104l288 365q62 77 62 143t-29 96.5t-76 30.5t-74.5 -29.5t-27.5 -82.5v-45h-143v39q0 115 69.5 183t177.5 68t179.5 -63t71.5 -175t-109 -247l-207 -258h315zM225 0l949 1434h141l-948 -1434h-142zM412 1434v-861h-148v687l-162 -130l-71 95l258 209
h123z" />
    <glyph glyph-name="threequarters" unicode="&#xbe;" horiz-adv-x="1515" 
d="M246 0l948 1434h141l-948 -1434h-141zM74 1192v20q0 104 67.5 169t170.5 65t171 -63.5t68 -161.5v-11q0 -121 -100 -190q113 -63 112 -197v-22q0 -104 -72.5 -172t-181 -68t-178.5 65.5t-70 172.5v35h140v-27q0 -55 28.5 -86t77.5 -31t79 32t30 87v29q0 57 -30 90t-81 33
h-69v114h69q45 0 71.5 29t26.5 80v26q0 47 -26.5 76t-69.5 29t-68.5 -26.5t-25.5 -76.5v-20h-139zM1315 860v-545h98v-114h-98v-201h-141v201h-320v118l315 541h146zM1174 315v344l-203 -344h203z" />
    <glyph glyph-name="questiondown" unicode="&#xbf;" horiz-adv-x="983" 
d="M385 958v25h195v-41q0 -86 -45.5 -165t-98.5 -130t-98 -123.5t-45 -157.5t52 -139.5t141 -54.5t140.5 58.5t51.5 158.5v51h203v-39q0 -190 -113 -305.5t-287 -115.5t-286.5 106.5t-112.5 271.5t75.5 250.5t151.5 164t76 185.5zM481.5 1178q-59.5 0 -98.5 39.5t-39 99
t39 98.5t98.5 39t99.5 -39t40 -98.5t-40 -99t-99.5 -39.5z" />
    <glyph glyph-name="Agrave" unicode="&#xc0;" horiz-adv-x="1105" 
d="M504 1884l127 -338h-160l-184 338h217zM657 1434l449 -1434h-232l-104 352h-448l-103 -352h-219l446 1434h211zM545 1130l-180 -610h360z" />
    <glyph glyph-name="Aacute" unicode="&#xc1;" horiz-adv-x="1105" 
d="M475 1546l127 338h217l-184 -338h-160zM657 1434l449 -1434h-232l-104 352h-448l-103 -352h-219l446 1434h211zM545 1130l-180 -610h360z" />
    <glyph glyph-name="Acircumflex" unicode="&#xc2;" horiz-adv-x="1105" 
d="M221 1546l246 338h174l246 -338h-174l-164 199l-162 -199h-166zM657 1434l449 -1434h-232l-104 352h-448l-103 -352h-219l446 1434h211zM545 1130l-180 -610h360z" />
    <glyph glyph-name="Atilde" unicode="&#xc3;" horiz-adv-x="1105" 
d="M427 1843q56 0 101 -34.5t80 -68.5t68 -34t50 28.5t19 57.5l5 29l122 -9q0 -84 -30.5 -137t-69.5 -79.5t-89 -26.5q-93 0 -149.5 69.5t-107.5 69.5q-31 0 -48.5 -28.5t-19.5 -57.5l-2 -29l-123 9q0 78 30 133t69 81.5t95 26.5zM657 1434l449 -1434h-232l-104 352h-448
l-103 -352h-219l446 1434h211zM545 1130l-180 -610h360z" />
    <glyph glyph-name="Adieresis" unicode="&#xc4;" horiz-adv-x="1105" 
d="M364.5 1827q51.5 0 85 -34t33.5 -85t-33.5 -85t-85.5 -34t-85 33t-33 85t33.5 86t85 34zM741.5 1827q51.5 0 85 -34t33.5 -85t-34 -85t-86 -34t-84.5 33t-32.5 85t33.5 86t85 34zM657 1434l449 -1434h-232l-104 352h-448l-103 -352h-219l446 1434h211zM545 1130
l-180 -610h360z" />
    <glyph glyph-name="Aring" unicode="&#xc5;" horiz-adv-x="1105" 
d="M553 1626q43 0 71.5 28.5t28.5 71.5t-28.5 71t-71.5 28t-72.5 -29t-29.5 -71t29.5 -70.5t72.5 -28.5zM552 1921q89 0 147.5 -55.5t58.5 -139.5t-58.5 -139t-146.5 -55t-146.5 54t-58.5 139t57.5 140.5t146.5 55.5zM657 1434l449 -1434h-232l-104 352h-448l-103 -352h-219
l446 1434h211zM545 1130l-180 -610h360z" />
    <glyph glyph-name="AE" unicode="&#xc6;" horiz-adv-x="1566" 
d="M1495 1239h-528v-405h446v-183h-446v-456h538v-195h-757v354h-377l-156 -354h-225l628 1434h877v-195zM748 520v733l-316 -733h316z" />
    <glyph glyph-name="Ccedilla" unicode="&#xc7;" horiz-adv-x="1138" 
d="M803 440v72h213v-70q0 -190 -99.5 -311t-267.5 -145q43 -61 43 -138q0 -115 -81 -181t-179 -66t-174 34l25 132q39 -25 106 -25t105 34t38 100t-55 112q-164 25 -259 142.5t-95 305.5v553q0 213 124.5 339t326.5 126t322 -123t120 -336v-53h-213v51q0 125 -60.5 194.5
t-169 69.5t-170 -69.5t-61.5 -194.5v-553q0 -125 61.5 -194.5t170 -69.5t169 69.5t60.5 194.5z" />
    <glyph glyph-name="Egrave" unicode="&#xc8;" horiz-adv-x="962" 
d="M494 1884l127 -338h-160l-185 338h218zM901 0h-758v1434h748v-195h-529v-405h447v-183h-447v-456h539v-195z" />
    <glyph glyph-name="Eacute" unicode="&#xc9;" horiz-adv-x="962" 
d="M444 1546l127 338h217l-184 -338h-160zM901 0h-758v1434h748v-195h-529v-405h447v-183h-447v-456h539v-195z" />
    <glyph glyph-name="Ecircumflex" unicode="&#xca;" horiz-adv-x="962" 
d="M178 1546l246 338h174l246 -338h-174l-164 199l-162 -199h-166zM901 0h-758v1434h748v-195h-529v-405h447v-183h-447v-456h539v-195z" />
    <glyph glyph-name="Edieresis" unicode="&#xcb;" horiz-adv-x="962" 
d="M323.5 1827q51.5 0 85 -34t33.5 -85t-33.5 -85t-85.5 -34t-85 33t-33 85t33.5 86t85 34zM700.5 1827q51.5 0 85 -34t33.5 -85t-33.5 -85t-85.5 -34t-85 33t-33 85t33.5 86t85 34zM901 0h-758v1434h748v-195h-529v-405h447v-183h-447v-456h539v-195z" />
    <glyph glyph-name="Igrave" unicode="&#xcc;" horiz-adv-x="534" 
d="M217 1884l127 -338h-160l-184 338h217zM154 0v1434h227v-1434h-227z" />
    <glyph glyph-name="Iacute" unicode="&#xcd;" horiz-adv-x="534" 
d="M190 1546l127 338h218l-185 -338h-160zM154 0v1434h227v-1434h-227z" />
    <glyph glyph-name="Icircumflex" unicode="&#xce;" horiz-adv-x="534" 
d="M-66 1546l246 338h174l246 -338h-174l-164 199l-162 -199h-166zM154 0v1434h227v-1434h-227z" />
    <glyph glyph-name="Idieresis" unicode="&#xcf;" horiz-adv-x="534" 
d="M78 1827q51 0 85 -34t34 -85t-34 -85t-86 -34t-85 33t-33 85t34 86t85 34zM454.5 1827q51.5 0 85 -34t33.5 -85t-33.5 -85t-85.5 -34t-85 33t-33 85t33.5 86t85 34zM154 0v1434h227v-1434h-227z" />
    <glyph glyph-name="Eth" unicode="&#xd0;" horiz-adv-x="1239" 
d="M215 0v662h-174v131h174v641h428q223 0 348 -127t125 -363v-450q0 -233 -128 -363.5t-351 -130.5h-422zM436 1239v-446h260v-131h-260v-467h199q127 0 194.5 76.5t67.5 220.5v450q0 143 -67.5 220t-194.5 77h-199z" />
    <glyph glyph-name="Ntilde" unicode="&#xd1;" horiz-adv-x="1208" 
d="M486 1843q56 0 101.5 -34.5t80 -68.5t67.5 -34t50.5 28.5t21.5 57.5l2 29l123 -9q0 -83 -31 -136.5t-70 -80t-89 -26.5q-94 0 -150 69.5t-107 69.5q-31 0 -48 -28.5t-19 -57.5l-2 -29l-123 9q0 80 29.5 134t68.5 80.5t95 26.5zM346 0h-203v1434h215l504 -1010v1010h203
v-1434h-203l-516 1034v-1034z" />
    <glyph glyph-name="Ograve" unicode="&#xd2;" horiz-adv-x="1167" 
d="M545 1884l127 -338h-160l-184 338h217zM123 446v533q0 217 128 346t336 129t332.5 -126t124.5 -343v-532q0 -217 -128 -345t-336.5 -128t-332.5 124.5t-124 341.5zM342 983v-532q0 -129 64.5 -202t177 -73t176 73t63.5 202v532q0 129 -63.5 201.5t-176 72.5t-177 -72.5
t-64.5 -201.5z" />
    <glyph glyph-name="Oacute" unicode="&#xd3;" horiz-adv-x="1167" 
d="M496 1546l127 338h217l-185 -338h-159zM123 446v533q0 217 128 346t336 129t332.5 -126t124.5 -343v-532q0 -217 -128 -345t-336.5 -128t-332.5 124.5t-124 341.5zM342 983v-532q0 -129 64.5 -202t177 -73t176 73t63.5 202v532q0 129 -63.5 201.5t-176 72.5t-177 -72.5
t-64.5 -201.5z" />
    <glyph glyph-name="Ocircumflex" unicode="&#xd4;" horiz-adv-x="1167" 
d="M250 1546l246 338h174l245 -338h-174l-163 199l-162 -199h-166zM123 446v533q0 217 128 346t336 129t332.5 -126t124.5 -343v-532q0 -217 -128 -345t-336.5 -128t-332.5 124.5t-124 341.5zM342 983v-532q0 -129 64.5 -202t177 -73t176 73t63.5 202v532q0 129 -63.5 201.5
t-176 72.5t-177 -72.5t-64.5 -201.5z" />
    <glyph glyph-name="Otilde" unicode="&#xd5;" horiz-adv-x="1167" 
d="M458 1843q56 0 101 -34.5t80 -68.5t68 -34t50 28.5t21 57.5l2 29l123 -9q0 -84 -30.5 -137t-69.5 -79.5t-89 -26.5q-93 0 -149.5 69.5t-107.5 69.5q-31 0 -48.5 -28.5t-19.5 -57.5l-2 -29l-123 9q0 78 30 133t69 81.5t95 26.5zM123 446v533q0 217 128 346t336 129
t332.5 -126t124.5 -343v-532q0 -217 -128 -345t-336.5 -128t-332.5 124.5t-124 341.5zM342 983v-532q0 -129 64.5 -202t177 -73t176 73t63.5 202v532q0 129 -63.5 201.5t-176 72.5t-177 -72.5t-64.5 -201.5z" />
    <glyph glyph-name="Odieresis" unicode="&#xd6;" horiz-adv-x="1167" 
d="M395 1827q51 0 85 -34t34 -85t-34 -85t-85 -34t-85 33t-34 85t34 86t85 34zM772 1827q51 0 85 -34t34 -85t-34 -85t-85 -34t-85 33t-34 85t34 86t85 34zM123 446v533q0 217 128 346t336 129t332.5 -126t124.5 -343v-532q0 -217 -128 -345t-336.5 -128t-332.5 124.5
t-124 341.5zM342 983v-532q0 -129 64.5 -202t177 -73t176 73t63.5 202v532q0 129 -63.5 201.5t-176 72.5t-177 -72.5t-64.5 -201.5z" />
    <glyph glyph-name="multiply" unicode="&#xd7;" 
d="M829 289l-309 313l-309 -313l-117 119l314 307l-314 309l117 117l309 -314l309 314l119 -117l-315 -309l315 -307z" />
    <glyph glyph-name="Oslash" unicode="&#xd8;" horiz-adv-x="1167" 
d="M338 983v-532q0 -37 2 -54l428 785q-68 80 -184 80t-181 -74t-65 -205zM829 983q0 18 -4 55l-428 -786q63 -82 183 -82t184.5 74.5t64.5 206.5v532zM1044 985v-532q0 -217 -128 -345t-336 -128q-170 0 -285 83l-68 -124h-135l115 213q-84 119 -84 294v533q0 217 128 346
t335 129q164 0 282 -84l70 125h137l-117 -215q86 -119 86 -295z" />
    <glyph glyph-name="Ugrave" unicode="&#xd9;" horiz-adv-x="1167" 
d="M547 1884l127 -338h-160l-184 338h217zM815 440v994h219v-992q0 -213 -126 -337.5t-328.5 -124.5t-324.5 121.5t-122 334.5v998h221v-994q0 -125 61.5 -194.5t170 -69.5t169 69.5t60.5 194.5z" />
    <glyph glyph-name="Uacute" unicode="&#xda;" horiz-adv-x="1167" 
d="M516 1546l127 338h217l-184 -338h-160zM815 440v994h219v-992q0 -213 -126 -337.5t-328.5 -124.5t-324.5 121.5t-122 334.5v998h221v-994q0 -125 61.5 -194.5t170 -69.5t169 69.5t60.5 194.5z" />
    <glyph glyph-name="Ucircumflex" unicode="&#xdb;" horiz-adv-x="1167" 
d="M252 1546l246 338h174l246 -338h-175l-163 199l-162 -199h-166zM815 440v994h219v-992q0 -213 -126 -337.5t-328.5 -124.5t-324.5 121.5t-122 334.5v998h221v-994q0 -125 61.5 -194.5t170 -69.5t169 69.5t60.5 194.5z" />
    <glyph glyph-name="Udieresis" unicode="&#xdc;" horiz-adv-x="1167" 
d="M397.5 1827q51.5 0 85 -34t33.5 -85t-34 -85t-86 -34t-84.5 33t-32.5 85t33.5 86t85 34zM774 1827q51 0 85 -34t34 -85t-34 -85t-86 -34t-85 33t-33 85t34 86t85 34zM815 440v994h219v-992q0 -213 -126 -337.5t-328.5 -124.5t-324.5 121.5t-122 334.5v998h221v-994
q0 -125 61.5 -194.5t170 -69.5t169 69.5t60.5 194.5z" />
    <glyph glyph-name="Yacute" unicode="&#xdd;" horiz-adv-x="1075" 
d="M475 1546l127 338h217l-184 -338h-160zM428 0v553l-428 881h248l295 -660l297 660h235l-428 -881v-553h-219z" />
    <glyph glyph-name="Thorn" unicode="&#xde;" horiz-adv-x="1105" 
d="M143 0v1434h222v-242h170q219 0 354 -126t135 -318t-138 -319.5t-358 -127.5h-163v-301h-222zM365 1008v-523h155q129 0 207 75t78 187.5t-78 186.5t-205 74h-157z" />
    <glyph glyph-name="germandbls" unicode="&#xdf;" horiz-adv-x="1105" 
d="M594 653h-82v178h20q90 0 145.5 55.5t55.5 149.5v27q0 94 -55 149.5t-145.5 55.5t-144.5 -57.5t-54 -157.5v-1053h-211v1057q0 184 114.5 290.5t298.5 106.5t295 -100.5t111 -268.5v-22q0 -195 -149 -295q109 -41 170 -132t61 -224v-27q0 -184 -113.5 -294.5
t-294.5 -110.5q-69 0 -137 16l19 180q37 -10 96 -10q100 0 160.5 61.5t60.5 167.5v25q0 106 -60.5 169.5t-160.5 63.5z" />
    <glyph glyph-name="agrave" unicode="&#xe0;" horiz-adv-x="1024" 
d="M475 1516l127 -338h-160l-184 338h217zM911 641v-641h-170l-14 98q-99 -118 -275 -118t-273 89t-97 232t100.5 235.5t264.5 92.5t253 -90v88q0 127 -63.5 192.5t-177.5 65.5q-72 0 -136.5 -16.5t-93.5 -32.5l-30 -17l-56 166q14 10 40 24.5t117 38t194 23.5
q197 0 307 -111.5t110 -318.5zM500 135q94 0 152.5 49t58.5 125t-58.5 125t-152.5 49t-151.5 -49t-57.5 -125t57.5 -125t151.5 -49z" />
    <glyph glyph-name="aacute" unicode="&#xe1;" horiz-adv-x="1024" 
d="M449 1178l126 338h218l-185 -338h-159zM911 641v-641h-170l-14 98q-99 -118 -275 -118t-273 89t-97 232t100.5 235.5t264.5 92.5t253 -90v88q0 127 -63.5 192.5t-177.5 65.5q-72 0 -136.5 -16.5t-93.5 -32.5l-30 -17l-56 166q14 10 40 24.5t117 38t194 23.5
q197 0 307 -111.5t110 -318.5zM500 135q94 0 152.5 49t58.5 125t-58.5 125t-152.5 49t-151.5 -49t-57.5 -125t57.5 -125t151.5 -49z" />
    <glyph glyph-name="acircumflex" unicode="&#xe2;" horiz-adv-x="1024" 
d="M182 1178l246 338h174l246 -338h-174l-164 198l-162 -198h-166zM911 641v-641h-170l-14 98q-99 -118 -275 -118t-273 89t-97 232t100.5 235.5t264.5 92.5t253 -90v88q0 127 -63.5 192.5t-177.5 65.5q-72 0 -136.5 -16.5t-93.5 -32.5l-30 -17l-56 166q14 10 40 24.5
t117 38t194 23.5q197 0 307 -111.5t110 -318.5zM500 135q94 0 152.5 49t58.5 125t-58.5 125t-152.5 49t-151.5 -49t-57.5 -125t57.5 -125t151.5 -49z" />
    <glyph glyph-name="atilde" unicode="&#xe3;" horiz-adv-x="1024" 
d="M400 1475q56 0 101.5 -35t80 -69t67.5 -34t50.5 29t21.5 57l2 29l123 -8q0 -84 -31 -137.5t-70 -80t-89 -26.5q-94 0 -150 69.5t-107 69.5q-31 0 -48 -28.5t-19 -57.5l-2 -28l-123 8q0 82 29.5 135t68.5 80t95 27zM911 641v-641h-170l-14 98q-99 -118 -275 -118t-273 89
t-97 232t100.5 235.5t264.5 92.5t253 -90v88q0 127 -63.5 192.5t-177.5 65.5q-72 0 -136.5 -16.5t-93.5 -32.5l-30 -17l-56 166q14 10 40 24.5t117 38t194 23.5q197 0 307 -111.5t110 -318.5zM500 135q94 0 152.5 49t58.5 125t-58.5 125t-152.5 49t-151.5 -49t-57.5 -125
t57.5 -125t151.5 -49z" />
    <glyph glyph-name="adieresis" unicode="&#xe4;" horiz-adv-x="1024" 
d="M327.5 1458q51.5 0 85 -33.5t33.5 -85t-33.5 -85t-85.5 -33.5t-85 32.5t-33 84.5t33.5 86t85 34zM704.5 1458q51.5 0 85 -33.5t33.5 -85t-33.5 -85t-85.5 -33.5t-85 32.5t-33 84.5t33.5 86t85 34zM911 641v-641h-170l-14 98q-99 -118 -275 -118t-273 89t-97 232
t100.5 235.5t264.5 92.5t253 -90v88q0 127 -63.5 192.5t-177.5 65.5q-72 0 -136.5 -16.5t-93.5 -32.5l-30 -17l-56 166q14 10 40 24.5t117 38t194 23.5q197 0 307 -111.5t110 -318.5zM500 135q94 0 152.5 49t58.5 125t-58.5 125t-152.5 49t-151.5 -49t-57.5 -125t57.5 -125
t151.5 -49z" />
    <glyph glyph-name="aring" unicode="&#xe5;" horiz-adv-x="1024" 
d="M516 1257q43 0 71.5 29t28.5 72t-28.5 70.5t-71.5 27.5t-72.5 -28.5t-29.5 -70.5t29.5 -71t72.5 -29zM515 1552q89 0 147.5 -55t58.5 -139t-58.5 -139.5t-146.5 -55.5t-146.5 54.5t-58.5 139.5t57.5 140t146.5 55zM911 641v-641h-170l-14 98q-99 -118 -275 -118t-273 89
t-97 232t100.5 235.5t264.5 92.5t253 -90v88q0 127 -63.5 192.5t-177.5 65.5q-72 0 -136.5 -16.5t-93.5 -32.5l-30 -17l-56 166q14 10 40 24.5t117 38t194 23.5q197 0 307 -111.5t110 -318.5zM500 135q94 0 152.5 49t58.5 125t-58.5 125t-152.5 49t-151.5 -49t-57.5 -125
t57.5 -125t151.5 -49z" />
    <glyph glyph-name="ae" unicode="&#xe6;" horiz-adv-x="1636" 
d="M502 135q94 0 152.5 49t58.5 125t-59.5 125t-152.5 49t-150.5 -49t-57.5 -125t57.5 -125t151.5 -49zM1118 -20q-219 0 -317 167q-98 -168 -346 -167q-174 0 -273.5 89t-99.5 232t100.5 235.5t263.5 92.5t256 -90v88q0 127 -63.5 192.5t-177.5 65.5q-72 0 -137.5 -16.5
t-94.5 -32.5l-28 -17l-58 166q14 10 40 24.5t118 38t195 23.5q223 0 315 -168q100 168 313 168q184 0 297 -110.5t113 -301.5v-151h-623v-111q0 -109 57.5 -170t153.5 -61q55 0 97.5 21.5t74 72t35.5 92.5l2 21l199 -41q-19 -133 -79 -205t-142 -109.5t-191 -37.5zM911 674
v-27h420v27q0 106 -56.5 168.5t-152.5 62.5t-153.5 -62.5t-57.5 -168.5z" />
    <glyph glyph-name="ccedilla" unicode="&#xe7;" horiz-adv-x="1015" 
d="M711 381v22h202v-22q0 -160 -89 -266.5t-236 -128.5q43 -61 43 -138q0 -115 -81 -181t-183 -66t-170 34l24 132q39 -25 107 -25t105.5 34t37.5 98t-55 114q-143 25 -228.5 128t-85.5 265v283q0 186 115 296.5t295 110.5t290.5 -106.5t110.5 -290.5v-19h-202v13
q0 98 -54.5 157.5t-145.5 59.5t-145.5 -59.5t-54.5 -161.5v-277q0 -102 54.5 -161.5t145.5 -59.5t145.5 58.5t54.5 156.5z" />
    <glyph glyph-name="egrave" unicode="&#xe8;" horiz-adv-x="1036" 
d="M483 1516l127 -338h-159l-185 338h217zM518 -20q-188 0 -302 109.5t-114 301.5v262q0 190 118 304t303 114t298 -110.5t113 -301.5v-151h-623v-111q0 -109 57.5 -170t153.5 -61q55 0 97.5 21.5t74 72t35.5 92.5l2 21l199 -41q-19 -133 -79 -205t-142 -109.5t-191 -37.5z
M311 674v-27h420v27q0 106 -57.5 168.5t-152.5 62.5t-152.5 -62.5t-57.5 -168.5z" />
    <glyph glyph-name="eacute" unicode="&#xe9;" horiz-adv-x="1036" 
d="M455 1178l127 338h217l-185 -338h-159zM518 -20q-188 0 -302 109.5t-114 301.5v262q0 190 118 304t303 114t298 -110.5t113 -301.5v-151h-623v-111q0 -109 57.5 -170t153.5 -61q55 0 97.5 21.5t74 72t35.5 92.5l2 21l199 -41q-19 -133 -79 -205t-142 -109.5t-191 -37.5z
M311 674v-27h420v27q0 106 -57.5 168.5t-152.5 62.5t-152.5 -62.5t-57.5 -168.5z" />
    <glyph glyph-name="ecircumflex" unicode="&#xea;" horiz-adv-x="1036" 
d="M184 1178l246 338h174l246 -338h-174l-164 198l-162 -198h-166zM518 -20q-188 0 -302 109.5t-114 301.5v262q0 190 118 304t303 114t298 -110.5t113 -301.5v-151h-623v-111q0 -109 57.5 -170t153.5 -61q55 0 97.5 21.5t74 72t35.5 92.5l2 21l199 -41q-19 -133 -79 -205
t-142 -109.5t-191 -37.5zM311 674v-27h420v27q0 106 -57.5 168.5t-152.5 62.5t-152.5 -62.5t-57.5 -168.5z" />
    <glyph glyph-name="edieresis" unicode="&#xeb;" horiz-adv-x="1036" 
d="M327.5 1458q51.5 0 85 -33.5t33.5 -85t-33.5 -85t-85.5 -33.5t-85 32.5t-33 84.5t33.5 86t85 34zM704.5 1458q51.5 0 85 -33.5t33.5 -85t-33.5 -85t-85.5 -33.5t-85 32.5t-33 84.5t33.5 86t85 34zM518 -20q-188 0 -302 109.5t-114 301.5v262q0 190 118 304t303 114
t298 -110.5t113 -301.5v-151h-623v-111q0 -109 57.5 -170t153.5 -61q55 0 97.5 21.5t74 72t35.5 92.5l2 21l199 -41q-19 -133 -79 -205t-142 -109.5t-191 -37.5zM311 674v-27h420v27q0 106 -57.5 168.5t-152.5 62.5t-152.5 -62.5t-57.5 -168.5z" />
    <glyph glyph-name="igrave" unicode="&#xec;" horiz-adv-x="481" 
d="M133 0v1051h215v-1051h-215zM186 1516l127 -338h-159l-185 338h217z" />
    <glyph glyph-name="iacute" unicode="&#xed;" horiz-adv-x="481" 
d="M133 0v1051h215v-1051h-215zM168 1178l127 338h217l-184 -338h-160z" />
    <glyph glyph-name="icircumflex" unicode="&#xee;" horiz-adv-x="481" 
d="M133 0v1051h215v-1051h-215zM-92 1178l246 338h174l245 -338h-174l-163 198l-162 -198h-166z" />
    <glyph glyph-name="idieresis" unicode="&#xef;" horiz-adv-x="481" 
d="M133 0v1051h215v-1051h-215zM53 1458q51 0 85 -33.5t34 -85t-34 -85t-86 -33.5t-85 32.5t-33 84.5t34 86t85 34zM430 1458q51 0 85 -33.5t34 -85t-34 -85t-86 -33.5t-85 32.5t-33 84.5t34 86t85 34z" />
    <glyph glyph-name="eth" unicode="&#xf0;" 
d="M942 629v-232q0 -190 -117 -303.5t-305 -113.5t-303 110.5t-115 300.5v242q0 184 107.5 290.5t284.5 106.5q86 0 168 -49l-115 215l-281 -63v120l223 52l-67 129h213l41 -86l266 59v-121l-215 -49l141 -289q74 -152 74 -319zM311 633v-236q0 -106 57.5 -168.5
t152.5 -62.5t152.5 62.5t57.5 168.5v236q0 109 -57.5 170t-152.5 61t-152.5 -61t-57.5 -170z" />
    <glyph glyph-name="ntilde" unicode="&#xf1;" horiz-adv-x="1054" 
d="M404 1475q56 0 101.5 -35t81 -69t67.5 -34t49.5 29t21.5 57l2 29l123 -8q0 -84 -31 -137.5t-70 -80t-89 -26.5q-94 0 -150 69.5t-107 69.5q-31 0 -48 -28.5t-19 -57.5l-2 -28l-123 8q0 79 29.5 133.5t68.5 81.5t95 27zM123 0v1051h184l8 -136q94 156 293 156
q154 0 244 -101.5t90 -289.5v-680h-211v633q0 252 -192 252q-92 0 -148.5 -61.5t-58.5 -182.5v-641h-209z" />
    <glyph glyph-name="ograve" unicode="&#xf2;" 
d="M483 1516l127 -338h-159l-185 338h217zM102 391v262q0 190 118 304t305 114t302 -110.5t115 -301.5v-262q0 -193 -117.5 -305t-306 -112t-302.5 109t-114 302zM311 653v-256q0 -109 57.5 -170t152.5 -61t152.5 61.5t57.5 169.5v256q0 106 -57.5 169t-152.5 63t-152.5 -63
t-57.5 -169z" />
    <glyph glyph-name="oacute" unicode="&#xf3;" 
d="M444 1178l127 338h217l-184 -338h-160zM102 391v262q0 190 118 304t305 114t302 -110.5t115 -301.5v-262q0 -193 -117.5 -305t-306 -112t-302.5 109t-114 302zM311 653v-256q0 -109 57.5 -170t152.5 -61t152.5 61.5t57.5 169.5v256q0 106 -57.5 169t-152.5 63t-152.5 -63
t-57.5 -169z" />
    <glyph glyph-name="ocircumflex" unicode="&#xf4;" 
d="M188 1178l246 338h174l246 -338h-174l-164 198l-162 -198h-166zM102 391v262q0 190 118 304t305 114t302 -110.5t115 -301.5v-262q0 -193 -117.5 -305t-306 -112t-302.5 109t-114 302zM311 653v-256q0 -109 57.5 -170t152.5 -61t152.5 61.5t57.5 169.5v256
q0 106 -57.5 169t-152.5 63t-152.5 -63t-57.5 -169z" />
    <glyph glyph-name="otilde" unicode="&#xf5;" 
d="M394 1475q56 0 101.5 -35t80 -69t67.5 -34t50.5 29t19.5 57l4 29l123 -8q0 -84 -31 -137.5t-70 -80t-89 -26.5q-93 0 -149.5 69.5t-107.5 69.5q-31 0 -48 -28.5t-19 -57.5l-2 -28l-123 8q0 82 29.5 135t68.5 80t95 27zM102 391v262q0 190 118 304t305 114t302 -110.5
t115 -301.5v-262q0 -193 -117.5 -305t-306 -112t-302.5 109t-114 302zM311 653v-256q0 -109 57.5 -170t152.5 -61t152.5 61.5t57.5 169.5v256q0 106 -57.5 169t-152.5 63t-152.5 -63t-57.5 -169z" />
    <glyph glyph-name="odieresis" unicode="&#xf6;" 
d="M344 1458q51 0 85 -33.5t34 -85t-34 -85t-86 -33.5t-85 32.5t-33 84.5t34 86t85 34zM721 1458q51 0 85 -33.5t34 -85t-34 -85t-86 -33.5t-85 32.5t-33 84.5t34 86t85 34zM102 391v262q0 190 118 304t305 114t302 -110.5t115 -301.5v-262q0 -193 -117.5 -305t-306 -112
t-302.5 109t-114 302zM311 653v-256q0 -109 57.5 -170t152.5 -61t152.5 61.5t57.5 169.5v256q0 106 -57.5 169t-152.5 63t-152.5 -63t-57.5 -169z" />
    <glyph glyph-name="divide" unicode="&#xf7;" 
d="M522 446q51 0 89 -36.5t38 -90t-38 -90t-89 -36.5t-89 36.5t-38 90t38 90t89 36.5zM963 639h-881v178h881v-178zM522 1264q51 0 89 -38t38 -89.5t-38 -89t-89 -37.5t-89 37.5t-38 89t38 89.5t89 38z" />
    <glyph glyph-name="oslash" unicode="&#xf8;" 
d="M303 653v-256q0 -55 10 -86l355 537q-56 47 -152 47t-154.5 -63.5t-58.5 -178.5zM743 397v256q0 47 -12 88l-354 -538q57 -47 152 -47t154.5 63t59.5 178zM942 659v-262q0 -190 -117.5 -303.5t-304.5 -113.5q-145 0 -248 65l-69 -106h-135l120 182q-86 109 -86 270v262
q0 193 118 305.5t306 112.5q143 0 246 -65l70 106h135l-121 -182q86 -113 86 -271z" />
    <glyph glyph-name="ugrave" unicode="&#xf9;" horiz-adv-x="1054" 
d="M498 1516l127 -338h-160l-184 338h217zM932 1051v-1051h-184l-9 135q-94 -156 -293 -155q-154 0 -243.5 101t-89.5 290v680h211v-633q0 -252 192 -252q92 0 148.5 61.5t58.5 182.5v641h209z" />
    <glyph glyph-name="uacute" unicode="&#xfa;" horiz-adv-x="1054" 
d="M459 1178l127 338h217l-185 -338h-159zM932 1051v-1051h-184l-9 135q-94 -156 -293 -155q-154 0 -243.5 101t-89.5 290v680h211v-633q0 -252 192 -252q92 0 148.5 61.5t58.5 182.5v641h209z" />
    <glyph glyph-name="ucircumflex" unicode="&#xfb;" horiz-adv-x="1054" 
d="M199 1178l245 338h174l246 -338h-174l-164 198l-161 -198h-166zM932 1051v-1051h-184l-9 135q-94 -156 -293 -155q-154 0 -243.5 101t-89.5 290v680h211v-633q0 -252 192 -252q92 0 148.5 61.5t58.5 182.5v641h209z" />
    <glyph glyph-name="udieresis" unicode="&#xfc;" horiz-adv-x="1054" 
d="M344 1458q51 0 85 -33.5t34 -85t-34 -85t-86 -33.5t-85 32.5t-33 84.5t34 86t85 34zM721 1458q51 0 85 -33.5t34 -85t-34 -85t-86 -33.5t-85 32.5t-33 84.5t34 86t85 34zM932 1051v-1051h-184l-9 135q-94 -156 -293 -155q-154 0 -243.5 101t-89.5 290v680h211v-633
q0 -252 192 -252q92 0 148.5 61.5t58.5 182.5v641h209z" />
    <glyph glyph-name="yacute" unicode="&#xfd;" horiz-adv-x="921" 
d="M387 1178l127 338h217l-184 -338h-160zM214 -348q-108 0 -165 24l-18 11l41 166q41 -20 104 -21q133 0 186 168l-352 1051h226l231 -781l231 781h213l-366 -1088q-55 -168 -139 -239.5t-192 -71.5z" />
    <glyph glyph-name="thorn" unicode="&#xfe;" horiz-adv-x="1064" 
d="M123 -328v1762h211v-488q90 125 263 125t269.5 -101.5t96.5 -283.5v-313q0 -184 -99.5 -288.5t-270.5 -104.5t-259 118v-426h-211zM334 653v-256q0 -106 57.5 -168.5t152.5 -62.5t152.5 62.5t57.5 168.5v256q0 109 -57.5 170.5t-152.5 61.5t-152.5 -61.5t-57.5 -170.5z
" />
    <glyph glyph-name="ydieresis" unicode="&#xff;" horiz-adv-x="921" 
d="M278.5 1458q51.5 0 85 -33.5t33.5 -85t-33.5 -85t-85.5 -33.5t-85 32.5t-33 84.5t33.5 86t85 34zM655.5 1458q51.5 0 85 -33.5t33.5 -85t-34 -85t-86 -33.5t-84.5 32.5t-32.5 84.5t33.5 86t85 34zM214 -348q-108 0 -165 24l-18 11l41 166q41 -20 104 -21q133 0 186 168
l-352 1051h226l231 -781l231 781h213l-366 -1088q-55 -168 -139 -239.5t-192 -71.5z" />
    <glyph glyph-name="Amacron" unicode="&#x100;" horiz-adv-x="1105" 
d="M236 1608v133h634v-133h-634zM657 1434l449 -1434h-232l-104 352h-448l-103 -352h-219l446 1434h211zM545 1130l-180 -610h360z" />
    <glyph glyph-name="amacron" unicode="&#x101;" horiz-adv-x="1024" 
d="M205 1239v133h635v-133h-635zM911 641v-641h-170l-14 98q-99 -118 -275 -118t-273 89t-97 232t100.5 235.5t264.5 92.5t253 -90v88q0 127 -63.5 192.5t-177.5 65.5q-72 0 -136.5 -16.5t-93.5 -32.5l-30 -17l-56 166q14 10 40 24.5t117 38t194 23.5q197 0 307 -111.5
t110 -318.5zM500 135q94 0 152.5 49t58.5 125t-58.5 125t-152.5 49t-151.5 -49t-57.5 -125t57.5 -125t151.5 -49z" />
    <glyph glyph-name="Abreve" unicode="&#x102;" horiz-adv-x="1105" 
d="M264 1884h146v-63q0 -66 38.5 -107t104 -41t103.5 41t38 107v63h148v-53q0 -127 -81 -206t-209 -79t-208 78t-80 205v55zM657 1434l449 -1434h-232l-104 352h-448l-103 -352h-219l446 1434h211zM545 1130l-180 -610h360z" />
    <glyph glyph-name="abreve" unicode="&#x103;" horiz-adv-x="1024" 
d="M233 1516h146v-64q0 -66 39 -106.5t104.5 -40.5t103.5 40.5t38 106.5v64h147v-54q0 -127 -81 -205.5t-209 -78.5t-208 77.5t-80 204.5v56zM911 641v-641h-170l-14 98q-99 -118 -275 -118t-273 89t-97 232t100.5 235.5t264.5 92.5t253 -90v88q0 127 -63.5 192.5
t-177.5 65.5q-72 0 -136.5 -16.5t-93.5 -32.5l-30 -17l-56 166q14 10 40 24.5t117 38t194 23.5q197 0 307 -111.5t110 -318.5zM500 135q94 0 152.5 49t58.5 125t-58.5 125t-152.5 49t-151.5 -49t-57.5 -125t57.5 -125t151.5 -49z" />
    <glyph glyph-name="Aogonek" unicode="&#x104;" horiz-adv-x="1105" 
d="M545 1130l-180 -610h360zM1099 -238q57 0 99 17l21 -127q-43 -31 -145 -31t-180.5 68.5t-78.5 166.5t55 158l-100 338h-448l-103 -352h-219l446 1434h211l449 -1434h-96q-49 -32 -49 -100t40.5 -103t97.5 -35z" />
    <glyph glyph-name="aogonek" unicode="&#x105;" horiz-adv-x="1024" 
d="M500 135q94 0 152.5 49t58.5 125t-58.5 125t-152.5 49t-151.5 -49t-57.5 -125t57.5 -125t151.5 -49zM935 -238q56 0 99 17l21 -127q-43 -31 -145 -31t-180.5 68.5t-78.5 174.5t84 181l-8 53q-99 -118 -275 -118t-273 89t-97 232t100.5 235.5t264.5 92.5t253 -90v88
q0 127 -63.5 192.5t-177.5 65.5q-72 0 -136.5 -16.5t-93.5 -32.5l-30 -17l-56 166q14 10 40 24.5t117 38t194 23.5q197 0 307 -111.5t110 -318.5v-641h-65q-49 -32 -49 -100t41 -103t97 -35z" />
    <glyph glyph-name="Cacute" unicode="&#x106;" horiz-adv-x="1138" 
d="M489 1546l127 338h218l-185 -338h-160zM803 440v72h213v-70q0 -213 -123 -337.5t-325 -124.5t-323.5 121.5t-121.5 334.5v553q0 213 124.5 339t326.5 126t322 -123t120 -336v-53h-213v51q0 125 -60.5 194.5t-169 69.5t-170 -69.5t-61.5 -194.5v-553q0 -125 61.5 -194.5
t170 -69.5t169 69.5t60.5 194.5z" />
    <glyph glyph-name="cacute" unicode="&#x107;" horiz-adv-x="1015" 
d="M428 1178l127 338h217l-184 -338h-160zM711 381v22h202v-22q0 -182 -113.5 -291.5t-294.5 -109.5t-292 107.5t-111 293.5v283q0 186 115 296.5t295 110.5t290.5 -106.5t110.5 -290.5v-19h-202v13q0 98 -54.5 157.5t-145.5 59.5t-145.5 -59.5t-54.5 -161.5v-277
q0 -102 54.5 -161.5t145.5 -59.5t145.5 58.5t54.5 156.5z" />
    <glyph glyph-name="Ccircumflex" unicode="&#x108;" horiz-adv-x="1138" 
d="M244 1546l245 338h175l245 -338h-174l-164 199l-161 -199h-166zM803 440v72h213v-70q0 -213 -123 -337.5t-325 -124.5t-323.5 121.5t-121.5 334.5v553q0 213 124.5 339t326.5 126t322 -123t120 -336v-53h-213v51q0 125 -60.5 194.5t-169 69.5t-170 -69.5t-61.5 -194.5
v-553q0 -125 61.5 -194.5t170 -69.5t169 69.5t60.5 194.5z" />
    <glyph glyph-name="ccircumflex" unicode="&#x109;" horiz-adv-x="1015" 
d="M174 1178l246 338h174l246 -338h-174l-164 198l-162 -198h-166zM711 381v22h202v-22q0 -182 -113.5 -291.5t-294.5 -109.5t-292 107.5t-111 293.5v283q0 186 115 296.5t295 110.5t290.5 -106.5t110.5 -290.5v-19h-202v13q0 98 -54.5 157.5t-145.5 59.5t-145.5 -59.5
t-54.5 -161.5v-277q0 -102 54.5 -161.5t145.5 -59.5t145.5 58.5t54.5 156.5z" />
    <glyph glyph-name="Cdotaccent" unicode="&#x10a;" horiz-adv-x="1138" 
d="M577.5 1825q51.5 0 85 -34t33.5 -85t-34.5 -85t-86 -34t-85 34t-33.5 85t34.5 85t86 34zM803 440v72h213v-70q0 -213 -123 -337.5t-325 -124.5t-323.5 121.5t-121.5 334.5v553q0 213 124.5 339t326.5 126t322 -123t120 -336v-53h-213v51q0 125 -60.5 194.5t-169 69.5
t-170 -69.5t-61.5 -194.5v-553q0 -125 61.5 -194.5t170 -69.5t169 69.5t60.5 194.5z" />
    <glyph glyph-name="cdotaccent" unicode="&#x10b;" horiz-adv-x="1015" 
d="M506 1456q51 0 85 -33.5t34 -85t-35 -85t-86 -33.5t-85 33.5t-34 85t35 85t86 33.5zM711 381v22h202v-22q0 -182 -113.5 -291.5t-294.5 -109.5t-292 107.5t-111 293.5v283q0 186 115 296.5t295 110.5t290.5 -106.5t110.5 -290.5v-19h-202v13q0 98 -54.5 157.5
t-145.5 59.5t-145.5 -59.5t-54.5 -161.5v-277q0 -102 54.5 -161.5t145.5 -59.5t145.5 58.5t54.5 156.5z" />
    <glyph glyph-name="Ccaron" unicode="&#x10c;" horiz-adv-x="1138" 
d="M909 1884l-245 -338h-175l-245 338h174l164 -198l161 198h166zM803 440v72h213v-70q0 -213 -123 -337.5t-325 -124.5t-323.5 121.5t-121.5 334.5v553q0 213 124.5 339t326.5 126t322 -123t120 -336v-53h-213v51q0 125 -60.5 194.5t-169 69.5t-170 -69.5t-61.5 -194.5
v-553q0 -125 61.5 -194.5t170 -69.5t169 69.5t60.5 194.5z" />
    <glyph glyph-name="ccaron" unicode="&#x10d;" horiz-adv-x="1015" 
d="M840 1516l-246 -338h-174l-246 338h174l164 -199l162 199h166zM711 381v22h202v-22q0 -182 -113.5 -291.5t-294.5 -109.5t-292 107.5t-111 293.5v283q0 186 115 296.5t295 110.5t290.5 -106.5t110.5 -290.5v-19h-202v13q0 98 -54.5 157.5t-145.5 59.5t-145.5 -59.5
t-54.5 -161.5v-277q0 -102 54.5 -161.5t145.5 -59.5t145.5 58.5t54.5 156.5z" />
    <glyph glyph-name="Dcaron" unicode="&#x10e;" horiz-adv-x="1167" 
d="M907 1884l-245 -338h-175l-245 338h174l164 -198l161 198h166zM143 1434h428q223 0 348 -127t125 -363v-450q0 -233 -128 -363.5t-351 -130.5h-422v1434zM362 1239v-1044h201q125 0 192.5 76.5t67.5 220.5v450q0 143 -67.5 220t-192.5 77h-201z" />
    <glyph glyph-name="dcaron" unicode="&#x10f;" horiz-adv-x="1335" 
d="M942 1434v-1434h-184l-10 123q-92 -143 -272 -143t-277 101t-97 284v313q0 184 99.5 288.5t269.5 104.5t260 -119v482h211zM731 397v256q0 106 -57.5 169t-152.5 63t-152.5 -62.5t-57.5 -169.5v-256q0 -109 57.5 -170t152.5 -61t152.5 61t57.5 170zM1219 942h-154l51 492
h219z" />
    <glyph glyph-name="Dcroat" unicode="&#x110;" horiz-adv-x="1239" 
d="M215 0v662h-174v131h174v641h428q223 0 348 -127t125 -363v-450q0 -233 -128 -363.5t-351 -130.5h-422zM436 1239v-446h260v-131h-260v-467h199q127 0 194.5 76.5t67.5 220.5v450q0 143 -67.5 220t-194.5 77h-199z" />
    <glyph glyph-name="dcroat" unicode="&#x111;" horiz-adv-x="1105" 
d="M942 1434v-119h133v-131h-133v-1184h-184l-10 123q-92 -143 -272 -143t-277 101t-97 284v313q0 184 99.5 288.5t269.5 104.5t260 -119v232h-276v131h276v119h211zM731 397v256q0 106 -57.5 169t-152.5 63t-152.5 -62.5t-57.5 -169.5v-256q0 -109 57.5 -170t152.5 -61
t152.5 61t57.5 170z" />
    <glyph glyph-name="Emacron" unicode="&#x112;" horiz-adv-x="962" 
d="M205 1608v133h635v-133h-635zM901 0h-758v1434h748v-195h-529v-405h447v-183h-447v-456h539v-195z" />
    <glyph glyph-name="emacron" unicode="&#x113;" horiz-adv-x="1036" 
d="M209 1239v133h635v-133h-635zM518 -20q-188 0 -302 109.5t-114 301.5v262q0 190 118 304t303 114t298 -110.5t113 -301.5v-151h-623v-111q0 -109 57.5 -170t153.5 -61q55 0 97.5 21.5t74 72t35.5 92.5l2 21l199 -41q-19 -133 -79 -205t-142 -109.5t-191 -37.5zM311 674
v-27h420v27q0 106 -57.5 168.5t-152.5 62.5t-152.5 -62.5t-57.5 -168.5z" />
    <glyph glyph-name="Ebreve" unicode="&#x114;" horiz-adv-x="962" 
d="M233 1884h146v-63q0 -66 39 -107t104.5 -41t103.5 41t38 107v63h147v-53q0 -127 -81 -206t-209 -79t-208 78t-80 205v55zM901 0h-758v1434h748v-195h-529v-405h447v-183h-447v-456h539v-195z" />
    <glyph glyph-name="ebreve" unicode="&#x115;" horiz-adv-x="1036" 
d="M238 1516h145v-64q0 -66 39 -106.5t104.5 -40.5t103.5 40.5t38 106.5v64h147v-54q0 -127 -81 -205.5t-209 -78.5t-207.5 77.5t-79.5 204.5v56zM518 -20q-188 0 -302 109.5t-114 301.5v262q0 190 118 304t303 114t298 -110.5t113 -301.5v-151h-623v-111q0 -109 57.5 -170
t153.5 -61q55 0 97.5 21.5t74 72t35.5 92.5l2 21l199 -41q-19 -133 -79 -205t-142 -109.5t-191 -37.5zM311 674v-27h420v27q0 106 -57.5 168.5t-152.5 62.5t-152.5 -62.5t-57.5 -168.5z" />
    <glyph glyph-name="Edotaccent" unicode="&#x116;" horiz-adv-x="962" 
d="M522 1825q51 0 85 -34t34 -85t-35 -85t-86 -34t-85 34t-34 85t35 85t86 34zM901 0h-758v1434h748v-195h-529v-405h447v-183h-447v-456h539v-195z" />
    <glyph glyph-name="edotaccent" unicode="&#x117;" horiz-adv-x="1036" 
d="M526.5 1456q51.5 0 85 -33.5t33.5 -85t-35 -85t-86 -33.5t-84.5 33.5t-33.5 85t34.5 85t86 33.5zM518 -20q-188 0 -302 109.5t-114 301.5v262q0 190 118 304t303 114t298 -110.5t113 -301.5v-151h-623v-111q0 -109 57.5 -170t153.5 -61q55 0 97.5 21.5t74 72t35.5 92.5
l2 21l199 -41q-19 -133 -79 -205t-142 -109.5t-191 -37.5zM311 674v-27h420v27q0 106 -57.5 168.5t-152.5 62.5t-152.5 -62.5t-57.5 -168.5z" />
    <glyph glyph-name="Eogonek" unicode="&#x118;" horiz-adv-x="962" 
d="M812 -238q56 0 99 17l21 -127q-42 -31 -144 -31t-181 68.5t-79 160.5t43 150h-428v1434h748v-195h-529v-405h447v-183h-447v-456h539v-195h-178q-49 -32 -49 -100t41 -103t97 -35z" />
    <glyph glyph-name="eogonek" unicode="&#x119;" horiz-adv-x="1036" 
d="M311 674v-27h420v27q0 106 -57.5 168.5t-152.5 62.5t-152.5 -62.5t-57.5 -168.5zM745 -238q57 0 99 17l20 -127q-42 -31 -144 -31t-180.5 68.5t-78.5 175.5q0 63 28 117q-176 8 -281.5 116.5t-105.5 292.5v262q0 190 118 304t303 114t298 -110.5t113 -301.5v-151h-623
v-111q0 -109 57.5 -170t153.5 -61q55 0 97.5 21.5t74 72t35.5 92.5l2 21l199 -41q0 -30 -20.5 -89t-48 -101t-83 -85t-129.5 -61q-43 -28 -43 -96t41 -103t98 -35z" />
    <glyph glyph-name="Ecaron" unicode="&#x11a;" horiz-adv-x="962" 
d="M854 1884l-246 -338h-174l-246 338h174l164 -198l162 198h166zM901 0h-758v1434h748v-195h-529v-405h447v-183h-447v-456h539v-195z" />
    <glyph glyph-name="ecaron" unicode="&#x11b;" horiz-adv-x="1036" 
d="M860 1516l-246 -338h-174l-245 338h174l163 -199l162 199h166zM518 -20q-188 0 -302 109.5t-114 301.5v262q0 190 118 304t303 114t298 -110.5t113 -301.5v-151h-623v-111q0 -109 57.5 -170t153.5 -61q55 0 97.5 21.5t74 72t35.5 92.5l2 21l199 -41q-19 -133 -79 -205
t-142 -109.5t-191 -37.5zM311 674v-27h420v27q0 106 -57.5 168.5t-152.5 62.5t-152.5 -62.5t-57.5 -168.5z" />
    <glyph glyph-name="Gcircumflex" unicode="&#x11c;" horiz-adv-x="1167" 
d="M250 1546l246 338h174l245 -338h-174l-163 199l-162 -199h-166zM579.5 -20q-208.5 0 -332.5 124.5t-124 341.5v533q0 217 128 346t336 129t332.5 -126t124.5 -343v-29h-221v27q0 129 -63.5 201.5t-176 72.5t-177 -72.5t-64.5 -201.5v-528q0 -135 65.5 -210t180 -75
t180.5 74.5t66 210.5v133h-240v164h450v-299q0 -217 -128 -345t-336.5 -128z" />
    <glyph glyph-name="gcircumflex" unicode="&#x11d;" horiz-adv-x="1064" 
d="M215 1178l246 338h174l246 -338h-174l-164 198l-162 -198h-166zM731 102v93q-92 -123 -264 -123t-268.5 101t-96.5 284v221q0 184 99.5 288.5t278.5 104.5t268 -139l10 119h184v-932q0 -223 -123 -345t-338 -122q-102 0 -191 20.5t-128 40.5l-39 21l65 168
q121 -63 279 -64q264 0 264 264zM731 479v174q0 106 -57.5 169t-152.5 63t-152.5 -62.5t-57.5 -169.5v-174q0 -109 57.5 -170t152.5 -61t152.5 61t57.5 170z" />
    <glyph glyph-name="Gbreve" unicode="&#x11e;" horiz-adv-x="1167" 
d="M295 1884h145v-63q0 -66 39 -107t104.5 -41t103.5 41t38 107v63h147v-53q0 -127 -80.5 -206t-208.5 -79t-208 78t-80 205v55zM579.5 -20q-208.5 0 -332.5 124.5t-124 341.5v533q0 217 128 346t336 129t332.5 -126t124.5 -343v-29h-221v27q0 129 -63.5 201.5t-176 72.5
t-177 -72.5t-64.5 -201.5v-528q0 -135 65.5 -210t180 -75t180.5 74.5t66 210.5v133h-240v164h450v-299q0 -217 -128 -345t-336.5 -128z" />
    <glyph glyph-name="gbreve" unicode="&#x11f;" horiz-adv-x="1064" 
d="M258 1516h145v-64q0 -66 39 -106.5t104.5 -40.5t103.5 40.5t38 106.5v64h148v-54q0 -127 -81 -205.5t-209 -78.5t-208 77.5t-80 204.5v56zM731 102v93q-92 -123 -264 -123t-268.5 101t-96.5 284v221q0 184 99.5 288.5t278.5 104.5t268 -139l10 119h184v-932
q0 -223 -123 -345t-338 -122q-102 0 -191 20.5t-128 40.5l-39 21l65 168q121 -63 279 -64q264 0 264 264zM731 479v174q0 106 -57.5 169t-152.5 63t-152.5 -62.5t-57.5 -169.5v-174q0 -109 57.5 -170t152.5 -61t152.5 61t57.5 170z" />
    <glyph glyph-name="Gdotaccent" unicode="&#x120;" horiz-adv-x="1167" 
d="M583.5 1825q51.5 0 85 -34t33.5 -85t-34.5 -85t-86 -34t-85 34t-33.5 85t34.5 85t86 34zM579.5 -20q-208.5 0 -332.5 124.5t-124 341.5v533q0 217 128 346t336 129t332.5 -126t124.5 -343v-29h-221v27q0 129 -63.5 201.5t-176 72.5t-177 -72.5t-64.5 -201.5v-528
q0 -135 65.5 -210t180 -75t180.5 74.5t66 210.5v133h-240v164h450v-299q0 -217 -128 -345t-336.5 -128z" />
    <glyph glyph-name="gdotaccent" unicode="&#x121;" horiz-adv-x="1064" 
d="M547 1456q51 0 85 -33.5t34 -85t-35 -85t-86 -33.5t-85 33.5t-34 85t35 85t86 33.5zM731 102v93q-92 -123 -264 -123t-268.5 101t-96.5 284v221q0 184 99.5 288.5t278.5 104.5t268 -139l10 119h184v-932q0 -223 -123 -345t-338 -122q-102 0 -191 20.5t-128 40.5l-39 21
l65 168q121 -63 279 -64q264 0 264 264zM731 479v174q0 106 -57.5 169t-152.5 63t-152.5 -62.5t-57.5 -169.5v-174q0 -109 57.5 -170t152.5 -61t152.5 61t57.5 170z" />
    <glyph glyph-name="Gcommaaccent" unicode="&#x122;" horiz-adv-x="1167" 
d="M342 -440l127 338h217l-184 -338h-160zM579.5 -20q-208.5 0 -332.5 124.5t-124 341.5v533q0 217 128 346t336 129t332.5 -126t124.5 -343v-29h-221v27q0 129 -63.5 201.5t-176 72.5t-177 -72.5t-64.5 -201.5v-528q0 -135 65.5 -210t180 -75t180.5 74.5t66 210.5v133h-240
v164h450v-299q0 -217 -128 -345t-336.5 -128z" />
    <glyph glyph-name="gcommaaccent" unicode="&#x123;" horiz-adv-x="1064" 
d="M780 1516l-127 -338h-217l185 338h159zM731 102v93q-92 -123 -264 -123t-268.5 101t-96.5 284v221q0 184 99.5 288.5t278.5 104.5t268 -139l10 119h184v-932q0 -223 -123 -345t-338 -122q-102 0 -191 20.5t-128 40.5l-39 21l65 168q121 -63 279 -64q264 0 264 264z
M731 479v174q0 106 -57.5 169t-152.5 63t-152.5 -62.5t-57.5 -169.5v-174q0 -109 57.5 -170t152.5 -61t152.5 61t57.5 170z" />
    <glyph glyph-name="Hcircumflex" unicode="&#x124;" horiz-adv-x="1187" 
d="M260 1546l246 338h174l246 -338h-174l-164 199l-162 -199h-166zM823 0v649h-461v-649h-219v1434h219v-584h461v584h221v-1434h-221z" />
    <glyph glyph-name="hcircumflex" unicode="&#x125;" horiz-adv-x="1054" 
d="M195 1546l245 338h174l246 -338h-174l-164 199l-162 -199h-165zM123 0v1434h209v-508q92 145 276 145q154 0 244 -101.5t90 -289.5v-680h-211v633q0 252 -192 252q-94 0 -150.5 -61.5t-56.5 -184.5v-639h-209z" />
    <glyph glyph-name="Hbar" unicode="&#x126;" horiz-adv-x="1310" 
d="M205 0v1071h-164v131h164v232h219v-232h461v232h221v-232h164v-131h-164v-1071h-221v649h-461v-649h-219zM424 1071v-221h461v221h-461z" />
    <glyph glyph-name="hbar" unicode="&#x127;" horiz-adv-x="1095" 
d="M164 0v1184h-133v131h133v119h209v-119h276v-131h-276v-258q92 145 276 145q154 0 244 -101.5t90 -289.5v-680h-211v633q0 252 -192 252q-94 0 -150.5 -59.5t-56.5 -176.5v-649h-209z" />
    <glyph glyph-name="Itilde" unicode="&#x128;" horiz-adv-x="534" 
d="M142 1843q56 0 101.5 -34.5t80 -68.5t67.5 -34t50.5 28.5t21.5 57.5l2 29l123 -9q0 -83 -31 -136.5t-70 -80t-89 -26.5q-94 0 -150 69.5t-107 69.5q-31 0 -48 -28.5t-19 -57.5l-2 -29l-123 9q0 80 29.5 134t68.5 80.5t95 26.5zM154 0v1434h227v-1434h-227z" />
    <glyph glyph-name="itilde" unicode="&#x129;" horiz-adv-x="481" 
d="M116 1475q56 0 101 -35t80 -69t68 -34t50 29t19 57l4 29l123 -8q0 -85 -30.5 -138t-69.5 -79.5t-89 -26.5q-93 0 -149.5 69.5t-107.5 69.5q-31 0 -48.5 -28.5t-19.5 -57.5l-2 -28l-123 8q0 80 30 134t69 81t95 27zM133 0v1051h215v-1051h-215z" />
    <glyph glyph-name="Imacron" unicode="&#x12a;" horiz-adv-x="534" 
d="M-51 1608v133h635v-133h-635zM154 0v1434h227v-1434h-227z" />
    <glyph glyph-name="imacron" unicode="&#x12b;" horiz-adv-x="481" 
d="M-76 1239v133h635v-133h-635zM133 0v1051h215v-1051h-215z" />
    <glyph glyph-name="Ibreve" unicode="&#x12c;" horiz-adv-x="534" 
d="M-23 1884h146v-63q0 -66 39 -107t104.5 -41t103.5 41t38 107v63h147v-53q0 -127 -81 -206t-209 -79t-208 78t-80 205v55zM154 0v1434h227v-1434h-227z" />
    <glyph glyph-name="ibreve" unicode="&#x12d;" horiz-adv-x="481" 
d="M-47 1516h145v-64q0 -66 39 -106.5t104.5 -40.5t103.5 40.5t38 106.5v64h147v-54q0 -127 -80.5 -205.5t-208.5 -78.5t-208 77.5t-80 204.5v56zM133 0v1051h215v-1051h-215z" />
    <glyph glyph-name="Iogonek" unicode="&#x12e;" horiz-adv-x="534" 
d="M384 -238q56 0 99 17l21 -127q-42 -31 -144 -31t-181 68.5t-79 164.5t54 158v1422h227v-1434h-86q-49 -32 -49 -100t41 -103t97 -35z" />
    <glyph glyph-name="iogonek" unicode="&#x12f;" horiz-adv-x="481" 
d="M239.5 1481q59.5 0 99.5 -39t40 -98.5t-40 -98.5t-99.5 -39t-98.5 40t-39 97.5t39 97.5t98.5 40zM362 -238q57 0 99 17l20 -127q-43 -31 -145 -31t-180 68.5t-78 166.5t55 158v1037h215v-1051h-76q-49 -32 -49 -100t41 -103t98 -35z" />
    <glyph glyph-name="Idotaccent" unicode="&#x130;" horiz-adv-x="534" 
d="M268 1825q51 0 85 -34t34 -85t-35 -85t-86 -34t-85 34t-34 85t35 85t86 34zM154 0v1434h227v-1434h-227z" />
    <glyph glyph-name="dotlessi" unicode="&#x131;" horiz-adv-x="481" 
d="M133 0v1051h215v-1051h-215z" />
    <glyph glyph-name="IJ" unicode="&#x132;" horiz-adv-x="1271" 
d="M911 1434h228v-1022q0 -203 -115 -317.5t-309 -114.5q-105 0 -137 16l-13 4l37 195q41 -15 122 -15t134 62.5t53 177.5v1014zM154 0v1434h227v-1434h-227z" />
    <glyph glyph-name="ij" unicode="&#x133;" horiz-adv-x="962" 
d="M722 1481q58 0 98 -39t40 -98.5t-40 -98.5t-98 -39t-98 40t-40 97.5t40 97.5t98 40zM614 1051h215v-1057q0 -168 -83.5 -255t-231.5 -87q-64 0 -100 12l-15 2l23 176q41 -10 76 -10q117 0 116 135v1084zM239.5 1481q59.5 0 99.5 -39t40 -98.5t-40 -98.5t-99.5 -39
t-98.5 40t-39 97.5t39 97.5t98.5 40zM133 0v1051h215v-1051h-215z" />
    <glyph glyph-name="Jcircumflex" unicode="&#x134;" horiz-adv-x="737" 
d="M162 1546l246 338h174l245 -338h-174l-164 199l-161 -199h-166zM377 1434h227v-1022q0 -203 -114.5 -317.5t-309.5 -114.5q-105 0 -137 16l-12 4l37 195q42 -15 122 -15t133.5 62.5t53.5 177.5v1014z" />
    <glyph glyph-name="jcircumflex" unicode="&#x135;" horiz-adv-x="481" 
d="M-92 1178l246 338h174l245 -338h-174l-163 198l-162 -198h-166zM133 1051h215v-1057q0 -168 -84 -255t-231 -87q-31 0 -115 14l23 176q41 -10 75 -10q117 0 117 135v1084z" />
    <glyph glyph-name="Kcommaaccent" unicode="&#x136;" horiz-adv-x="1146" 
d="M352 -440l127 338h217l-184 -338h-160zM143 0v1434h219v-666l422 666h254l-467 -684l488 -750h-254l-443 707v-707h-219z" />
    <glyph glyph-name="kcommaaccent" unicode="&#x137;" horiz-adv-x="962" 
d="M291 -440l127 338h217l-184 -338h-160zM123 0v1434h209v-848l366 465h254l-409 -476l430 -575h-258l-383 535v-535h-209z" />
    <glyph glyph-name="Lacute" unicode="&#x139;" horiz-adv-x="901" 
d="M178 1546l127 338h217l-184 -338h-160zM143 0v1434h219v-1235h498v-199h-717z" />
    <glyph glyph-name="lacute" unicode="&#x13a;" horiz-adv-x="481" 
d="M168 1546l127 338h217l-184 -338h-160zM133 0v1434h215v-1434h-215z" />
    <glyph glyph-name="Lcommaaccent" unicode="&#x13b;" horiz-adv-x="901" 
d="M281 -440l127 338h217l-185 -338h-159zM143 0v1434h219v-1235h498v-199h-717z" />
    <glyph glyph-name="lcommaaccent" unicode="&#x13c;" horiz-adv-x="481" 
d="M0 -440l127 338h217l-184 -338h-160zM133 0v1434h215v-1434h-215z" />
    <glyph glyph-name="Lcaron" unicode="&#x13d;" horiz-adv-x="901" 
d="M143 0v1434h219v-1235h498v-199h-717zM727 942h-154l52 492h219z" />
    <glyph glyph-name="lcaron" unicode="&#x13e;" horiz-adv-x="741" 
d="M133 0v1434h215v-1434h-215zM625 942h-154l51 492h219z" />
    <glyph glyph-name="Ldot" unicode="&#x13f;" horiz-adv-x="901" 
d="M663.5 901q59.5 0 99.5 -40t40 -99.5t-40 -98t-98 -38.5t-98.5 40t-40.5 98t39 98t98.5 40zM143 0v1434h219v-1235h498v-199h-717z" />
    <glyph glyph-name="ldot" unicode="&#x140;" horiz-adv-x="808" 
d="M628.5 854q59.5 0 99.5 -40t40 -99.5t-40 -98t-99.5 -38.5t-98 38.5t-38.5 98t38.5 99.5t98 40zM133 0v1434h215v-1434h-215z" />
    <glyph glyph-name="Lslash" unicode="&#x141;" horiz-adv-x="962" 
d="M922 0h-717v655l-164 -30v133l164 30v646h221v-609l352 70v-133l-352 -70v-493h496v-199z" />
    <glyph glyph-name="lslash" unicode="&#x142;" horiz-adv-x="604" 
d="M184 0v662l-143 -27v133l143 27v639h215v-596l164 32v-133l-164 -32v-705h-215z" />
    <glyph glyph-name="Nacute" unicode="&#x143;" horiz-adv-x="1208" 
d="M547 1546l127 338h217l-184 -338h-160zM346 0h-203v1434h215l504 -1010v1010h203v-1434h-203l-516 1034v-1034z" />
    <glyph glyph-name="nacute" unicode="&#x144;" horiz-adv-x="1054" 
d="M428 1178l127 338h217l-184 -338h-160zM123 0v1051h184l8 -136q94 156 293 156q154 0 244 -101.5t90 -289.5v-680h-211v633q0 252 -192 252q-92 0 -148.5 -61.5t-58.5 -182.5v-641h-209z" />
    <glyph glyph-name="Ncommaaccent" unicode="&#x145;" horiz-adv-x="1208" 
d="M373 -440l127 338h217l-185 -338h-159zM346 0h-203v1434h215l504 -1010v1010h203v-1434h-203l-516 1034v-1034z" />
    <glyph glyph-name="ncommaaccent" unicode="&#x146;" horiz-adv-x="1054" 
d="M301 -440l127 338h217l-184 -338h-160zM123 0v1051h184l8 -136q94 156 293 156q154 0 244 -101.5t90 -289.5v-680h-211v633q0 252 -192 252q-92 0 -148.5 -61.5t-58.5 -182.5v-641h-209z" />
    <glyph glyph-name="Ncaron" unicode="&#x147;" horiz-adv-x="1208" 
d="M946 1884l-246 -338h-174l-245 338h174l163 -198l162 198h166zM346 0h-203v1434h215l504 -1010v1010h203v-1434h-203l-516 1034v-1034z" />
    <glyph glyph-name="ncaron" unicode="&#x148;" horiz-adv-x="1054" 
d="M860 1516l-246 -338h-174l-245 338h174l163 -199l162 199h166zM123 0v1051h184l8 -136q94 156 293 156q154 0 244 -101.5t90 -289.5v-680h-211v633q0 252 -192 252q-92 0 -148.5 -61.5t-58.5 -182.5v-641h-209z" />
    <glyph glyph-name="Eng" unicode="&#x14a;" horiz-adv-x="1208" 
d="M711 -176q145 0 151 176l-516 1036v-1036h-203v1434h215l504 -1010v1010h203v-1379q0 -203 -85 -303t-243 -100q-87 0 -135 18l33 164q39 -10 76 -10z" />
    <glyph glyph-name="eng" unicode="&#x14b;" horiz-adv-x="1054" 
d="M332 633v-633h-209v1051h184l8 -136q94 156 293 156q154 0 244 -100.5t90 -288.5v-688q0 -168 -81 -255t-224 -87q-62 0 -92 12l-13 2l19 176q33 -8 75 -8t73.5 33t31.5 96v670q0 252 -192 252q-94 0 -150.5 -63.5t-56.5 -188.5z" />
    <glyph glyph-name="Omacron" unicode="&#x14c;" horiz-adv-x="1167" 
d="M266 1608v133h635v-133h-635zM123 446v533q0 217 128 346t336 129t332.5 -126t124.5 -343v-532q0 -217 -128 -345t-336.5 -128t-332.5 124.5t-124 341.5zM342 983v-532q0 -129 64.5 -202t177 -73t176 73t63.5 202v532q0 129 -63.5 201.5t-176 72.5t-177 -72.5
t-64.5 -201.5z" />
    <glyph glyph-name="omacron" unicode="&#x14d;" 
d="M205 1239v133h635v-133h-635zM102 391v262q0 190 118 304t305 114t302 -110.5t115 -301.5v-262q0 -193 -117.5 -305t-306 -112t-302.5 109t-114 302zM311 653v-256q0 -109 57.5 -170t152.5 -61t152.5 61.5t57.5 169.5v256q0 106 -57.5 169t-152.5 63t-152.5 -63
t-57.5 -169z" />
    <glyph glyph-name="Obreve" unicode="&#x14e;" horiz-adv-x="1167" 
d="M295 1884h145v-63q0 -66 39 -107t104.5 -41t103.5 41t38 107v63h147v-53q0 -127 -80.5 -206t-208.5 -79t-208 78t-80 205v55zM123 446v533q0 217 128 346t336 129t332.5 -126t124.5 -343v-532q0 -217 -128 -345t-336.5 -128t-332.5 124.5t-124 341.5zM342 983v-532
q0 -129 64.5 -202t177 -73t176 73t63.5 202v532q0 129 -63.5 201.5t-176 72.5t-177 -72.5t-64.5 -201.5z" />
    <glyph glyph-name="obreve" unicode="&#x14f;" 
d="M233 1516h146v-64q0 -66 39 -106.5t104.5 -40.5t103.5 40.5t38 106.5v64h147v-54q0 -127 -81 -205.5t-209 -78.5t-208 77.5t-80 204.5v56zM102 391v262q0 190 118 304t305 114t302 -110.5t115 -301.5v-262q0 -193 -117.5 -305t-306 -112t-302.5 109t-114 302zM311 653
v-256q0 -109 57.5 -170t152.5 -61t152.5 61.5t57.5 169.5v256q0 106 -57.5 169t-152.5 63t-152.5 -63t-57.5 -169z" />
    <glyph glyph-name="Ohungarumlaut" unicode="&#x150;" horiz-adv-x="1167" 
d="M315 1546l99 338h213l-154 -338h-158zM678 1546l96 338h213l-153 -338h-156zM123 446v533q0 217 128 346t336 129t332.5 -126t124.5 -343v-532q0 -217 -128 -345t-336.5 -128t-332.5 124.5t-124 341.5zM342 983v-532q0 -129 64.5 -202t177 -73t176 73t63.5 202v532
q0 129 -63.5 201.5t-176 72.5t-177 -72.5t-64.5 -201.5z" />
    <glyph glyph-name="ohungarumlaut" unicode="&#x151;" 
d="M254 1178l98 338h213l-153 -338h-158zM616 1178l97 338h213l-154 -338h-156zM102 391v262q0 190 118 304t305 114t302 -110.5t115 -301.5v-262q0 -193 -117.5 -305t-306 -112t-302.5 109t-114 302zM311 653v-256q0 -109 57.5 -170t152.5 -61t152.5 61.5t57.5 169.5v256
q0 106 -57.5 169t-152.5 63t-152.5 -63t-57.5 -169z" />
    <glyph glyph-name="OE" unicode="&#x152;" horiz-adv-x="1601" 
d="M1540 0h-944q-223 0 -348 127t-125 360v451q0 236 128 366t351 130h928v-195h-526v-405h444v-183h-444v-456h536v-195zM782 195v1044h-178q-127 0 -194.5 -77t-67.5 -220v-450q0 -143 67.5 -220t194.5 -77h178z" />
    <glyph glyph-name="oe" unicode="&#x153;" horiz-adv-x="1665" 
d="M940 674v-27h420v27q0 106 -57.5 168.5t-152.5 62.5t-152.5 -62.5t-57.5 -168.5zM311 653v-256q0 -109 57.5 -170t152.5 -61t152.5 61.5t57.5 169.5v256q0 106 -57.5 169t-152.5 63t-152.5 -63t-57.5 -169zM1147 -20q-209 0 -313 135q-108 -135 -306 -135t-312 109.5
t-114 301.5v262q0 190 118 304t314 114t304 -135q109 135 304 135t308 -110.5t113 -301.5v-151h-623v-111q0 -109 57.5 -170t153.5 -61q55 0 97 21.5t74 71.5t36 93l2 21l199 -41q-19 -133 -79.5 -205t-142.5 -109.5t-190 -37.5z" />
    <glyph glyph-name="Racute" unicode="&#x154;" horiz-adv-x="1126" 
d="M485 1546l127 338h217l-184 -338h-160zM522 549h-160v-549h-219v1434h418q211 0 342 -126t131 -317q0 -127 -66.5 -228t-181.5 -153l279 -610h-248l-235 551q-14 -2 -60 -2zM362 1243v-522h179q123 0 198.5 74.5t75.5 186.5t-74.5 186.5t-197.5 74.5h-181z" />
    <glyph glyph-name="racute" unicode="&#x155;" horiz-adv-x="702" 
d="M328 1178l127 338h217l-185 -338h-159zM123 0v1051h184l12 -177q98 197 349 197v-213h-82q-119 0 -186.5 -74.5t-67.5 -224.5v-559h-209z" />
    <glyph glyph-name="Rcommaaccent" unicode="&#x156;" horiz-adv-x="1126" 
d="M352 -440l127 338h217l-184 -338h-160zM522 549h-160v-549h-219v1434h418q211 0 342 -126t131 -317q0 -127 -66.5 -228t-181.5 -153l279 -610h-248l-235 551q-14 -2 -60 -2zM362 1243v-522h179q123 0 198.5 74.5t75.5 186.5t-74.5 186.5t-197.5 74.5h-181z" />
    <glyph glyph-name="rcommaaccent" unicode="&#x157;" horiz-adv-x="702" 
d="M-10 -440l127 338h217l-184 -338h-160zM123 0v1051h184l12 -177q98 197 349 197v-213h-82q-119 0 -186.5 -74.5t-67.5 -224.5v-559h-209z" />
    <glyph glyph-name="Rcaron" unicode="&#x158;" horiz-adv-x="1126" 
d="M895 1884l-246 -338h-174l-246 338h174l164 -198l162 198h166zM522 549h-160v-549h-219v1434h418q211 0 342 -126t131 -317q0 -127 -66.5 -228t-181.5 -153l279 -610h-248l-235 551q-14 -2 -60 -2zM362 1243v-522h179q123 0 198.5 74.5t75.5 186.5t-74.5 186.5
t-197.5 74.5h-181z" />
    <glyph glyph-name="rcaron" unicode="&#x159;" horiz-adv-x="702" 
d="M737 1516l-245 -338h-175l-245 338h174l164 -199l161 199h166zM123 0v1051h184l12 -177q98 197 349 197v-213h-82q-119 0 -186.5 -74.5t-67.5 -224.5v-559h-209z" />
    <glyph glyph-name="Sacute" unicode="&#x15a;" horiz-adv-x="1026" 
d="M451 1546l127 338h217l-185 -338h-159zM127 1090q0 162 113.5 263t283.5 101q94 0 173 -30.5t145.5 -98.5t91.5 -143l10 -31l-180 -70q-6 23 -28.5 60t-46 61.5t-66.5 45t-108 20.5t-116 -45t-51 -122t58.5 -140.5t189.5 -141.5q332 -195 332 -448q0 -182 -118 -286.5
t-300 -104.5q-100 0 -183 35.5t-157 116.5t-96 159l-13 37l181 69q4 -10 10 -25.5t29.5 -55.5t51 -70.5t75 -55t98.5 -24.5q92 0 147.5 51t55.5 139t-63 155.5t-200 147.5q-319 188 -319 431z" />
    <glyph glyph-name="sacute" unicode="&#x15b;" horiz-adv-x="839" 
d="M356 1178l127 338h217l-184 -338h-160zM778 289q0 -137 -100 -223t-260 -86q-106 0 -200.5 35.5t-135.5 72.5l-41 37l111 139q14 -12 38.5 -31.5t94 -51t135.5 -31.5t106.5 35.5t40.5 89.5t-45 99.5t-164 90.5q-266 102 -266 317q0 125 93.5 207t244.5 82q98 0 181 -30.5
t118 -61.5l33 -31l-111 -141q-38 38 -96.5 65t-118.5 27t-97.5 -31.5t-37.5 -74.5q0 -100 184 -172q293 -111 293 -332z" />
    <glyph glyph-name="Scircumflex" unicode="&#x15c;" horiz-adv-x="1026" 
d="M195 1546l245 338h174l246 -338h-174l-164 199l-162 -199h-165zM127 1090q0 162 113.5 263t283.5 101q94 0 173 -30.5t145.5 -98.5t91.5 -143l10 -31l-180 -70q-6 23 -28.5 60t-46 61.5t-66.5 45t-108 20.5t-116 -45t-51 -122t58.5 -140.5t189.5 -141.5
q332 -195 332 -448q0 -182 -118 -286.5t-300 -104.5q-100 0 -183 35.5t-157 116.5t-96 159l-13 37l181 69q4 -10 10 -25.5t29.5 -55.5t51 -70.5t75 -55t98.5 -24.5q92 0 147.5 51t55.5 139t-63 155.5t-200 147.5q-319 188 -319 431z" />
    <glyph glyph-name="scircumflex" unicode="&#x15d;" horiz-adv-x="839" 
d="M102 1178l246 338h174l246 -338h-174l-164 198l-162 -198h-166zM778 289q0 -137 -100 -223t-260 -86q-106 0 -200.5 35.5t-135.5 72.5l-41 37l111 139q14 -12 38.5 -31.5t94 -51t135.5 -31.5t106.5 35.5t40.5 89.5t-45 99.5t-164 90.5q-266 102 -266 317q0 125 93.5 207
t244.5 82q98 0 181 -30.5t118 -61.5l33 -31l-111 -141q-38 38 -96.5 65t-118.5 27t-97.5 -31.5t-37.5 -74.5q0 -100 184 -172q293 -111 293 -332z" />
    <glyph glyph-name="Scedilla" unicode="&#x15e;" horiz-adv-x="1026" 
d="M127 1090q0 162 113.5 263t283.5 101q94 0 173 -30.5t145.5 -98.5t91.5 -143l10 -31l-180 -70q-6 23 -28.5 60t-46 61.5t-66.5 45t-108 20.5t-116 -45t-51 -122t58.5 -140.5t189.5 -141.5q332 -195 332 -448q0 -160 -92.5 -261.5t-241.5 -123.5q43 -61 43 -138
q0 -115 -81 -181t-200 -66q-76 0 -153 34l24 132q39 -25 107 -25t105.5 34t37.5 100t-55 112q-80 14 -146.5 54t-124.5 111.5t-81 143.5l-9 31l181 69q4 -10 10 -25.5t29.5 -55.5t51 -70.5t75 -55t98.5 -24.5q92 0 147.5 51t55.5 139t-63 155.5t-200 147.5
q-319 188 -319 431z" />
    <glyph glyph-name="scedilla" unicode="&#x15f;" horiz-adv-x="839" 
d="M778 289q0 -119 -75.5 -200t-202.5 -101q45 -59 45 -140q0 -115 -81 -181t-183 -66t-170 34l24 132q39 -25 107 -25t105.5 34t37.5 98t-53 112q-84 12 -157 47t-103 63l-31 29l111 139q14 -12 38.5 -31.5t94 -51t135.5 -31.5t106.5 35.5t40.5 89.5t-45 99.5t-164 90.5
q-266 102 -266 317q0 125 93.5 207t244.5 82q98 0 181 -30.5t118 -61.5l33 -31l-111 -141q-38 38 -96.5 65t-118.5 27t-97.5 -31.5t-37.5 -74.5q0 -100 184 -172q293 -111 293 -332z" />
    <glyph glyph-name="Scaron" unicode="&#x160;" horiz-adv-x="1013" 
d="M864 1884l-246 -338h-174l-245 338h174l164 -198l161 198h166zM127 1090q0 162 113.5 263t283.5 101q94 0 173 -30.5t145.5 -98.5t91.5 -143l10 -31l-180 -70q-6 23 -28.5 60t-46 61.5t-66.5 45t-108 20.5t-116 -45t-51 -122t58.5 -140.5t189.5 -141.5q332 -195 332 -448
q0 -182 -118 -286.5t-300 -104.5q-100 0 -183 35.5t-157 116.5t-96 159l-13 37l181 69q4 -10 10 -25.5t29.5 -55.5t51 -70.5t75 -55t98.5 -24.5q92 0 147.5 51t55.5 139t-63 155.5t-200 147.5q-319 188 -319 431z" />
    <glyph glyph-name="scaron" unicode="&#x161;" horiz-adv-x="854" 
d="M782 1516l-245 -338h-175l-245 338h174l164 -199l161 199h166zM778 289q0 -137 -100 -223t-260 -86q-106 0 -200.5 35.5t-135.5 72.5l-41 37l111 139q14 -12 38.5 -31.5t94 -51t135.5 -31.5t106.5 35.5t40.5 89.5t-45 99.5t-164 90.5q-266 102 -266 317q0 125 93.5 207
t244.5 82q98 0 181 -30.5t118 -61.5l33 -31l-111 -141q-38 38 -96.5 65t-118.5 27t-97.5 -31.5t-37.5 -74.5q0 -100 184 -172q293 -111 293 -332z" />
    <glyph glyph-name="Tcommaaccent" unicode="&#x162;" horiz-adv-x="952" 
d="M240 -440l127 338h217l-185 -338h-159zM911 1233h-325v-1233h-221v1233h-324v201h870v-201z" />
    <glyph glyph-name="tcommaaccent" unicode="&#x163;" horiz-adv-x="747" 
d="M229 -440l127 338h217l-184 -338h-160zM543 166q51 0 127 16l26 -172q-80 -30 -215 -30t-210.5 74.5t-75.5 211.5v621h-164v164h164v260h208v-260h293v-164h-293v-580q0 -141 140 -141z" />
    <glyph glyph-name="Tcaron" unicode="&#x164;" horiz-adv-x="952" 
d="M809 1884l-246 -338h-174l-246 338h174l164 -198l162 198h166zM911 1233h-325v-1233h-221v1233h-324v201h870v-201z" />
    <glyph glyph-name="tcaron" unicode="&#x165;" horiz-adv-x="747" 
d="M543 166q51 0 127 16l26 -172q-80 -30 -215 -30t-210.5 74.5t-75.5 211.5v621h-164v164h164v260h208v-260h293v-164h-293v-580q0 -141 140 -141zM670 1167h-154l51 451h221z" />
    <glyph glyph-name="Tbar" unicode="&#x166;" horiz-adv-x="952" 
d="M911 1233h-325v-442h274v-132h-274v-659h-221v659h-273v132h273v442h-324v201h870v-201z" />
    <glyph glyph-name="tbar" unicode="&#x167;" horiz-adv-x="747" 
d="M543 160q70 0 127 18l26 -168q-80 -30 -215 -30t-210.5 74.5t-75.5 211.5v217h-164v127h164v281h-164v160h164v260h208v-260h293v-160h-293v-281h293v-127h-293v-182q0 -141 140 -141z" />
    <glyph glyph-name="Utilde" unicode="&#x168;" horiz-adv-x="1167" 
d="M458 1843q56 0 101 -34.5t80 -68.5t68 -34t50 28.5t21 57.5l2 29l123 -9q0 -84 -30.5 -137t-69.5 -79.5t-89 -26.5q-93 0 -149.5 69.5t-107.5 69.5q-31 0 -48.5 -28.5t-19.5 -57.5l-2 -29l-123 9q0 78 30 133t69 81.5t95 26.5zM815 440v994h219v-992q0 -213 -126 -337.5
t-328.5 -124.5t-324.5 121.5t-122 334.5v998h221v-994q0 -125 61.5 -194.5t170 -69.5t169 69.5t60.5 194.5z" />
    <glyph glyph-name="utilde" unicode="&#x169;" horiz-adv-x="1054" 
d="M400 1475q56 0 101.5 -35t80 -69t67.5 -34t50.5 29t21.5 57l2 29l123 -8q0 -84 -31 -137.5t-70 -80t-89 -26.5q-94 0 -150 69.5t-107 69.5q-31 0 -48 -28.5t-19 -57.5l-2 -28l-123 8q0 82 29.5 135t68.5 80t95 27zM932 1051v-1051h-184l-9 135q-94 -156 -293 -155
q-154 0 -243.5 101t-89.5 290v680h211v-633q0 -252 192 -252q92 0 148.5 61.5t58.5 182.5v641h209z" />
    <glyph glyph-name="Umacron" unicode="&#x16a;" horiz-adv-x="1167" 
d="M268 1608v133h635v-133h-635zM815 440v994h219v-992q0 -213 -126 -337.5t-328.5 -124.5t-324.5 121.5t-122 334.5v998h221v-994q0 -125 61.5 -194.5t170 -69.5t169 69.5t60.5 194.5z" />
    <glyph glyph-name="umacron" unicode="&#x16b;" horiz-adv-x="1054" 
d="M209 1239v133h635v-133h-635zM932 1051v-1051h-184l-9 135q-94 -156 -293 -155q-154 0 -243.5 101t-89.5 290v680h211v-633q0 -252 192 -252q92 0 148.5 61.5t58.5 182.5v641h209z" />
    <glyph glyph-name="Ubreve" unicode="&#x16c;" horiz-adv-x="1167" 
d="M297 1884h145v-63q0 -66 39 -107t104.5 -41t103.5 41t38 107v63h147v-53q0 -127 -80.5 -206t-208.5 -79t-208 78t-80 205v55zM815 440v994h219v-992q0 -213 -126 -337.5t-328.5 -124.5t-324.5 121.5t-122 334.5v998h221v-994q0 -125 61.5 -194.5t170 -69.5t169 69.5
t60.5 194.5z" />
    <glyph glyph-name="ubreve" unicode="&#x16d;" horiz-adv-x="1054" 
d="M238 1516h145v-64q0 -66 39 -106.5t104.5 -40.5t103.5 40.5t38 106.5v64h147v-54q0 -127 -81 -205.5t-209 -78.5t-207.5 77.5t-79.5 204.5v56zM932 1051v-1051h-184l-9 135q-94 -156 -293 -155q-154 0 -243.5 101t-89.5 290v680h211v-633q0 -252 192 -252
q92 0 148.5 61.5t58.5 182.5v641h209z" />
    <glyph glyph-name="Uring" unicode="&#x16e;" horiz-adv-x="1167" 
d="M586 1647q43 0 71.5 28.5t28.5 71.5t-28.5 70.5t-71.5 27.5t-73 -28.5t-30 -70.5t30 -70.5t73 -28.5zM585 1942q89 0 147.5 -55.5t58.5 -139.5t-58.5 -139.5t-146.5 -55.5t-146.5 54.5t-58.5 139.5t57.5 140.5t146.5 55.5zM815 440v994h219v-992q0 -213 -126 -337.5
t-328.5 -124.5t-324.5 121.5t-122 334.5v998h221v-994q0 -125 61.5 -194.5t170 -69.5t169 69.5t60.5 194.5z" />
    <glyph glyph-name="uring" unicode="&#x16f;" horiz-adv-x="1054" 
d="M526 1278q43 0 72 28.5t29 71.5t-29 71t-72 28t-72.5 -29t-29.5 -71t29.5 -70.5t72.5 -28.5zM525 1573q89 0 147.5 -55.5t58.5 -139.5t-58.5 -139t-146.5 -55t-146 54t-58 139t57 140.5t146 55.5zM932 1051v-1051h-184l-9 135q-94 -156 -293 -155q-154 0 -243.5 101
t-89.5 290v680h211v-633q0 -252 192 -252q92 0 148.5 61.5t58.5 182.5v641h209z" />
    <glyph glyph-name="Uhungarumlaut" unicode="&#x170;" horiz-adv-x="1167" 
d="M326 1546l98 338h213l-154 -338h-157zM688 1546l96 338h213l-153 -338h-156zM815 440v994h219v-992q0 -213 -126 -337.5t-328.5 -124.5t-324.5 121.5t-122 334.5v998h221v-994q0 -125 61.5 -194.5t170 -69.5t169 69.5t60.5 194.5z" />
    <glyph glyph-name="uhungarumlaut" unicode="&#x171;" horiz-adv-x="1054" 
d="M260 1178l98 338h213l-153 -338h-158zM623 1178l96 338h213l-154 -338h-155zM932 1051v-1051h-184l-9 135q-94 -156 -293 -155q-154 0 -243.5 101t-89.5 290v680h211v-633q0 -252 192 -252q92 0 148.5 61.5t58.5 182.5v641h209z" />
    <glyph glyph-name="Uogonek" unicode="&#x172;" horiz-adv-x="1167" 
d="M808 -238q56 0 99 17l21 -127q-42 -31 -144 -31t-181 68.5t-79 175.5q0 61 29 115q-193 8 -306.5 128.5t-113.5 327.5v998h221v-994q0 -125 61.5 -194.5t170 -69.5t169 69.5t60.5 194.5v994h219v-992q0 -176 -87 -292.5t-236 -153.5q-41 -36 -41 -100t41 -99t97 -35z" />
    <glyph glyph-name="uogonek" unicode="&#x173;" horiz-adv-x="1054" 
d="M945 -238q56 0 99 17l21 -127q-43 -31 -145 -31t-180 68.5t-78 175t81 180.5l-4 90q-94 -156 -293 -155q-154 0 -243.5 101t-89.5 290v680h211v-633q0 -252 192 -252q92 0 148.5 61.5t58.5 182.5v641h209v-1051h-76q-49 -32 -49 -100t41 -103t97 -35z" />
    <glyph glyph-name="Wcircumflex" unicode="&#x174;" horiz-adv-x="1576" 
d="M455 1546l245 338h174l246 -338h-174l-164 199l-161 -199h-166zM381 0l-381 1434h240l245 -1041l232 1041h153l232 -1041l248 1041h227l-381 -1434h-188l-220 961l-219 -961h-188z" />
    <glyph glyph-name="wcircumflex" unicode="&#x175;" horiz-adv-x="1341" 
d="M338 1178l246 338h174l246 -338h-175l-163 198l-162 -198h-166zM317 0l-307 1051h226l188 -727l182 727h142l180 -727l190 727h213l-307 -1051h-182l-172 668l-170 -668h-183z" />
    <glyph glyph-name="Ycircumflex" unicode="&#x176;" horiz-adv-x="1075" 
d="M211 1546l246 338h174l246 -338h-175l-163 199l-162 -199h-166zM428 0v553l-428 881h248l295 -660l297 660h235l-428 -881v-553h-219z" />
    <glyph glyph-name="ycircumflex" unicode="&#x177;" horiz-adv-x="921" 
d="M135 1178l246 338h174l246 -338h-174l-164 198l-162 -198h-166zM214 -348q-108 0 -165 24l-18 11l41 166q41 -20 104 -21q133 0 186 168l-352 1051h226l231 -781l231 781h213l-366 -1088q-55 -168 -139 -239.5t-192 -71.5z" />
    <glyph glyph-name="Ydieresis" unicode="&#x178;" horiz-adv-x="1075" 
d="M368.5 1827q51.5 0 85 -34t33.5 -85t-33.5 -85t-85.5 -34t-85 33t-33 85t33.5 86t85 34zM745.5 1827q51.5 0 85 -34t33.5 -85t-34 -85t-86 -34t-84.5 33t-32.5 85t33.5 86t85 34zM428 0v553l-428 881h248l295 -660l297 660h235l-428 -881v-553h-219z" />
    <glyph glyph-name="Zacute" unicode="&#x179;" horiz-adv-x="1003" 
d="M424 1546l127 338h217l-184 -338h-160zM922 0h-840v158l584 1085h-543v191h799v-160l-584 -1086h584v-188z" />
    <glyph glyph-name="zacute" unicode="&#x17a;" horiz-adv-x="870" 
d="M367 1178l127 338h217l-185 -338h-159zM113 874v177h675v-146l-464 -729h464v-176h-706v145l463 729h-432z" />
    <glyph glyph-name="Zdotaccent" unicode="&#x17b;" horiz-adv-x="1003" 
d="M532.5 1825q51.5 0 85 -34t33.5 -85t-34.5 -85t-86 -34t-85 34t-33.5 85t34.5 85t86 34zM922 0h-840v158l584 1085h-543v191h799v-160l-584 -1086h584v-188z" />
    <glyph glyph-name="zdotaccent" unicode="&#x17c;" horiz-adv-x="870" 
d="M465 1456q51 0 85 -33.5t34 -85t-35 -85t-86 -33.5t-85 33.5t-34 85t35 85t86 33.5zM113 874v177h675v-146l-464 -729h464v-176h-706v145l463 729h-432z" />
    <glyph glyph-name="Zcaron" unicode="&#x17d;" horiz-adv-x="1003" 
d="M854 1884l-246 -338h-174l-246 338h174l164 -198l162 198h166zM922 0h-840v158l584 1085h-543v191h799v-160l-584 -1086h584v-188z" />
    <glyph glyph-name="zcaron" unicode="&#x17e;" horiz-adv-x="894" 
d="M784 1516l-245 -338h-174l-246 338h174l164 -199l161 199h166zM113 874v177h675v-146l-464 -729h464v-176h-706v145l463 729h-432z" />
    <glyph glyph-name="florin" unicode="&#x192;" horiz-adv-x="1003" 
d="M31 608v133h254l24 316q14 184 118.5 290.5t264.5 106.5q70 0 130.5 -14.5t84.5 -30.5l25 -14l-74 -172q-59 35 -147 34.5t-136.5 -56.5t-56.5 -157l-22 -303h364v-133h-375l-71 -936h-209l69 936h-243z" />
    <glyph glyph-name="Aringacute" unicode="&#x1fa;" horiz-adv-x="1105" 
d="M451 1533q0 -40 23.5 -66.5t57.5 -32.5h41q35 6 57.5 32.5t22.5 67.5t-28.5 68.5t-71.5 27.5t-72.5 -28.5t-29.5 -68.5zM545 1130l-180 -610h360zM758 1530.5q0 -100.5 -82 -158.5l430 -1372h-232l-104 352h-448l-103 -352h-219l428 1374q-80 51 -80 156q0 76 46 129
t122 65l68 181h217l-119 -219q76 -55 76 -155.5z" />
    <glyph glyph-name="aringacute" unicode="&#x1fb;" horiz-adv-x="1024" 
d="M506 1083q43 0 71.5 29t28.5 72t-28.5 70.5t-71.5 27.5t-73 -28.5t-30 -70.5t30 -71t73 -29zM500 135q94 0 152.5 49t58.5 125t-58.5 125t-152.5 49t-151.5 -49t-57.5 -125t57.5 -125t151.5 -49zM911 641v-641h-170l-14 98q-99 -118 -275 -118t-273 89t-97 232
t100.5 235.5t264.5 92.5t253 -90v88q0 127 -63.5 192.5t-177.5 65.5q-72 0 -136.5 -16.5t-93.5 -32.5l-30 -17l-56 166q72 47 201 72q-43 49 -43 126t49 130t127 63l60 160h217l-111 -205q68 -57 68 -143t-56 -141q256 -82 256 -406z" />
    <glyph glyph-name="AEacute" unicode="&#x1fc;" horiz-adv-x="1566" 
d="M936 1546l127 338h217l-184 -338h-160zM1495 1239h-528v-405h446v-183h-446v-456h538v-195h-757v354h-377l-156 -354h-225l628 1434h877v-195zM748 520v733l-316 -733h316z" />
    <glyph glyph-name="aeacute" unicode="&#x1fd;" horiz-adv-x="1636" 
d="M752 1178l127 338h217l-185 -338h-159zM502 135q94 0 152.5 49t58.5 125t-59.5 125t-152.5 49t-150.5 -49t-57.5 -125t57.5 -125t151.5 -49zM1118 -20q-219 0 -317 167q-98 -168 -346 -167q-174 0 -273.5 89t-99.5 232t100.5 235.5t263.5 92.5t256 -90v88
q0 127 -63.5 192.5t-177.5 65.5q-72 0 -137.5 -16.5t-94.5 -32.5l-28 -17l-58 166q14 10 40 24.5t118 38t195 23.5q223 0 315 -168q100 168 313 168q184 0 297 -110.5t113 -301.5v-151h-623v-111q0 -109 57.5 -170t153.5 -61q55 0 97.5 21.5t74 72t35.5 92.5l2 21l199 -41
q-19 -133 -79 -205t-142 -109.5t-191 -37.5zM911 674v-27h420v27q0 106 -56.5 168.5t-152.5 62.5t-153.5 -62.5t-57.5 -168.5z" />
    <glyph glyph-name="Oslashacute" unicode="&#x1fe;" horiz-adv-x="1167" 
d="M496 1546l127 338h217l-185 -338h-159zM338 983v-532q0 -37 2 -54l428 785q-68 80 -184 80t-181 -74t-65 -205zM829 983q0 18 -4 55l-428 -786q63 -82 183 -82t184.5 74.5t64.5 206.5v532zM1044 985v-532q0 -217 -128 -345t-336 -128q-170 0 -285 83l-68 -124h-135
l115 213q-84 119 -84 294v533q0 217 128 346t335 129q164 0 282 -84l70 125h137l-117 -215q86 -119 86 -295z" />
    <glyph glyph-name="oslashacute" unicode="&#x1ff;" 
d="M444 1178l127 338h217l-184 -338h-160zM303 653v-256q0 -55 10 -86l355 537q-56 47 -152 47t-154.5 -63.5t-58.5 -178.5zM743 397v256q0 47 -12 88l-354 -538q57 -47 152 -47t154.5 63t59.5 178zM942 659v-262q0 -190 -117.5 -303.5t-304.5 -113.5q-145 0 -248 65
l-69 -106h-135l120 182q-86 109 -86 270v262q0 193 118 305.5t306 112.5q143 0 246 -65l70 106h135l-121 -182q86 -113 86 -271z" />
    <glyph glyph-name="Scommaaccent" unicode="&#x218;" horiz-adv-x="1026" 
d="M260 -440l127 338h217l-184 -338h-160zM127 1090q0 162 113.5 263t283.5 101q94 0 173 -30.5t145.5 -98.5t91.5 -143l10 -31l-180 -70q-6 23 -28.5 60t-46 61.5t-66.5 45t-108 20.5t-116 -45t-51 -122t58.5 -140.5t189.5 -141.5q332 -195 332 -448q0 -182 -118 -286.5
t-300 -104.5q-100 0 -183 35.5t-157 116.5t-96 159l-13 37l181 69q4 -10 10 -25.5t29.5 -55.5t51 -70.5t75 -55t98.5 -24.5q92 0 147.5 51t55.5 139t-63 155.5t-200 147.5q-319 188 -319 431z" />
    <glyph glyph-name="scommaaccent" unicode="&#x219;" horiz-adv-x="839" 
d="M188 -440l127 338h217l-184 -338h-160zM778 289q0 -137 -100 -223t-260 -86q-106 0 -200.5 35.5t-135.5 72.5l-41 37l111 139q14 -12 38.5 -31.5t94 -51t135.5 -31.5t106.5 35.5t40.5 89.5t-45 99.5t-164 90.5q-266 102 -266 317q0 125 93.5 207t244.5 82q98 0 181 -30.5
t118 -61.5l33 -31l-111 -141q-38 38 -96.5 65t-118.5 27t-97.5 -31.5t-37.5 -74.5q0 -100 184 -172q293 -111 293 -332z" />
    <glyph glyph-name="circumflex" unicode="&#x2c6;" horiz-adv-x="1085" 
d="M209 1178l246 338h174l245 -338h-174l-163 198l-162 -198h-166z" />
    <glyph glyph-name="caron" unicode="&#x2c7;" horiz-adv-x="1085" 
d="M874 1516l-245 -338h-174l-246 338h174l164 -199l162 199h165z" />
    <glyph glyph-name="breve" unicode="&#x2d8;" horiz-adv-x="925" 
d="M174 1516h145v-64q0 -66 39 -106.5t104.5 -40.5t103.5 40.5t38 106.5v64h148v-54q0 -127 -81 -205.5t-209 -78.5t-208 77.5t-80 204.5v56z" />
    <glyph glyph-name="dotaccent" unicode="&#x2d9;" horiz-adv-x="571" 
d="M287 1456q51 0 85 -33.5t34 -85t-35 -85t-86.5 -33.5t-85 33.5t-33.5 85t35 85t86 33.5z" />
    <glyph glyph-name="ring" unicode="&#x2da;" horiz-adv-x="655" 
d="M328 1278q43 0 71.5 28.5t28.5 71.5t-28.5 71t-71.5 28t-73 -29t-30 -71t30 -70.5t73 -28.5zM327 1573q89 0 147 -55.5t58 -139.5t-58 -139t-146 -55t-146.5 54t-58.5 139t57.5 140.5t146.5 55.5z" />
    <glyph glyph-name="ogonek" unicode="&#x2db;" horiz-adv-x="706" 
d="M417 -238q57 0 99 17l21 -127q-43 -31 -145 -31t-180.5 68.5t-78.5 176.5q0 137 139 216l56 -82q-49 -32 -49 -100t40.5 -103t97.5 -35z" />
    <glyph glyph-name="tilde" unicode="&#x2dc;" horiz-adv-x="956" 
d="M351 1475q56 0 101.5 -35t80 -69t67.5 -34t50.5 29t21.5 57l2 29l123 -8q0 -84 -31 -137.5t-70 -80t-89 -26.5q-93 0 -149.5 69.5t-107.5 69.5q-31 0 -48 -28.5t-19 -57.5l-2 -28l-123 8q0 82 29.5 135t68.5 80t95 27z" />
    <glyph glyph-name="hungarumlaut" unicode="&#x2dd;" horiz-adv-x="1167" 
d="M244 1178l98 338h213l-154 -338h-157zM606 1178l96 338h213l-153 -338h-156z" />
    <glyph glyph-name="Delta" unicode="&#x394;" horiz-adv-x="1126" 
d="M0 0l457 1434h211l458 -1434h-1126zM555 1137l-283 -938h568z" />
    <glyph glyph-name="Delta" unicode="&#x2206;" horiz-adv-x="1126" 
d="M0 0l457 1434h211l458 -1434h-1126zM555 1137l-283 -938h568z" />
    <glyph glyph-name="pi" unicode="&#x3c0;" horiz-adv-x="1218" 
d="M1054 160q55 0 87 12l26 -166q-47 -26 -172 -26t-191.5 64.5t-66.5 191.5v645h-313v-881h-209v881h-184v170h1136v-170h-221v-611q0 -61 27 -85.5t81 -24.5z" />
    <glyph glyph-name="Wgrave" unicode="&#x1e80;" horiz-adv-x="1576" 
d="M739 1884l127 -338h-159l-185 338h217zM381 0l-381 1434h240l245 -1041l232 1041h153l232 -1041l248 1041h227l-381 -1434h-188l-220 961l-219 -961h-188z" />
    <glyph glyph-name="wgrave" unicode="&#x1e81;" horiz-adv-x="1341" 
d="M621 1516l127 -338h-160l-185 338h218zM317 0l-307 1051h226l188 -727l182 727h142l180 -727l190 727h213l-307 -1051h-182l-172 668l-170 -668h-183z" />
    <glyph glyph-name="Wacute" unicode="&#x1e82;" horiz-adv-x="1576" 
d="M731 1546l127 338h217l-184 -338h-160zM381 0l-381 1434h240l245 -1041l232 1041h153l232 -1041l248 1041h227l-381 -1434h-188l-220 961l-219 -961h-188z" />
    <glyph glyph-name="wacute" unicode="&#x1e83;" horiz-adv-x="1341" 
d="M623 1178l127 338h217l-185 -338h-159zM317 0l-307 1051h226l188 -727l182 727h142l180 -727l190 727h213l-307 -1051h-182l-172 668l-170 -668h-183z" />
    <glyph glyph-name="Wdieresis" unicode="&#x1e84;" horiz-adv-x="1576" 
d="M600 1827q51 0 85 -34t34 -85t-34 -85t-85 -34t-85 33t-34 85t34 86t85 34zM977 1827q51 0 85 -34t34 -85t-34 -85t-85 -34t-85 33t-34 85t34 86t85 34zM381 0l-381 1434h240l245 -1041l232 1041h153l232 -1041l248 1041h227l-381 -1434h-188l-220 961l-219 -961h-188z
" />
    <glyph glyph-name="wdieresis" unicode="&#x1e85;" horiz-adv-x="1341" 
d="M483.5 1458q51.5 0 85 -33.5t33.5 -85t-34 -85t-86 -33.5t-84.5 32.5t-32.5 84.5t33.5 86t85 34zM860 1458q51 0 85 -33.5t34 -85t-34 -85t-86 -33.5t-85 32.5t-33 84.5t34 86t85 34zM317 0l-307 1051h226l188 -727l182 727h142l180 -727l190 727h213l-307 -1051h-182
l-172 668l-170 -668h-183z" />
    <glyph glyph-name="uni1E9E" unicode="&#x1e9e;" horiz-adv-x="1177" 
d="M1106 483v-41q0 -211 -122 -336.5t-312 -125.5l-115 10l21 192q29 -6 67 -6q113 0 176.5 69.5t63.5 194.5v41q0 125 -63.5 194.5t-176.5 69.5h-67v140l208 301q-76 72 -190 72t-179 -75t-65 -210v-973h-219v969q0 225 129 355t340 130t305 -85t111 -107l16 -23l-223 -321
q139 -41 217 -155t78 -280z" />
    <glyph glyph-name="Ygrave" unicode="&#x1ef2;" horiz-adv-x="1075" 
d="M508 1884l127 -338h-160l-184 338h217zM428 0v553l-428 881h248l295 -660l297 660h235l-428 -881v-553h-219z" />
    <glyph glyph-name="ygrave" unicode="&#x1ef3;" horiz-adv-x="921" 
d="M432 1516l127 -338h-160l-184 338h217zM214 -348q-108 0 -165 24l-18 11l41 166q41 -20 104 -21q133 0 186 168l-352 1051h226l231 -781l231 781h213l-366 -1088q-55 -168 -139 -239.5t-192 -71.5z" />
    <glyph glyph-name="endash" unicode="&#x2013;" 
d="M963 635h-881v188h881v-188z" />
    <glyph glyph-name="emdash" unicode="&#x2014;" horiz-adv-x="1454" 
d="M1372 635h-1290v188h1290v-188z" />
    <glyph glyph-name="quoteleft" unicode="&#x2018;" horiz-adv-x="430" 
d="M180 1434h168l-35 -543h-231z" />
    <glyph glyph-name="quoteright" unicode="&#x2019;" horiz-adv-x="430" 
d="M250 891h-168l35 543h231z" />
    <glyph glyph-name="quotesinglbase" unicode="&#x201a;" horiz-adv-x="430" 
d="M250 -266h-168l35 542h231z" />
    <glyph glyph-name="quotedblleft" unicode="&#x201c;" horiz-adv-x="788" 
d="M539 1434h168l-35 -543h-232zM180 1434h168l-35 -543h-231z" />
    <glyph glyph-name="quotedblright" unicode="&#x201d;" horiz-adv-x="788" 
d="M608 891h-168l35 543h232zM250 891h-168l35 543h231z" />
    <glyph glyph-name="quotedblbase" unicode="&#x201e;" horiz-adv-x="788" 
d="M608 -266h-168l35 542h232zM250 -266h-168l35 542h231z" />
    <glyph glyph-name="dagger" unicode="&#x2020;" horiz-adv-x="788" 
d="M707 1051h-234v-467h-158v467h-233v143h233v240h158v-240h234v-143z" />
    <glyph glyph-name="daggerdbl" unicode="&#x2021;" horiz-adv-x="788" 
d="M707 1051h-234v-279h234v-143h-234v-240h-158v240h-233v143h233v279h-233v143h233v240h158v-240h234v-143z" />
    <glyph glyph-name="bullet" unicode="&#x2022;" horiz-adv-x="675" 
d="M339 963q103 0 174 -71t71 -174t-72 -175t-176.5 -72t-174 69.5t-69.5 174t72 176.5t175 72z" />
    <glyph glyph-name="perthousand" unicode="&#x2030;" horiz-adv-x="2017" 
d="M356.5 1112q-59.5 0 -99.5 -40t-40 -102t40 -102.5t99.5 -40.5t99.5 40.5t40 102.5t-40 102t-99.5 40zM203 0l801 1229h143l-801 -1229h-143zM358.5 1249q120.5 0 201.5 -78.5t81 -199.5t-83 -201t-205 -80t-201.5 78t-79.5 198.5t83 201.5t203.5 81zM711 256
q0 121 83 202t203.5 81t201.5 -79t81 -200t-83 -200.5t-205 -79.5t-201.5 77.5t-79.5 198.5zM856 258q0 -61 40 -102t99.5 -41t98.5 41t39 102t-39 102t-98.5 41t-99.5 -41t-40 -102zM1376 256q0 121 83 202t204 81t202 -79t81 -200t-83 -200.5t-205 -79.5t-202 77.5
t-80 198.5zM1522 258q0 -61 40 -102t99 -41t98 41t39 102t-39 102t-98 41t-99 -41t-40 -102z" />
    <glyph glyph-name="guilsinglleft" unicode="&#x2039;" horiz-adv-x="782" 
d="M659 1069l-350 -350l350 -348l-112 -121l-465 430v72l465 430z" />
    <glyph glyph-name="guilsinglright" unicode="&#x203a;" horiz-adv-x="782" 
d="M123 365l350 350l-350 348l113 121l464 -430v-72l-464 -430z" />
    <glyph glyph-name="fraction" unicode="&#x2044;" horiz-adv-x="311" 
d="M-389 0l948 1434h141l-948 -1434h-141z" />
    <glyph glyph-name="zerosuperior" unicode="&#x2070;" horiz-adv-x="673" 
d="M82 819v363q0 121 70.5 192.5t184.5 71.5t184.5 -69.5t70.5 -190.5v-363q0 -121 -71.5 -191.5t-185.5 -70.5t-183.5 69.5t-69.5 188.5zM229 1194v-383q0 -53 29 -85t78 -32t78.5 32t29.5 85v383q0 55 -29.5 87t-78.5 32t-78 -32t-29 -87z" />
    <glyph glyph-name="foursuperior" unicode="&#x2074;" horiz-adv-x="641" 
d="M502 1434v-545h98v-115h-98v-201h-142v201h-319v119l315 541h146zM360 889v344l-202 -344h202z" />
    <glyph glyph-name="fivesuperior" unicode="&#x2075;" horiz-adv-x="636" 
d="M541 1303h-322v-193q47 47 136 47t149.5 -63.5t60.5 -171.5v-101q0 -119 -68.5 -189.5t-180.5 -70.5t-178 67.5t-66 184.5v14h143v-24q0 -51 27.5 -80t75 -29t74 30t26.5 83v113q0 51 -27 80.5t-71 29.5t-68.5 -19.5t-28.5 -37.5l-4 -19h-135v480h457v-131z" />
    <glyph glyph-name="sixsuperior" unicode="&#x2076;" horiz-adv-x="665" 
d="M369 1133q102 0 163.5 -67t61.5 -183v-49q0 -125 -72.5 -199t-189.5 -74t-188.5 72t-71.5 196v27q0 109 47 197l203 381h155l-176 -316q33 15 68 15zM446 819v68q0 59 -29.5 92t-82.5 33t-84 -33t-31 -92v-68q0 -59 31 -92t84 -33t82.5 33t29.5 92z" />
    <glyph glyph-name="sevensuperior" unicode="&#x2077;" horiz-adv-x="602" 
d="M61 1300v134h480v-109l-271 -752h-153l268 727h-324z" />
    <glyph glyph-name="eightsuperior" unicode="&#x2078;" horiz-adv-x="677" 
d="M219 844v-29q0 -61 32 -95t87 -34t88 34t33 95v29q0 61 -33 96t-87 35t-87 -35t-33 -96zM90 1208v13q0 96 71.5 160.5t178 64.5t177.5 -63.5t71 -157.5v-13q0 -117 -96 -180q115 -72 114 -207v-12q0 -111 -76.5 -181.5t-192.5 -70.5t-190.5 68.5t-74.5 179.5v12
q0 139 112 209q-94 63 -94 178zM238 1217v-27q0 -47 27.5 -77t72.5 -30t73.5 30t28.5 77v27q0 45 -28.5 74.5t-73.5 29.5t-72.5 -29.5t-27.5 -74.5z" />
    <glyph glyph-name="ninesuperior" unicode="&#x2079;" horiz-adv-x="665" 
d="M297 874q-102 0 -163.5 67t-61.5 183v50q0 125 72.5 198.5t189.5 73.5t188.5 -71.5t71.5 -196.5v-27q0 -109 -47 -197l-203 -381h-156l177 316q-33 -15 -68 -15zM219 1188v-68q0 -59 30 -92t83 -33t83.5 33t30.5 92v68q0 59 -30.5 92t-83.5 33t-83 -33t-30 -92z" />
    <glyph glyph-name="zeroinferior" unicode="&#x2080;" horiz-adv-x="673" 
d="M82 246v362q0 121 70.5 192.5t184.5 71.5t184.5 -69.5t70.5 -190.5v-362q0 -121 -71.5 -191.5t-185.5 -70.5t-183.5 69.5t-69.5 188.5zM229 621v-383q0 -53 29 -85t78 -32t78.5 31.5t29.5 85.5v383q0 55 -29.5 86.5t-78.5 31.5t-78 -31.5t-29 -86.5z" />
    <glyph glyph-name="oneinferior" unicode="&#x2081;" horiz-adv-x="524" 
d="M412 860v-860h-148v686l-162 -129l-71 94l258 209h123z" />
    <glyph glyph-name="twoinferior" unicode="&#x2082;" horiz-adv-x="620" 
d="M559 129v-129h-498v104l289 365q62 77 62 143t-29 96.5t-76 30.5t-74.5 -29.5t-27.5 -82.5v-45h-144v39q0 115 70 183t178 68t179.5 -63t71.5 -175t-109 -247l-207 -258h315z" />
    <glyph glyph-name="threeinferior" unicode="&#x2083;" horiz-adv-x="634" 
d="M74 618v21q0 104 67.5 168.5t170.5 64.5t171 -63.5t68 -161.5v-10q0 -121 -100 -191q113 -63 112 -196v-23q0 -104 -72.5 -171.5t-181 -67.5t-178.5 65.5t-70 171.5v35h140v-27q0 -55 28.5 -85.5t77.5 -30.5t79 31.5t30 87.5v28q0 57 -30 90t-81 33h-69v115h69
q45 0 71.5 28.5t26.5 79.5v27q0 47 -26.5 75.5t-69.5 28.5t-68.5 -26.5t-25.5 -75.5v-21h-139z" />
    <glyph glyph-name="fourinferior" unicode="&#x2084;" horiz-adv-x="641" 
d="M502 860v-545h98v-114h-98v-201h-142v201h-319v118l315 541h146zM360 315v344l-202 -344h202z" />
    <glyph glyph-name="fiveinferior" unicode="&#x2085;" horiz-adv-x="636" 
d="M541 729h-322v-192q47 47 136 47t149.5 -63.5t60.5 -172.5v-100q0 -119 -68.5 -189.5t-180.5 -70.5t-178 67.5t-66 184.5v14h143v-25q0 -51 27.5 -79.5t75 -28.5t74 29.5t26.5 82.5v113q0 51 -27 81t-71 30t-68.5 -19.5t-28.5 -38.5l-4 -18h-135v479h457v-131z" />
    <glyph glyph-name="sixinferior" unicode="&#x2086;" horiz-adv-x="665" 
d="M369 559q102 0 163.5 -66.5t61.5 -183.5v-49q0 -125 -72.5 -198.5t-189.5 -73.5t-188.5 71.5t-71.5 196.5v27q0 109 47 196l203 381h155l-176 -315q33 14 68 14zM446 246v67q0 59 -29.5 92t-82.5 33t-84 -32.5t-31 -92.5v-67q0 -59 31 -92t84 -33t82.5 33t29.5 92z" />
    <glyph glyph-name="seveninferior" unicode="&#x2087;" horiz-adv-x="602" 
d="M61 727v133h480v-108l-271 -752h-153l268 727h-324z" />
    <glyph glyph-name="eightinferior" unicode="&#x2088;" horiz-adv-x="677" 
d="M219 270v-28q0 -61 32 -95t87 -34t88 33.5t33 95.5v28q0 61 -33 96t-87 35t-87 -35t-33 -96zM90 635v12q0 96 71.5 160.5t178 64.5t177.5 -63.5t71 -157.5v-12q0 -117 -96 -180q115 -72 114 -207v-12q0 -111 -76.5 -181.5t-192.5 -70.5t-190.5 68.5t-74.5 179.5v12
q0 139 112 209q-94 63 -94 178zM238 643v-27q0 -47 27.5 -76.5t72.5 -29.5t73.5 29.5t28.5 76.5v27q0 45 -28.5 75t-73.5 30t-72.5 -30t-27.5 -75z" />
    <glyph glyph-name="nineinferior" unicode="&#x2089;" horiz-adv-x="665" 
d="M297 301q-102 0 -163.5 66.5t-61.5 183.5v49q0 125 72.5 198.5t189.5 73.5t188.5 -71.5t71.5 -196.5v-26q0 -109 -47 -197l-203 -381h-156l177 315q-33 -14 -68 -14zM219 614v-67q0 -59 30 -92t83 -33t83.5 32.5t30.5 92.5v67q0 59 -30.5 92t-83.5 33t-83 -33t-30 -92z
" />
    <glyph glyph-name="Euro" unicode="&#x20ac;" horiz-adv-x="1077" 
d="M782 379v31h203v-29q0 -184 -109.5 -292.5t-285.5 -108.5t-285.5 109.5t-109.5 297.5v133h-164v117h164v160h-164v116h164v129q0 188 111.5 300t287.5 112t283.5 -106.5t107.5 -290.5v-33h-203v31q0 98 -50 155.5t-138 57.5t-139.5 -57.5t-51.5 -155.5v-142h467v-116
h-467v-160h426v-117h-426v-141q0 -100 51.5 -156.5t139.5 -56.5t138 56.5t50 156.5z" />
    <glyph glyph-name="trademark" unicode="&#x2122;" horiz-adv-x="1306" 
d="M541 1313h-156v-525h-135v525h-158v121h449v-121zM776 788h-129v646h135l150 -355l151 355h131v-646h-131v398l-125 -291h-55l-127 293v-400z" />
    <glyph glyph-name="minus" unicode="&#x2212;" 
d="M963 633h-881v190h881v-190z" />
    <glyph glyph-name="fi" unicode="&#xfb01;" horiz-adv-x="1208" 
d="M936 1481q59 0 99 -39t40 -98.5t-40 -98.5t-99 -39t-98 40t-39 97.5t39 97.5t98 40zM829 0v1051h215v-1051h-215zM403 1120v-110h283v-164h-283v-846h-208v846h-164v164h164v137q0 150 79.5 228.5t211.5 78.5t198 -24l23 -9l-27 -161q-55 18 -123 18q-154 0 -154 -158z
" />
    <glyph glyph-name="fl" unicode="&#xfb02;" horiz-adv-x="1208" 
d="M860 0v1434h215v-1434h-215zM403 1120v-110h283v-164h-283v-846h-208v846h-164v164h164v137q0 150 79.5 228.5t211.5 78.5t198 -24l23 -9l-27 -161q-55 18 -123 18q-154 0 -154 -158z" />
    <glyph glyph-name="one.onum" horiz-adv-x="792" 
d="M639 1311v-1311h-207v1057l-291 -226l-100 142l424 338h174z" />
    <glyph glyph-name="two.onum" horiz-adv-x="962" 
d="M870 184v-184h-778v143l455 527q115 131 115 262q0 96 -50.5 152.5t-134.5 56.5t-134 -56.5t-50 -152.5v-62h-201v54q0 186 108.5 296.5t278.5 110.5t280.5 -105.5t110.5 -271.5q1 -201 -200 -428l-301 -342h501z" />
    <glyph glyph-name="three.onum" horiz-adv-x="950" 
d="M102 932v43q0 156 106.5 256t267.5 100t266.5 -95t105.5 -243v-16q0 -92 -44 -170t-122 -123q86 -43 136 -125t50 -184v-35q0 -158 -112.5 -259t-283.5 -101t-280.5 101t-109.5 265v64h194v-48q0 -92 52.5 -148t140.5 -56t139 56t51 148v35q0 92 -51 148.5t-145 56.5
h-103v156h103q80 0 128 50t48 132v31q0 80 -47 130t-123 50t-124 -51t-48 -133v-35h-195z" />
    <glyph glyph-name="four.onum" horiz-adv-x="1024" 
d="M788 1311v-856h164v-158h-164v-297h-198v297h-518v164l514 850h202zM590 455v573l-348 -573h348z" />
    <glyph glyph-name="five.onum" horiz-adv-x="976" 
d="M834 1126h-523v-323q84 88 230 88t239.5 -98.5t93.5 -264.5v-147q0 -184 -108.5 -292.5t-281.5 -108.5t-277.5 106.5t-104.5 290.5v22h203v-26q0 -94 48 -149.5t132 -55.5t133.5 55.5t49.5 149.5v139q0 92 -50.5 145.5t-132.5 53.5q-114 0 -143.5 -57.5t-32.5 -80.5h-186
v738h711v-185z" />
    <glyph glyph-name="six.onum" horiz-adv-x="1003" 
d="M92 397v52q0 156 76 284l328 578h227l-287 -482q57 31 123 31q158 0 255 -104.5t97 -282.5v-72q0 -193 -115.5 -307t-296.5 -114t-294 112t-113 305zM299 465v-72q0 -104 54.5 -164.5t147.5 -60.5t147 60.5t54 164.5v72q0 104 -54 164.5t-147 60.5t-147.5 -60.5
t-54.5 -164.5z" />
    <glyph glyph-name="seven.onum" horiz-adv-x="880" 
d="M61 1122v189h758v-148l-440 -1163h-219l436 1122h-535z" />
    <glyph glyph-name="eight.onum" horiz-adv-x="1003" 
d="M289 401v-22q0 -100 57 -160.5t155.5 -60.5t155 60.5t56.5 160.5v22q0 100 -56.5 161t-155 61t-155.5 -61t-57 -161zM113 971v20q0 145 111.5 242.5t279.5 97.5t277.5 -95t109.5 -241v-20q0 -86 -43 -158t-117 -115q190 -100 191 -317v-20q0 -170 -121 -277.5
t-302 -107.5t-299 105t-118 275v21q0 104 50 187t138 130q-157 93 -157 273zM319 973v-21q0 -76 50.5 -127t132.5 -51t131 51.5t49 126.5v21q0 76 -49 127t-131 51t-132.5 -51t-50.5 -127z" />
    <glyph glyph-name="nine.onum" horiz-adv-x="1003" 
d="M911 913v-51q0 -156 -75 -284l-328 -578h-227l286 481q-57 -31 -123 -30q-158 0 -255 104t-97 283v71q0 193 116 307.5t297 114.5t293.5 -112.5t112.5 -305.5zM705 846v72q0 104 -54.5 164.5t-147.5 60.5t-147.5 -60.5t-54.5 -164.5v-72q0 -104 54.5 -164.5t147.5 -60.5
t147.5 60.5t54.5 164.5z" />
    <glyph glyph-name="zero.onum" horiz-adv-x="1003" 
d="M102 387v533q0 188 112 299.5t289 111.5t287.5 -109.5t110.5 -297.5v-533q0 -188 -112.5 -299.5t-289.5 -111.5t-287 109.5t-110 297.5zM311 926v-543q0 -98 51.5 -155.5t139.5 -57.5t138 57.5t50 155.5v543q0 100 -50 156.5t-138 56.5t-139.5 -56.5t-51.5 -156.5z" />
    <glyph glyph-name="numbersign.onum" horiz-adv-x="1024" 
d="M41 299v129h188l41 291h-168v129h187l43 299h141l-43 -299h240l43 299h141l-43 -299h172v-129h-190l-41 -291h170v-129h-189l-43 -299h-141l43 299h-240l-43 -299h-141l43 299h-170zM412 719l-41 -291h239l41 291h-239z" />
    <glyph glyph-name="cent.onum" horiz-adv-x="974" 
d="M682 694h201v-16q0 -162 -89 -264.5t-237 -122.5v-174h-131v172q-154 16 -244 116.5t-90 266.5v262q0 162 91 265.5t243 121.5v174h131v-174q150 -18 238 -118.5t88 -262.5v-14h-201v8q0 98 -52 155.5t-138 57.5t-139.5 -57.5t-53.5 -155.5v-256q0 -98 53.5 -155.5
t139.5 -57.5t138 57.5t52 155.5v16z" />
    <glyph glyph-name="dollar.onum" horiz-adv-x="974" 
d="M104 979q0 137 88.5 229t231.5 111v176h131v-174q150 -18 236 -114.5t86 -248.5v-16h-201v27q0 80 -51.5 131t-133.5 51t-130 -46t-48 -118t55.5 -128t203.5 -122t229.5 -159t81.5 -236t-90.5 -238.5t-237.5 -113.5v-174h-131v172q-154 16 -243 116.5t-89 255.5v50h201
v-60q0 -84 53 -137t140 -53t138.5 48t51.5 124t-54 134t-202 124t-232 159t-84 230z" />
    <glyph glyph-name="sterling.onum" horiz-adv-x="1046" 
d="M748 573h-347v-391h531v-182h-737v573h-164v127h164v230q0 184 109.5 292.5t280.5 108.5t275.5 -105.5t104.5 -287.5v-27h-201v25q0 94 -48 149.5t-132 55.5t-133.5 -55.5t-49.5 -149.5v-236h347v-127z" />
    <glyph glyph-name="Euro.onum" horiz-adv-x="1046" 
d="M764 362v37h201v-28q0 -178 -106.5 -284.5t-277.5 -106.5t-278.5 106.5t-107.5 290.5v104h-164v109h164v129h-164v108h164v103q0 184 109.5 292.5t280.5 108.5t275.5 -104.5t104.5 -282.5v-33h-201v35q0 94 -48 149.5t-132 55.5t-133.5 -55.5t-49.5 -149.5v-119h449v-108
h-449v-129h408v-109h-408v-119q0 -94 49.5 -149t133.5 -55t132 55t48 149z" />
    <glyph glyph-name="yen.onum" horiz-adv-x="1095" 
d="M438 0v334h-356v115h356v135l-20 37h-336v114h276l-317 576h242l270 -541l270 541h232l-318 -576h277v-114h-338l-19 -37v-135h357v-115h-357v-334h-219z" />
    <glyph glyph-name="florin.onum" horiz-adv-x="978" 
d="M31 553v127h254l20 260q14 180 116.5 285.5t256.5 105.5q68 0 125 -14t82 -31l22 -14l-73 -170q-53 35 -137.5 35t-130.5 -56.5t-54 -154.5l-18 -246h356v-127h-367l-65 -881h-209l67 881h-245z" />
    <glyph glyph-name="percent.onum" horiz-adv-x="1351" 
d="M999.5 395q-59.5 0 -98.5 -40t-39 -100t39 -100t98.5 -40t98.5 40t39 100t-39 100t-98.5 40zM719 252q0 119 81 198.5t201.5 79.5t199.5 -77.5t79 -196.5t-81 -197.5t-201.5 -78.5t-199.5 76.5t-79 195.5zM352.5 1032q-59.5 0 -98.5 -40t-39 -100t39 -100t98.5 -40t98 40
t38.5 100t-38.5 100t-98 40zM203 0l801 1147h143l-801 -1147h-143zM72 889q0 119 80.5 198.5t201.5 79.5t200 -77.5t79 -196.5t-81 -198t-202 -79t-199.5 77t-78.5 196z" />
    <glyph glyph-name="perthousand.onum" horiz-adv-x="2017" 
d="M1665 395q-59 0 -98 -40t-39 -100t39 -100t98 -40t98 40t39 100t-39 100t-98 40zM1384 252q0 119 81 198.5t202 79.5t200 -77.5t79 -196.5t-81 -197.5t-202 -78.5t-200 76.5t-79 195.5zM999.5 395q-59.5 0 -98.5 -40t-39 -100t39 -100t98.5 -40t98.5 40t39 100t-39 100
t-98.5 40zM719 252q0 119 81 198.5t201.5 79.5t199.5 -77.5t79 -196.5t-81 -197.5t-201.5 -78.5t-199.5 76.5t-79 195.5zM352.5 1032q-59.5 0 -98.5 -40t-39 -100t39 -100t98.5 -40t98 40t38.5 100t-38.5 100t-98 40zM203 0l801 1147h143l-801 -1147h-143zM72 889
q0 119 80.5 198.5t201.5 79.5t200 -77.5t79 -196.5t-81 -198t-202 -79t-199.5 77t-78.5 196z" />
    <glyph glyph-name="one.lnum" horiz-adv-x="1042" 
d="M981 0h-858v174h348v1004l-289 -224l-100 142l424 338h174v-1260h301v-174z" />
    <glyph glyph-name="two.lnum" 
d="M932 186v-186h-819v145l501 627q106 132 106 250t-55 179t-147 61t-147.5 -60.5t-55.5 -167.5v-67h-202v59q0 197 114.5 312.5t293.5 115.5t295 -108.5t116 -284.5q0 -109 -43 -207t-141 -219l-365 -449h549z" />
    <glyph glyph-name="three.lnum" 
d="M129 1034v31q0 174 111.5 281.5t282.5 107.5t281.5 -103.5t110.5 -267.5v-16q0 -219 -182 -322q94 -47 148.5 -135t54.5 -204v-31q0 -174 -118 -284.5t-299 -110.5t-295.5 110.5t-114.5 290.5v49h196v-31q0 -109 57.5 -171t153.5 -62t152.5 62.5t56.5 170.5v27
q0 109 -56.5 171t-158.5 62h-117v164h117q90 0 142.5 57.5t52.5 149.5v31q0 94 -52.5 150.5t-137.5 56.5t-137 -57.5t-52 -153.5v-23h-197z" />
    <glyph glyph-name="four.lnum" 
d="M809 1434v-918h164v-164h-164v-352h-201v352h-536v170l532 912h205zM608 516v627l-366 -627h366z" />
    <glyph glyph-name="five.lnum" 
d="M518 780q-158 0 -194 -145h-189v799h752v-187h-561v-387q90 102 246 102t256 -104t100 -278v-179q0 -193 -114 -307t-296 -114t-292.5 112.5t-110.5 304.5v23h204v-27q0 -102 53.5 -162.5t145.5 -60.5t146.5 60.5t54.5 162.5v170q0 100 -54.5 158.5t-146.5 58.5z" />
    <glyph glyph-name="six.lnum" 
d="M580 922q162 0 262 -107.5t100 -290.5v-112q0 -197 -117.5 -314.5t-304 -117.5t-302.5 115.5t-116 312.5v71q0 170 76 316l338 639h232l-308 -549q66 37 140 37zM731 403v113q0 109 -56.5 171.5t-152.5 62.5t-153.5 -62.5t-57.5 -171.5v-113q0 -106 57.5 -169.5
t153.5 -63.5t152.5 62t56.5 171z" />
    <glyph glyph-name="seven.lnum" 
d="M92 1243v191h860v-150l-491 -1284h-221l487 1243h-635z" />
    <glyph glyph-name="eight.lnum" 
d="M301 442v-43q0 -111 60.5 -175t159.5 -64t159.5 64.5t60.5 174.5v43q0 111 -59.5 174.5t-159.5 63.5t-160.5 -63.5t-60.5 -174.5zM123 1063v20q0 160 114.5 265.5t286.5 105.5t285 -103.5t113 -263.5v-20q0 -199 -168 -303q199 -109 198 -348v-21q0 -184 -122.5 -299.5
t-309 -115.5t-307.5 113.5t-121 297.5v21q0 242 197 348q-166 102 -166 303zM332 1075v-39q0 -86 52 -141t137 -55t137.5 55t52.5 141v39q0 86 -52.5 141.5t-137.5 55.5t-137 -55.5t-52 -141.5z" />
    <glyph glyph-name="nine.lnum" 
d="M465 512q-162 0 -262.5 107.5t-100.5 289.5v113q0 197 118 314.5t304.5 117.5t302 -115.5t115.5 -312.5v-72q0 -170 -76 -315l-338 -639h-231l307 549q-65 -37 -139 -37zM313 1030v-112q0 -109 56.5 -171.5t152.5 -62.5t153.5 62.5t57.5 171.5v112q0 106 -57.5 170
t-153.5 64t-152.5 -62.5t-56.5 -171.5z" />
    <glyph glyph-name="zero.lnum" 
d="M113 397v635q0 193 114.5 307.5t295.5 114.5t295 -112.5t114 -305.5v-635q0 -193 -116 -307t-297 -114t-293.5 112t-112.5 305zM322 1038v-645q0 -102 54 -162.5t146 -60.5t145.5 60.5t53.5 162.5v645q0 104 -53.5 164t-145.5 60t-146 -60t-54 -164z" />
    <glyph glyph-name="numbersign.lnum" 
d="M51 422v129h191l37 332h-166v129h180l49 422h141l-49 -422h240l49 422h141l-49 -422h178v-129h-192l-37 -332h168v-129h-184l-48 -422h-141l47 422h-239l-48 -422h-141l47 422h-174zM420 883l-37 -332h240l36 332h-239z" />
    <glyph glyph-name="cent.lnum" 
d="M721 786h203v-16q0 -166 -92.5 -271.5t-243.5 -127.5v-172h-131v170q-158 16 -251 120.5t-93 274.5v283q0 166 94 272t250 125v174h131v-174q154 -18 245 -121.5t91 -269.5v-15h-203v9q0 102 -54.5 161.5t-145.5 59.5t-145 -59.5t-54 -161.5v-277q0 -102 54 -161.5
t145 -59.5t145.5 59.5t54.5 161.5v16z" />
    <glyph glyph-name="dollar.lnum" 
d="M133 1077q0 147 90 246.5t240 118.5v176h131v-174q154 -16 243 -120.5t89 -272.5v-37h-203v45q0 96 -52.5 152.5t-139.5 56.5t-137 -51.5t-50 -134.5t63.5 -148.5t198.5 -132.5q326 -164 326 -436q0 -154 -93.5 -254.5t-244.5 -120.5v-174h-131v172q-158 18 -250 124.5
t-92 278.5v60h203v-68q0 -98 55 -157.5t147 -59.5t144.5 53t52.5 139t-62.5 153.5t-197.5 135.5q-330 174 -330 430z" />
    <glyph glyph-name="sterling.lnum" 
d="M748 635h-365v-451h549v-184h-758v635h-143v127h143v280q0 188 111.5 300t287.5 112t284 -108.5t108 -294.5v-37h-203v35q0 100 -50 156.5t-138.5 56.5t-139.5 -56.5t-51 -156.5v-287h365v-127z" />
    <glyph glyph-name="Euro.lnum" 
d="M762 379v31h203v-29q0 -184 -110 -292.5t-286 -108.5t-285.5 109.5t-109.5 297.5v133h-143v117h143v160h-143v116h143v129q0 188 111.5 300t287.5 112t284 -106.5t108 -290.5v-33h-203v31q0 98 -50 155.5t-138.5 57.5t-139.5 -57.5t-51 -155.5v-142h467v-116h-467v-160
h426v-117h-426v-141q0 -100 51 -156.5t139.5 -56.5t138.5 56.5t50 156.5z" />
    <glyph glyph-name="yen.lnum" 
d="M414 0v393h-332v119h332v133l-17 35h-315v119h262l-303 635h244l243 -557l244 557h232l-304 -635h263v-119h-316l-14 -35v-133h330v-119h-330v-393h-219z" />
    <glyph glyph-name="florin.lnum" 
d="M51 608v133h254l25 316q14 184 118.5 290.5t264.5 106.5q70 0 130 -14.5t85 -30.5l24 -14l-73 -172q-55 35 -145 35q-178 -1 -195 -214l-23 -303h365v-133h-375l-72 -936h-209l70 936h-244z" />
    <glyph glyph-name="percent.lnum" horiz-adv-x="1462" 
d="M203 0l907 1434h150l-908 -1434h-149zM386 1313q-71 0 -118 -49.5t-47 -121t47 -119.5t118 -48t118 48t47 119.5t-47 121t-118 49.5zM389 1454q135 0 224 -87t89 -221t-91 -223t-226 -89t-224 87t-89 221t91 223t226 89zM1077 600q135 0 224.5 -87t89.5 -222t-91.5 -223
t-226.5 -88t-224 86t-89 221t91 224t226 89zM1076 457q-71 0 -118 -48.5t-47 -120t47.5 -119.5t117.5 -48t117.5 48t47.5 119.5t-47 120t-118 48.5z" />
    <glyph glyph-name="perthousand.lnum" horiz-adv-x="2211" 
d="M203 0l907 1434h150l-908 -1434h-149zM386 1313q-71 0 -118 -49.5t-47 -121t47 -119.5t118 -48t118 48t47 119.5t-47 121t-118 49.5zM389 1454q135 0 224 -87t89 -221t-91 -223t-226 -89t-224 87t-89 221t91 223t226 89zM1077 600q135 0 224.5 -87t89.5 -222t-91.5 -223
t-226.5 -88t-224 86t-89 221t91 224t226 89zM1076 457q-71 0 -118 -48.5t-47 -120t47.5 -119.5t117.5 -48t117.5 48t47.5 119.5t-47 120t-118 48.5zM1509 287q0 135 91.5 224t226.5 89t224 -87t89 -222t-91 -223t-226 -88t-224.5 86t-89.5 221zM1824.5 457
q-69.5 0 -116.5 -48.5t-47 -120t47 -119.5t116.5 -48t117 48t47.5 119.5t-47.5 120t-117 48.5z" />
    <glyph glyph-name="numbersignsuperior" horiz-adv-x="675" 
d="M51 819v92h111l20 185h-94v92h105l28 246h101l-29 -246h131l29 246h100l-29 -246h101v-92h-111l-20 -185h94v-92h-107l-26 -246h-101l27 246h-131l-27 -246h-100l27 246h-99zM283 1096l-21 -185h131l21 185h-131z" />
    <glyph glyph-name="centsuperior" horiz-adv-x="647" 
d="M434 1047h141v-9q0 -100 -55 -163.5t-147 -77.5v-105h-97v103q-94 12 -149 76.5t-55 168.5v152q0 102 55 166.5t149 79.5v106h97v-106q94 -12 148 -75t54 -163v-6h-141v6q0 53 -29.5 84t-79 31t-78 -30t-28.5 -85v-166q0 -55 28.5 -84.5t78 -29.5t79 30.5t29.5 83.5v13z
" />
    <glyph glyph-name="dollarsuperior" horiz-adv-x="647" 
d="M276 1544h97v-106q92 -12 145 -75t53 -163v-20h-143v28q0 51 -27.5 80t-73.5 29t-74 -25.5t-28 -70.5t37 -83t117 -79q197 -98 196 -266q0 -92 -55 -152.5t-147 -73.5v-104h-97v102q-96 14 -150 78t-54 168v35h141v-43q0 -51 30.5 -83t80 -32t77 27.5t27.5 74.5t-36 86
t-116 80q-199 100 -198 263q0 86 54 145t144 74v106z" />
    <glyph glyph-name="sterlingsuperior" horiz-adv-x="681" 
d="M492 944h-216v-242h326v-129h-473v371h-98v96h98v148q0 119 69.5 188.5t179.5 69.5t176.5 -67.5t66.5 -182.5v-16h-142v22q0 51 -27.5 81t-74.5 30t-74 -30t-27 -81v-162h216v-96z" />
    <glyph glyph-name="Eurosuperior" horiz-adv-x="681" 
d="M479 801v20h142v-14q0 -115 -68 -180.5t-178.5 -65.5t-178 67.5t-67.5 184.5v68h-98v80h98v86h-98v79h98v62q0 119 68.5 188.5t180.5 69.5t177.5 -64.5t65.5 -177.5v-18h-142v20q0 109 -101 109t-102 -109v-80h277v-79h-277v-86h252v-80h-252v-80q0 -111 102 -111
t101 111z" />
    <glyph glyph-name="yensuperior" horiz-adv-x="702" 
d="M274 573v234h-219v86h219v68l-10 18h-209v86h166l-190 369h168l155 -340l156 340h162l-193 -369h166v-86h-209l-8 -18v-68h217v-86h-217v-234h-154z" />
    <glyph glyph-name="florinsuperior" horiz-adv-x="620" 
d="M31 932v96h153l15 170q8 115 72.5 181.5t161.5 66.5t157 -35l-47 -123q-39 20 -91 20q-100 1 -108 -108l-12 -172h215v-96h-223l-41 -555h-148l43 555h-147z" />
    <glyph glyph-name="percentsuperior" horiz-adv-x="948" 
d="M150 573l542 861h107l-543 -861h-106zM684 938q82 0 137.5 -54t55.5 -134t-56.5 -134.5t-139.5 -54.5t-137.5 53.5t-54.5 134.5t56.5 135t138.5 54zM683 840q-38 0 -63.5 -26t-25.5 -64.5t25.5 -63t63.5 -24.5t62.5 25.5t24.5 63.5t-24.5 63.5t-62.5 25.5zM266 1446
q82 0 137.5 -54t55.5 -134t-56.5 -134.5t-139.5 -54.5t-137 53.5t-54 133.5t56 135t138 55zM265 1348q-38 0 -63.5 -26t-25.5 -64.5t25.5 -63.5t63.5 -25t62.5 25.5t24.5 63.5t-24.5 64t-62.5 26z" />
    <glyph glyph-name="perthousandsuperior" horiz-adv-x="1388" 
d="M150 573l542 861h107l-543 -861h-106zM1125 938q83 0 137.5 -52t54.5 -134t-55.5 -136.5t-138.5 -54.5t-137 53.5t-54 135t55 135t138 53.5zM1123 840q-38 0 -63.5 -26t-25.5 -64.5t25.5 -63t63.5 -24.5t63.5 24.5t25.5 63t-25.5 64.5t-63.5 26zM684 938q82 0 137.5 -54
t55.5 -134t-56.5 -134.5t-139.5 -54.5t-137.5 53.5t-54.5 134.5t56.5 135t138.5 54zM683 840q-38 0 -63.5 -26t-25.5 -64.5t25.5 -63t63.5 -24.5t62.5 25.5t24.5 63.5t-24.5 63.5t-62.5 25.5zM266 1446q82 0 137.5 -54t55.5 -134t-56.5 -134.5t-139.5 -54.5t-137 53.5
t-54 133.5t56 135t138 55zM265 1348q-38 0 -63.5 -26t-25.5 -64.5t25.5 -63.5t63.5 -25t62.5 25.5t24.5 63.5t-24.5 64t-62.5 26z" />
    <glyph glyph-name="G.ss01" horiz-adv-x="1167" 
d="M1044 752v-613l-14 -14t-110 -79.5t-318 -65.5q-223 0 -351 123.5t-128 342.5v533q0 217 128 346t336 129t332.5 -126t124.5 -343v-29h-221v27q0 129 -63.5 201.5t-176 72.5t-177 -72.5t-64.5 -201.5v-528q0 -135 68.5 -210t197.5 -75q72 0 130.5 19.5t80.5 39.5l21 19
v340h-246v164h450z" />
    <glyph glyph-name="Gbreve.ss01" horiz-adv-x="1167" 
d="M295 1884h145v-63q0 -66 39 -107t104.5 -41t103.5 41t38 107v63h147v-53q0 -127 -80.5 -206t-208.5 -79t-208 78t-80 205v55zM1044 752v-613l-14 -14q-14 -14 -110 -79.5t-318 -65.5q-223 0 -351 123.5t-128 342.5v533q0 217 128 346t336 129t332.5 -126t124.5 -343v-29
h-221v27q0 129 -63.5 201.5t-176 72.5t-177 -72.5t-64.5 -201.5v-528q0 -135 68.5 -210t197.5 -75q72 0 130.5 19.5t80.5 39.5l21 19v340h-246v164h450z" />
    <glyph glyph-name="Gcommaaccent.ss01" horiz-adv-x="1167" 
d="M362 -440l127 338h218l-185 -338h-160zM1044 752v-613l-14 -14t-110 -79.5t-318 -65.5q-223 0 -351 123.5t-128 342.5v533q0 217 128 346t336 129t332.5 -126t124.5 -343v-29h-221v27q0 129 -63.5 201.5t-176 72.5t-177 -72.5t-64.5 -201.5v-528q0 -135 68.5 -210
t197.5 -75q72 0 130.5 19.5t80.5 39.5l21 19v340h-246v164h450z" />
    <glyph glyph-name="Gdotaccent.ss01" horiz-adv-x="1167" 
d="M583.5 1825q51.5 0 85 -34t33.5 -85t-34.5 -85t-86 -34t-85 34t-33.5 85t34.5 85t86 34zM1044 752v-613l-14 -14t-110 -79.5t-318 -65.5q-223 0 -351 123.5t-128 342.5v533q0 217 128 346t336 129t332.5 -126t124.5 -343v-29h-221v27q0 129 -63.5 201.5t-176 72.5
t-177 -72.5t-64.5 -201.5v-528q0 -135 68.5 -210t197.5 -75q72 0 130.5 19.5t80.5 39.5l21 19v340h-246v164h450z" />
    <glyph glyph-name="Gcircumflex.ss01" horiz-adv-x="1167" 
d="M250 1546l246 338h174l245 -338h-174l-163 199l-162 -199h-166zM1044 752v-613l-14 -14t-110 -79.5t-318 -65.5q-223 0 -351 123.5t-128 342.5v533q0 217 128 346t336 129t332.5 -126t124.5 -343v-29h-221v27q0 129 -63.5 201.5t-176 72.5t-177 -72.5t-64.5 -201.5v-528
q0 -135 68.5 -210t197.5 -75q72 0 130.5 19.5t80.5 39.5l21 19v340h-246v164h450z" />
    <glyph glyph-name="a.ss01" horiz-adv-x="1064" 
d="M942 1051v-1051h-184l-10 123q-92 -143 -272 -143t-277 101t-97 284v313q0 184 99.5 288.5t278.5 104.5t268 -139l10 119h184zM731 397v256q0 106 -57.5 169t-152.5 63t-152.5 -62.5t-57.5 -169.5v-256q0 -109 57.5 -170t152.5 -61t152.5 61t57.5 170z" />
    <glyph glyph-name="agrave.ss01" horiz-adv-x="1064" 
d="M516 1516l127 -338h-160l-184 338h217zM942 1051v-1051h-184l-10 123q-92 -143 -272 -143t-277 101t-97 284v313q0 184 99.5 288.5t278.5 104.5t268 -139l10 119h184zM731 397v256q0 106 -57.5 169t-152.5 63t-152.5 -62.5t-57.5 -169.5v-256q0 -109 57.5 -170t152.5 -61
t152.5 61t57.5 170z" />
    <glyph glyph-name="aacute.ss01" horiz-adv-x="1064" 
d="M469 1178l127 338h217l-184 -338h-160zM942 1051v-1051h-184l-10 123q-92 -143 -272 -143t-277 101t-97 284v313q0 184 99.5 288.5t278.5 104.5t268 -139l10 119h184zM731 397v256q0 106 -57.5 169t-152.5 63t-152.5 -62.5t-57.5 -169.5v-256q0 -109 57.5 -170t152.5 -61
t152.5 61t57.5 170z" />
    <glyph glyph-name="acircumflex.ss01" horiz-adv-x="1064" 
d="M223 1178l246 338h174l246 -338h-174l-164 198l-162 -198h-166zM942 1051v-1051h-184l-10 123q-92 -143 -272 -143t-277 101t-97 284v313q0 184 99.5 288.5t278.5 104.5t268 -139l10 119h184zM731 397v256q0 106 -57.5 169t-152.5 63t-152.5 -62.5t-57.5 -169.5v-256
q0 -109 57.5 -170t152.5 -61t152.5 61t57.5 170z" />
    <glyph glyph-name="atilde.ss01" horiz-adv-x="1064" 
d="M441 1475q56 0 101.5 -35t80 -69t67.5 -34t50.5 29t21.5 57l2 29l123 -8q0 -84 -31 -137.5t-69.5 -80t-88.5 -26.5q-94 0 -150.5 69.5t-107.5 69.5q-31 0 -48 -28.5t-19 -57.5l-2 -28l-123 8q0 82 29.5 135t68.5 80t95 27zM942 1051v-1051h-184l-10 123
q-92 -143 -272 -143t-277 101t-97 284v313q0 184 99.5 288.5t278.5 104.5t268 -139l10 119h184zM731 397v256q0 106 -57.5 169t-152.5 63t-152.5 -62.5t-57.5 -169.5v-256q0 -109 57.5 -170t152.5 -61t152.5 61t57.5 170z" />
    <glyph glyph-name="adieresis.ss01" horiz-adv-x="1064" 
d="M368.5 1458q51.5 0 85 -33.5t33.5 -85t-33.5 -85t-85.5 -33.5t-85 32.5t-33 84.5t33.5 86t85 34zM745.5 1458q51.5 0 85 -33.5t33.5 -85t-34 -85t-86 -33.5t-84.5 32.5t-32.5 84.5t33.5 86t85 34zM942 1051v-1051h-184l-10 123q-92 -143 -272 -143t-277 101t-97 284v313
q0 184 99.5 288.5t278.5 104.5t268 -139l10 119h184zM731 397v256q0 106 -57.5 169t-152.5 63t-152.5 -62.5t-57.5 -169.5v-256q0 -109 57.5 -170t152.5 -61t152.5 61t57.5 170z" />
    <glyph glyph-name="aring.ss01" horiz-adv-x="1064" 
d="M557 1278q43 0 71.5 28.5t28.5 71.5t-28.5 71t-71.5 28t-72.5 -29t-29.5 -71t29.5 -70.5t72.5 -28.5zM556 1573q89 0 147.5 -55.5t58.5 -139.5t-58.5 -139t-146.5 -55t-146.5 54t-58.5 139t57.5 140.5t146.5 55.5zM942 1051v-1051h-184l-10 123q-92 -143 -272 -143
t-277 101t-97 284v313q0 184 99.5 288.5t278.5 104.5t268 -139l10 119h184zM731 397v256q0 106 -57.5 169t-152.5 63t-152.5 -62.5t-57.5 -169.5v-256q0 -109 57.5 -170t152.5 -61t152.5 61t57.5 170z" />
    <glyph glyph-name="abreve.ss01" horiz-adv-x="1064" 
d="M274 1516h146v-64q0 -66 39 -106.5t104.5 -40.5t103.5 40.5t38 106.5v64h147v-54q0 -127 -81 -205.5t-209 -78.5t-208 77.5t-80 204.5v56zM942 1051v-1051h-184l-10 123q-92 -143 -272 -143t-277 101t-97 284v313q0 184 99.5 288.5t278.5 104.5t268 -139l10 119h184z
M731 397v256q0 106 -57.5 169t-152.5 63t-152.5 -62.5t-57.5 -169.5v-256q0 -109 57.5 -170t152.5 -61t152.5 61t57.5 170z" />
    <glyph glyph-name="amacron.ss01" horiz-adv-x="1064" 
d="M246 1239v133h635v-133h-635zM942 1051v-1051h-184l-10 123q-92 -143 -272 -143t-277 101t-97 284v313q0 184 99.5 288.5t278.5 104.5t268 -139l10 119h184zM731 397v256q0 106 -57.5 169t-152.5 63t-152.5 -62.5t-57.5 -169.5v-256q0 -109 57.5 -170t152.5 -61t152.5 61
t57.5 170z" />
    <glyph glyph-name="aogonek.ss01" horiz-adv-x="1064" 
d="M731 397v256q0 106 -57.5 169t-152.5 63t-152.5 -62.5t-57.5 -169.5v-256q0 -109 57.5 -170t152.5 -61t152.5 61t57.5 170zM954 -238q55 0 101 17l20 -127q-43 -31 -145 -31t-180 68.5t-78 176.5t82 177l-6 80q-92 -143 -272 -143t-277 101t-97 284v313q0 184 99.5 288.5
t278.5 104.5t268 -139l10 119h184v-1051h-76q-49 -32 -49 -100t41 -103t96 -35z" />
    <glyph glyph-name="aringacute.ss01" horiz-adv-x="1064" 
d="M506 1083q43 0 71.5 29t28.5 72t-28.5 70.5t-71.5 27.5t-73 -28.5t-30 -70.5t30 -71t73 -29zM731 397v256q0 106 -57.5 169t-152.5 63t-152.5 -62.5t-57.5 -169.5v-256q0 -109 57.5 -170t152.5 -61t152.5 61t57.5 170zM942 1051v-1051h-184l-10 123q-92 -143 -272 -143
t-277 101t-97 284v313q0 147 64.5 244.5t181.5 132.5q-47 51 -47 128t49 130t127 63l60 160h217l-111 -205q68 -57 68 -150t-72 -149q68 -39 109 -100l10 119h184z" />
    <glyph glyph-name="K.ss01" horiz-adv-x="1105" 
d="M143 0v1434h219v-711l449 711h254l-401 -617l442 -817h-248l-340 627l-156 -226v-401h-219z" />
    <glyph glyph-name="Kcommaaccent.ss01" horiz-adv-x="1105" 
d="M373 -440l127 338h217l-185 -338h-159zM143 0v1434h219v-711l449 711h254l-401 -617l442 -817h-248l-340 627l-156 -226v-401h-219z" />
    <glyph glyph-name="k.ss01" horiz-adv-x="1013" 
d="M123 0v1434h209v-856l407 473h265l-367 -422l387 -629h-250l-293 469l-149 -160v-309h-209z" />
    <glyph glyph-name="kcommaaccent.ss01" horiz-adv-x="1013" 
d="M311 -440l127 338h217l-184 -338h-160zM123 0v1434h209v-856l407 473h265l-367 -422l387 -629h-250l-293 469l-149 -160v-309h-209z" />
    <glyph glyph-name="Sarcasm" horiz-adv-x="1103" 
d="M551 256q59 0 99 -40t40 -99.5t-40 -98t-99 -38.5t-98 38.5t-39 98t39 99.5t98 40zM371 426l-279 967l236 61l186 -989zM1012 1393l-279 -967l-143 39l186 989z" />
    </font>
</defs>
</svg>
