<?xml version="1.0" standalone="no"?>
<!DOCTYPE svg PUBLIC "-//W3C//DTD SVG 1.1//EN" "http://www.w3.org/Graphics/SVG/1.1/DTD/svg11.dtd" >
<svg xmlns="http://www.w3.org/2000/svg">
<metadata>
Created by FontPrep 20130207 at Tue Nov 24 16:31:25 2015
 By Brandon
Copyright (c) 2014 by Richard Miller. All rights reserved.
</metadata>
<defs>
<font id="340689ce72806d46ffce501c63ceb443" horiz-adv-x='1024' >
  <font-face 
    font-family="UniformCondensed"
    font-weight="400"
    font-stretch="condensed"
    units-per-em="2048"
    panose-1="2 0 0 0 0 0 0 0 0 0"
    ascent="1536"
    descent="-512"
    x-height="1042"
    cap-height="1434"
    bbox="-389 -436 2130 1946"
    underline-thickness="102"
    underline-position="-102"
    unicode-range="U+0020-FB02"
  />
<missing-glyph horiz-adv-x="1415" 
d="M780 717l326 323l-74 74l-325 -323l-324 325l-74 -74l324 -325l-326 -326l74 -74l326 326l325 -326l74 74zM41 0v1434h1333v-1434h-1333z" />
    <glyph glyph-name="ellipsis" unicode="&#x2e;&#x2e;&#x2e;" horiz-adv-x="1282" 
d="M1096 188q44 0 74 -30t30 -74q0 -45 -30 -75q-30 -29 -74 -29t-75 30q-30 30 -30 74t30 74t75 30zM641 188q45 0 75 -30t30 -74q0 -45 -30 -75q-30 -29 -75 -29t-75 30t-29 74q0 45 29 75q30 29 75 29zM186 188q45 0 75 -30t30 -74q0 -45 -30 -75q-30 -29 -75 -29
q-44 0 -74 30t-30 74t30 74t74 30z" />
    <glyph glyph-name="ff" unicode="ff" horiz-adv-x="1300" 
d="M360 1145v-144h316v-116h-316v-885h-145v885h-174v116h174v156q0 143 76 220t196 77t189 -24l20 -9l-22 -114q-63 20 -133 20q-181 0 -181 -182zM944 1126v-125h316v-116h-316v-885h-145v1137q-1 157 75 237t200 80q123 0 183 -24l23 -9l-23 -114q-63 20 -143 20
q-170 0 -170 -201z" />
    <glyph glyph-name="ft" unicode="ft" horiz-adv-x="1320" 
d="M360 1145v-144h316v-116h-316v-885h-145v885h-174v116h174v156q0 143 76 220t196 77t189 -24l20 -9l-22 -114q-63 20 -133 20q-181 0 -181 -182zM799 1311h145v-269h326v-116h-326v-650q0 -166 162 -165q51 0 141 20l23 -121q-80 -30 -204 -30t-196 72t-71 204v1055z" />
    <glyph glyph-name="rf" unicode="rf" horiz-adv-x="1271" 
d="M143 0v1042h127l11 -188q100 209 366 209v-143h-53q-139 0 -222 -88t-83 -267v-565h-146zM915 1126v-125h316v-116h-316v-885h-145v1137q0 157 76 237t198 80t185 -24l22 -9l-22 -114q-63 20 -143 20q-171 0 -171 -201z" />
    <glyph glyph-name="rt" unicode="rt" horiz-adv-x="1292" 
d="M143 0v1042h127l11 -188q100 209 366 209v-143h-53q-143 0 -224 -92t-81 -279v-549h-146zM770 256v1055h145v-269h326v-116h-326v-650q0 -166 162 -165q47 0 142 20l22 -121q-80 -30 -204 -30q-123 0 -195 72t-72 204z" />
    <glyph glyph-name="tf" unicode="tf" horiz-adv-x="1310" 
d="M360 1311v-269h326v-116h-326v-650q0 -166 162 -165q73 0 121 16l21 4l22 -121q-80 -30 -204 -30t-196 72t-71 204v670h-174v116h174v269h145zM954 1126v-125h316v-116h-316v-885h-145v1137q0 157 76 237t196 80t189 -24l20 -9l-22 -114q-63 20 -143 20q-171 0 -171 -201
z" />
    <glyph glyph-name="tt" unicode="tt" horiz-adv-x="1331" 
d="M360 1311v-269h326v-116h-326v-650q0 -166 162 -165q73 0 121 16l21 4l22 -121q-80 -30 -204 -30t-196 72t-71 204v670h-174v116h174v269h145zM809 256v1055h145v-269h326v-116h-326v-650q0 -166 162 -165q41 0 141 20l23 -121q-80 -30 -204 -30t-196 72t-71 204z" />
    <glyph glyph-name="rtf" unicode="rtf" horiz-adv-x="1865" 
d="M1509 1126v-125h316v-116h-316v-885h-145v1137q0 157 76 237t198 80t185 -24l22 -9l-22 -114q-63 20 -143 20q-171 0 -171 -201zM143 0v1042h127l11 -188q100 209 366 209v-143h-53q-143 0 -224 -92t-81 -279v-549h-146zM770 256v1055h145v-269h326v-116h-326v-650
q0 -166 162 -165q47 0 142 20l22 -121q-80 -30 -204 -30q-123 0 -195 72t-72 204z" />
    <glyph glyph-name=".notdef" horiz-adv-x="1415" 
d="M780 717l326 323l-74 74l-325 -323l-324 325l-74 -74l324 -325l-326 -326l74 -74l326 326l325 -326l74 74zM41 0v1434h1333v-1434h-1333z" />
    <glyph glyph-name=".null" horiz-adv-x="0" 
 />
    <glyph glyph-name="nonmarkingreturn" horiz-adv-x="681" 
 />
    <glyph glyph-name="space" unicode=" " horiz-adv-x="458" 
 />
    <glyph glyph-name="exclam" unicode="!" horiz-adv-x="516" 
d="M258 188q45 0 75 -30q29 -30 29 -74q0 -45 -30 -75q-30 -29 -74 -29q-45 0 -75 30t-29 74q0 45 29 75q30 29 75 29zM207 430l-35 1004h174l-37 -1004h-102z" />
    <glyph glyph-name="quotedbl" unicode="&#x22;" horiz-adv-x="604" 
d="M502 946h-123v488h123v-488zM225 946h-123v488h123v-488z" />
    <glyph glyph-name="numbersign" unicode="#" horiz-adv-x="1034" 
d="M51 346v96h199l47 344h-184v97h196l47 346h107l-47 -346h272l47 346h107l-47 -346h188v-97h-201l-47 -344h187v-96h-199l-45 -346h-107l45 346h-272l-45 -346h-106l45 346h-187zM403 786l-47 -344h273l47 344h-273z" />
    <glyph glyph-name="dollar" unicode="$" horiz-adv-x="1017" 
d="M137 1096q0 142 89 240q89 97 235 112v170h102v-170q152 -14 239 -114t87 -265v-41h-139v45q0 115 -65 183t-172 67q-107 0 -169 -62q-62 -63 -61 -161t73 -173t220 -152t233 -178q86 -101 86 -250t-90 -247t-242 -114v-170h-102v170q-158 14 -248 116t-90 273v59h139
v-63q0 -119 68 -190t180 -71t176 66q64 64 64 167t-71 180t-217 154t-236 177q-89 100 -89 242z" />
    <glyph glyph-name="percent" unicode="%" horiz-adv-x="1351" 
d="M356 1145q-70 0 -116 -48t-45 -120q0 -72 46 -120q45 -48 115 -48t117 48t47 120t-47 120t-117 48zM217 0l803 1229h113l-801 -1229h-115zM358 1249q117 0 196 -77q79 -78 79 -194t-81 -195t-198 -79q-116 0 -194 78q-78 76 -78 193t80 195t196 79zM719 249q0 117 80 195
q81 78 197 78t195 -77t79 -193t-81 -194t-198 -78t-195 76t-77 193zM994 418q-71 0 -118 -47t-47 -120q-1 -73 47 -120t118 -47t117 47q46 47 46 120t-46 120t-117 47z" />
    <glyph glyph-name="ampersand" unicode="&#x26;" horiz-adv-x="1222" 
d="M342 1162q0 -74 31 -140t106 -160q115 80 164 147t49 143t-48 129q-48 52 -127 52t-127 -49t-48 -122zM455 109q158 0 282 200l13 21l-308 370q-221 -162 -221 -342q0 -106 66 -178t168 -71zM823 1169q-1 -117 -69 -210t-199 -187l266 -323l226 370h145l-287 -473
l287 -346h-166l-192 229q-160 -250 -392 -249q-160 0 -260 103t-100 249t70 252t213 211q-160 203 -160 366q0 125 89 209t224 84t220 -84t85 -201z" />
    <glyph glyph-name="quotesingle" unicode="'" horiz-adv-x="327" 
d="M225 946h-123v488h123v-488z" />
    <glyph glyph-name="parenleft" unicode="(" horiz-adv-x="735" 
d="M113 687q0 295 93 494q93 198 192 300q100 102 163 141l27 16l76 -96q-58 -36 -136 -119q-78 -82 -132 -169t-98 -232t-44 -305t42 -304q42 -143 102 -235q126 -192 225 -260l41 -29l-76 -94q-65 36 -157 124q-91 87 -153 183t-114 260q-51 164 -51 325z" />
    <glyph glyph-name="parenright" unicode=")" horiz-adv-x="735" 
d="M481 717q0 160 -42 304t-102 235q-121 184 -222 260l-43 28l75 94q17 -10 51 -32t116 -100q82 -79 144 -175t113 -260q51 -165 51 -325t-26 -284q-27 -124 -69 -214q-90 -193 -192 -297t-161 -139l-27 -17l-75 96q59 37 136 119t131 169t98 233t44 305z" />
    <glyph glyph-name="asterisk" unicode="*" horiz-adv-x="890" 
d="M506 1434l-17 -301l283 106l37 -115l-289 -80l187 -235l-97 -70l-166 248l-163 -248l-97 70l185 235l-287 80l35 115l282 -106l-14 301h121z" />
    <glyph glyph-name="plus" unicode="+" horiz-adv-x="1034" 
d="M578 1190v-402h374v-118h-374v-400h-121v400h-375v118h375v402h121z" />
    <glyph glyph-name="comma" unicode="," horiz-adv-x="358" 
d="M203 -266h-121l33 485h161z" />
    <glyph glyph-name="hyphen" unicode="-" horiz-adv-x="737" 
d="M655 657h-573v140h573v-140z" />
    <glyph glyph-name="period" unicode="." horiz-adv-x="372" 
d="M186 188q45 0 75 -30t30 -74q0 -45 -30 -75q-30 -29 -75 -29q-44 0 -74 30t-30 74t30 74t74 30z" />
    <glyph glyph-name="slash" unicode="/" horiz-adv-x="837" 
d="M0 -164l707 1761h131l-707 -1761h-131z" />
    <glyph glyph-name="zero" unicode="0" horiz-adv-x="1034" 
d="M127 381v666q-1 187 107 297t284 110t282 -108q105 -109 105 -295v-666q1 -186 -107 -296q-108 -109 -284 -109t-282 107q-105 108 -105 294zM272 1053v-672q0 -123 66 -196t178 -73t178 74q66 72 66 195v672q0 123 -66 195t-178 73q-112 -1 -178 -73t-66 -195z" />
    <glyph glyph-name="one" unicode="1" horiz-adv-x="800" 
d="M606 1434v-1434h-145v1247l-336 -266l-74 98l438 355h117z" />
    <glyph glyph-name="two" unicode="2" horiz-adv-x="1003" 
d="M881 131v-131h-758v100l489 650q123 164 123 297q-1 133 -65 203t-172 71q-108 0 -172 -72q-63 -72 -64 -190v-72h-139v68q0 182 105 291q106 108 274 108t273 -103t105 -287t-175 -415l-398 -518h574z" />
    <glyph glyph-name="three" unicode="3" horiz-adv-x="995" 
d="M133 1049v28q1 169 103 273t262 104t262 -99t102 -257v-27q0 -109 -51 -193t-139 -126q98 -41 154 -131t57 -211v-48q0 -172 -109 -277q-108 -105 -280 -105t-277 105q-104 105 -104 284v45h137v-35q0 -123 66 -196t178 -73t178 74q66 72 65 195v41q1 124 -65 196
t-180 72h-107v119h107q100 -1 162 67t63 175v30q1 109 -61 177t-162 67q-100 0 -162 -69t-62 -179v-26h-137z" />
    <glyph glyph-name="four" unicode="4" horiz-adv-x="1034" 
d="M782 1434v-934h164v-119h-164v-381h-141v381h-555v121l553 932h143zM641 500v721l-430 -721h430z" />
    <glyph glyph-name="five" unicode="5" horiz-adv-x="1021" 
d="M848 1303h-561v-461q84 110 246 110t259 -99t97 -269v-209q1 -180 -105 -288q-106 -107 -276 -107t-272 104t-103 287v32h143v-32q0 -119 62 -189t170 -70t171 70q62 70 62 189v202q0 115 -63 183q-64 68 -162 68t-154 -45q-56 -44 -67 -87l-10 -43h-131v785h694v-131z
" />
    <glyph glyph-name="six" unicode="6" horiz-adv-x="1034" 
d="M551 911q164 0 264 -106t100 -291v-119q-1 -190 -111 -303q-110 -112 -290 -112t-289 110t-108 301v88q0 172 71 299l357 656h162l-324 -570q78 47 168 47zM770 391v119q0 127 -69 203q-69 75 -187 75t-184 -74q-68 -74 -68 -204v-119q0 -129 68 -204t186 -75t186 76
t68 203z" />
    <glyph glyph-name="seven" unicode="7" horiz-adv-x="921" 
d="M82 1303v131h758v-101l-478 -1333h-149l471 1303h-602z" />
    <glyph glyph-name="eight" unicode="8" horiz-adv-x="1034" 
d="M252 422v-33q0 -129 73 -205t191 -76t192 76q73 76 72 205v33q0 129 -72 206q-73 77 -192 77q-120 0 -192 -77t-72 -206zM137 1073v21q0 156 108 258q109 102 273 102t270 -100t107 -256v-21q0 -102 -49 -184t-135 -129q100 -45 157 -136t58 -218v-21q0 -184 -116 -297
q-116 -112 -296 -112t-294 110t-114 295v21q0 127 58 219t155 137q-86 45 -134 127t-48 184zM283 1090v-35q-1 -100 65 -168t168 -68t168 68t66 168v35q0 100 -66 168t-168 67q-102 1 -168 -67t-65 -168z" />
    <glyph glyph-name="nine" unicode="9" horiz-adv-x="1034" 
d="M483 522q-164 0 -264 106t-100 292v118q0 190 110 303q111 113 291 113t289 -111t109 -301v-88q0 -172 -72 -299l-357 -655h-161l323 569q-78 -47 -168 -47zM264 1042v-118q0 -127 69 -203t187 -76t185 75q68 75 67 204v118q0 129 -67 204q-68 75 -186 75
q-119 0 -187 -76t-68 -203z" />
    <glyph glyph-name="colon" unicode=":" horiz-adv-x="372" 
d="M186 1063q45 0 75 -30t30 -75q0 -44 -30 -74t-75 -30q-44 0 -74 30t-30 74t30 75q30 30 74 30zM186 188q45 0 75 -30t30 -74q0 -45 -30 -75q-30 -29 -75 -29q-44 0 -74 30t-30 74t30 74t74 30z" />
    <glyph glyph-name="semicolon" unicode=";" horiz-adv-x="372" 
d="M186 1063q45 0 75 -30t30 -75q0 -44 -30 -74t-75 -30q-44 0 -74 30t-30 74t30 75q30 30 74 30zM203 -266h-121l33 485h161z" />
    <glyph glyph-name="less" unicode="&#x3c;" horiz-adv-x="1034" 
d="M952 1085l-725 -356l725 -354v-148l-870 441v118l870 441v-142z" />
    <glyph glyph-name="equal" unicode="=" horiz-adv-x="1034" 
d="M952 451h-870v120h870v-120zM952 842h-870v121h870v-121z" />
    <glyph glyph-name="greater" unicode="&#x3e;" horiz-adv-x="1034" 
d="M82 369l725 356l-725 354v148l870 -441v-118l-870 -441v142z" />
    <glyph glyph-name="question" unicode="?" horiz-adv-x="983" 
d="M571 463v-33h-139v41q0 133 107 254q45 51 90 101q108 120 107 241q-2 121 -66 187t-172 67q-108 0 -172 -71q-63 -71 -64 -191v-51h-139v45q0 182 105 292q106 109 274 109t273 -103t105 -265t-108 -291q-45 -53 -91 -103q-110 -120 -110 -229zM502 188q45 0 75 -30
q29 -30 29 -74q0 -45 -30 -75q-30 -29 -74 -29q-45 0 -75 30t-30 74t30 74t75 30z" />
    <glyph glyph-name="at" unicode="@" horiz-adv-x="1947" 
d="M977 1010q162 0 231 -136l27 119h98l13 -14l-101 -707q-14 -94 27 -147t121 -53q137 0 240 139t104 344q-1 332 -223 558t-539 226t-541 -227q-224 -226 -223 -542q0 -316 223 -535t539 -219q88 0 172 18l20 -106q-119 -25 -194 -25q-365 0 -622 250q-257 249 -257 613
t259 626t623 262t622 -261t259 -632q0 -256 -139 -429t-332 -173q-134 0 -202 86t-54 221q-90 -112 -237 -112t-221 89t-54 230l35 240q19 139 107 218t219 79zM991 895q-184 0 -213 -201l-30 -207q-14 -98 32 -158q46 -61 136 -61q92 0 150 52t73 147l30 207q14 98 -36 160
q-51 61 -142 61z" />
    <glyph glyph-name="A" unicode="A" horiz-adv-x="1099" 
d="M625 1434l454 -1434h-159l-125 401h-498l-125 -401h-152l457 1434h148zM545 1223l-217 -705h434z" />
    <glyph glyph-name="B" unicode="B" horiz-adv-x="1105" 
d="M315 690v-567h263q135 0 220 80t85 204q0 123 -85 203t-218 80h-265zM164 0v1434h438q180 0 291 -100t111 -257q0 -115 -62 -199t-168 -126q121 -40 191 -136t69 -223q0 -169 -123 -281t-315 -112h-432zM315 1311v-506h263q122 0 198 71q76 70 76 182t-76 182t-198 71
h-263z" />
    <glyph glyph-name="C" unicode="C" horiz-adv-x="1140" 
d="M852 434v62h145v-64q1 -211 -115 -332q-116 -120 -313 -120t-311 118t-115 330v573q0 211 118 332q119 121 315 121t309 -119t112 -329v-50h-145v41q0 152 -74 236t-205 84t-205 -84t-73 -236v-563q0 -150 74 -234q75 -84 205 -85q130 1 204 85t74 234z" />
    <glyph glyph-name="D" unicode="D" 
d="M164 1434h403q219 0 338 -125t119 -359v-461q0 -233 -121 -361t-340 -128h-399v1434zM315 1300v-1167h248q150 0 230 92t79 260v461q0 170 -79 262q-80 92 -230 92h-248z" />
    <glyph glyph-name="E" unicode="E" horiz-adv-x="962" 
d="M891 0h-727v1434h717v-134h-566v-491h484v-125h-484v-551h576v-133z" />
    <glyph glyph-name="F" unicode="F" horiz-adv-x="931" 
d="M788 612h-473v-612h-151v1434h706v-134h-555v-559h473v-129z" />
    <glyph glyph-name="G" unicode="G" 
d="M1024 442q0 -214 -120 -338t-323 -124q-202 0 -320 122t-118 336v553q0 215 121 339t323 124q201 0 319 -122t118 -337v-24h-152v16q0 156 -75 243q-76 87 -213 87t-213 -87t-76 -243v-538q0 -158 77 -247t214 -89t215 89t78 247v163h-281v117h426v-287z" />
    <glyph glyph-name="H" unicode="H" horiz-adv-x="1187" 
d="M872 0v688h-557v-688h-151v1434h151v-611h557v611h152v-1434h-152z" />
    <glyph glyph-name="I" unicode="I" horiz-adv-x="503" 
d="M174 0v1434h156v-1434h-156z" />
    <glyph glyph-name="J" unicode="J" horiz-adv-x="696" 
d="M406 1434h157v-1043q0 -195 -105 -303t-286 -108q-83 0 -131 16l27 133q35 -10 100 -10q115 0 176 74t62 206v1035z" />
    <glyph glyph-name="K" unicode="K" horiz-adv-x="1015" 
d="M164 0v1434h151v-676l500 676h180l-532 -689l553 -745h-180l-521 715v-715h-151z" />
    <glyph glyph-name="L" unicode="L" horiz-adv-x="901" 
d="M164 0v1434h151v-1299h535v-135h-686z" />
    <glyph glyph-name="M" unicode="M" horiz-adv-x="1433" 
d="M307 0h-143v1434h153l404 -969l403 969h146v-1434h-146v1124l-370 -888h-74l-373 888v-1124z" />
    <glyph glyph-name="N" unicode="N" horiz-adv-x="1208" 
d="M303 0h-139v1434h147l592 -1145v1145h141v-1434h-141l-600 1159v-1159z" />
    <glyph glyph-name="O" unicode="O" 
d="M143 438v553q0 215 121 339t323 124q201 0 319 -122t118 -337v-553q0 -215 -121 -339q-121 -123 -323 -123t-319 122q-118 122 -118 336zM295 987v-543q0 -154 77 -242t212 -87q135 0 212 88t76 241v543q0 156 -75 243q-76 87 -213 87t-213 -87t-76 -243z" />
    <glyph glyph-name="P" unicode="P" horiz-adv-x="1085" 
d="M526 551h-211v-551h-151v1434h366q216 0 350 -125t134 -315t-136 -317q-136 -126 -352 -126zM528 1303h-213v-625h213q150 0 242 88t92 223t-92 225t-242 89z" />
    <glyph glyph-name="Q" unicode="Q" 
d="M143 438v553q0 215 121 339t323 124q201 0 319 -122t118 -337v-553q0 -293 -211 -403l160 -285h-158l-129 238q-49 -12 -104 -12q-203 0 -321 122t-118 336zM295 987v-543q0 -154 77 -242t212 -87q135 0 212 88t76 241v543q0 156 -75 243q-76 87 -213 87t-213 -87
t-76 -243z" />
    <glyph glyph-name="R" unicode="R" horiz-adv-x="1126" 
d="M522 578h-207v-578h-151v1434h381q209 0 339 -123t130 -305q0 -132 -74 -236t-203 -149l307 -621h-174l-276 582q-41 -4 -72 -4zM315 1303v-607h224q143 0 233 88t90 216t-89 215t-232 88h-226z" />
    <glyph glyph-name="S" unicode="S" horiz-adv-x="1024" 
d="M147 1110q-1 154 105 249t270 95q90 0 164 -30t116 -72q85 -86 109 -160l11 -29l-125 -47q-5 21 -33 65q-26 45 -54 71t-77 48t-107 23q-102 0 -164 -54q-62 -55 -63 -149q0 -94 67 -167t209 -156q332 -190 332 -443q-1 -174 -111 -274t-284 -100q-96 0 -175 34t-124 85
q-96 107 -119 186l-12 34l125 46q4 -9 10 -27t33 -62q26 -44 58 -78q32 -32 86 -60t116 -27q114 0 180 63q66 64 66 168t-68 182t-215 162q-326 186 -326 424z" />
    <glyph glyph-name="T" unicode="T" horiz-adv-x="952" 
d="M901 1298h-348v-1298h-154v1298h-348v136h850v-136z" />
    <glyph glyph-name="U" unicode="U" 
d="M864 434v1000h150v-1002q0 -211 -118 -332q-118 -120 -316 -120t-312 118q-115 118 -114 330v1006h153v-1000q0 -150 74 -234t205 -85q130 1 204 85t74 234z" />
    <glyph glyph-name="V" unicode="V" horiz-adv-x="1095" 
d="M473 0l-453 1434h164l367 -1198l367 1198h157l-454 -1434h-148z" />
    <glyph glyph-name="W" unicode="W" horiz-adv-x="1576" 
d="M401 0l-381 1434h164l291 -1158l264 1158h107l262 -1158l291 1158h157l-382 -1434h-134l-252 1085l-251 -1085h-136z" />
    <glyph glyph-name="X" unicode="X" horiz-adv-x="1003" 
d="M973 1434l-387 -695l407 -739h-172l-323 604l-326 -604h-162l408 731l-387 703h170l303 -568l305 568h164z" />
    <glyph glyph-name="Y" unicode="Y" horiz-adv-x="1054" 
d="M453 0v573l-443 861h172l348 -707l351 707h163l-440 -861v-573h-151z" />
    <glyph glyph-name="Z" unicode="Z" horiz-adv-x="983" 
d="M891 0h-799v104l625 1199h-584v131h758v-105l-625 -1198h625v-131z" />
    <glyph glyph-name="bracketleft" unicode="[" horiz-adv-x="788" 
d="M696 -164h-512v1761h512v-124h-370v-1514h370v-123z" />
    <glyph glyph-name="backslash" unicode="\" horiz-adv-x="788" 
d="M82 1597l706 -1761h-131l-706 1761h131z" />
    <glyph glyph-name="bracketright" unicode="]" horiz-adv-x="788" 
d="M604 -164h-512v123h371v1514h-371v124h512v-1761z" />
    <glyph glyph-name="asciicircum" unicode="^" horiz-adv-x="985" 
d="M743 696l-251 582l-252 -582h-148l342 738h115l344 -738h-150z" />
    <glyph glyph-name="underscore" unicode="_" horiz-adv-x="1024" 
d="M1024 -211h-1024v109h1024v-109z" />
    <glyph glyph-name="grave" unicode="`" horiz-adv-x="757" 
d="M385 1516l141 -334h-116l-181 334h156z" />
    <glyph glyph-name="a" unicode="a" horiz-adv-x="1024" 
d="M891 651v-651h-115l-16 113q-96 -133 -297 -133q-164 0 -262 90t-99 231q0 141 102 233t274 93q173 0 267 -111v127q0 139 -71 214q-72 75 -197 75q-75 0 -141 -16t-94 -33l-29 -17l-45 117q48 32 138 56q91 24 190 24q184 1 290 -107t105 -305zM499 94q113 0 185 60
t72 153t-72 151t-186 58t-182 -58t-68 -152t68 -152q68 -60 183 -60z" />
    <glyph glyph-name="b" unicode="b" horiz-adv-x="1064" 
d="M143 0v1434h146v-519q92 147 291 148q166 0 264 -101t98 -280v-315q0 -179 -101 -283t-268 -104q-203 0 -294 153l-9 -133h-127zM289 657v-272q-1 -127 69 -201t185 -74t185 74t69 201v272q0 127 -70 201q-71 74 -185 74t-184 -74t-69 -201z" />
    <glyph glyph-name="c" unicode="c" horiz-adv-x="1017" 
d="M756 385h139v-18q0 -179 -108 -283q-107 -104 -279 -104t-279 104q-106 104 -106 285v301q0 180 108 286q109 106 282 106t277 -101q104 -102 105 -281v-12h-139v6q0 118 -67 188t-177 70t-178 -72q-66 -72 -66 -192v-293q0 -121 67 -193t177 -72t178 70q66 70 66 189v16
z" />
    <glyph glyph-name="d" unicode="d" horiz-adv-x="1064" 
d="M922 1434v-1434h-129l-9 139q-92 -160 -299 -159q-166 0 -264 101t-98 279v318q0 178 101 281t282 103t270 -140v512h146zM776 385v272q0 127 -69 201q-70 74 -185 74q-114 0 -184 -74t-70 -201v-272q0 -127 70 -201t184 -74t185 74q69 74 69 201z" />
    <glyph glyph-name="e" unicode="e" horiz-adv-x="1038" 
d="M123 659q0 184 111 294q112 110 290 110q178 -1 284 -107t107 -292v-138h-647v-141q0 -127 70 -201t184 -73q171 0 234 161q14 37 18 64l2 24l137 -24q-2 -14 -5 -39q-4 -25 -28 -86t-62 -107t-117 -86q-79 -39 -181 -38q-178 0 -288 108t-109 291v280zM268 668v-35h508
v35q0 128 -70 200t-184 72t-184 -72t-70 -200z" />
    <glyph glyph-name="f" unicode="f" horiz-adv-x="716" 
d="M360 1145v-144h316v-116h-316v-885h-145v885h-174v116h174v156q0 143 76 220t196 77t189 -24l20 -9l-22 -114q-63 20 -133 20q-181 0 -181 -182z" />
    <glyph glyph-name="g" unicode="g" horiz-adv-x="1064" 
d="M466 -217q158 0 234 80t76 229v121q-100 -147 -278 -147t-277 102q-98 102 -98 281v229q0 178 101 281t268 104q201 0 292 -154l9 133h129v-944q0 -210 -116 -328t-321 -118q-98 0 -182 18t-119 35l-37 19l50 120q111 -61 269 -61zM776 467v190q0 127 -69 201
q-70 74 -185 74q-114 0 -184 -74t-70 -201v-190q0 -127 70 -201t184 -74t185 74q69 74 69 201z" />
    <glyph glyph-name="h" unicode="h" horiz-adv-x="1054" 
d="M143 0v1434h146v-533q92 162 295 162q156 0 246 -102t92 -302v-659h-146v627q0 305 -235 305q-115 0 -184 -76t-68 -225v-631h-146z" />
    <glyph glyph-name="i" unicode="i" horiz-adv-x="458" 
d="M229 1448q45 0 75 -31t30 -75t-30 -74t-75 -29q-45 0 -75 30q-30 29 -29 73q-1 44 29 75t75 31zM154 0v1042h151v-1042h-151z" />
    <glyph glyph-name="j" unicode="j" horiz-adv-x="458" 
d="M229 1448q45 0 75 -31t30 -75t-30 -74t-75 -29q-45 0 -75 30q-30 29 -29 73q-1 44 29 75t75 31zM154 1042h151v-1085q0 -147 -77 -226t-201 -79q-61 0 -109 16l21 123q43 -10 81 -10q133 0 134 156v1105z" />
    <glyph glyph-name="k" unicode="k" horiz-adv-x="925" 
d="M143 0v1434h146v-854l432 462h184l-465 -471l486 -571h-187l-450 543v-543h-146z" />
    <glyph glyph-name="l" unicode="l" horiz-adv-x="458" 
d="M154 0v1434h151v-1434h-151z" />
    <glyph glyph-name="m" unicode="m" horiz-adv-x="1646" 
d="M289 643v-643h-146v1042h127l9 -145q92 166 294 166q225 0 297 -209q84 209 316 209q152 0 240 -102t87 -299v-662h-147v629q0 303 -223 303q-111 0 -177 -76t-65 -227v-629h-145v629q0 303 -226 303q-109 0 -175 -73t-66 -216z" />
    <glyph glyph-name="n" unicode="n" horiz-adv-x="1054" 
d="M143 0v1042h127l9 -147q94 168 305 168q156 0 246 -102t92 -302v-659h-146v627q0 305 -235 305q-113 0 -183 -74t-69 -217v-641h-146z" />
    <glyph glyph-name="o" unicode="o" horiz-adv-x="1044" 
d="M123 379v280q0 184 111 294q112 110 291 110q179 -1 288 -107t109 -292v-281q0 -184 -112 -294q-112 -109 -290 -109t-288 107q-109 108 -109 292zM268 657v-272q0 -127 70 -201t184 -74t185 74q70 74 69 201v272q0 127 -69 201q-70 74 -185 74q-114 0 -184 -74t-70 -201
z" />
    <glyph glyph-name="p" unicode="p" horiz-adv-x="1064" 
d="M143 -328v1370h127l9 -137q96 158 301 158q166 0 264 -101t98 -280v-315q0 -179 -101 -283t-282 -104t-270 141v-449h-146zM289 657v-272q-1 -127 69 -201t185 -74t185 74t69 201v272q0 127 -70 201q-71 74 -185 74t-184 -74t-69 -201z" />
    <glyph glyph-name="q" unicode="q" horiz-adv-x="1064" 
d="M922 1042v-1370h-146v453q-100 -145 -278 -145t-277 101q-98 101 -98 279v318q0 178 101 281t268 104q201 0 292 -154l9 133h129zM776 385v272q0 127 -69 201q-70 74 -185 74q-114 0 -184 -74t-70 -201v-272q0 -127 70 -201t184 -74t185 74q69 74 69 201z" />
    <glyph glyph-name="r" unicode="r" horiz-adv-x="688" 
d="M143 0v1042h127l11 -188q100 209 366 209v-143h-53q-143 0 -224 -92t-81 -279v-549h-146z" />
    <glyph glyph-name="s" unicode="s" horiz-adv-x="813" 
d="M412 102q80 0 132 46t52 115t-50 123t-186 103q-264 96 -264 302q0 117 87 195t231 77q90 0 167 -27t107 -53l31 -27l-78 -102q-26 32 -91 59q-66 27 -139 27t-120 -41t-47 -96q0 -127 205 -203q293 -104 292 -321q0 -131 -93 -215t-247 -84q-102 0 -189 32t-124 64
l-37 33l78 102q41 -41 122 -75t161 -34z" />
    <glyph glyph-name="t" unicode="t" horiz-adv-x="737" 
d="M360 1311v-269h326v-116h-326v-650q0 -166 162 -165q73 0 121 16l21 4l22 -121q-80 -30 -204 -30t-196 72t-71 204v670h-174v116h174v269h145z" />
    <glyph glyph-name="u" unicode="u" horiz-adv-x="1054" 
d="M911 1042v-1042h-127l-8 147q-94 -168 -305 -167q-156 0 -247 102t-91 301v659h146v-626q0 -305 235 -305q112 -1 182 73t70 217v641h145z" />
    <glyph glyph-name="v" unicode="v" horiz-adv-x="901" 
d="M381 0l-361 1042h158l277 -835l274 835h152l-361 -1042h-139z" />
    <glyph glyph-name="w" unicode="w" horiz-adv-x="1320" 
d="M332 0l-312 1042h158l228 -811l208 811h99l209 -813l227 813h151l-313 -1042h-129l-199 745l-196 -745h-131z" />
    <glyph glyph-name="x" unicode="x" horiz-adv-x="905" 
d="M874 1042l-339 -501l360 -541h-168l-276 428l-281 -428h-160l361 532l-340 510h168l256 -397l260 397h159z" />
    <glyph glyph-name="y" unicode="y" horiz-adv-x="901" 
d="M172 -219q66 0 118 48t91 171l-361 1042h158l277 -856l274 856h152l-375 -1083q-59 -168 -140 -238q-81 -69 -180 -69t-145 29l31 116q34 -16 100 -16z" />
    <glyph glyph-name="z" unicode="z" horiz-adv-x="849" 
d="M123 915v127h635v-100l-498 -815h498v-127h-666v100l496 815h-465z" />
    <glyph glyph-name="braceleft" unicode="{" horiz-adv-x="870" 
d="M449 522v-401q-1 -86 39 -125t124 -39h166v-121h-186q-285 0 -285 285v409q0 72 -29 100q-30 28 -100 27h-86v117h86q68 0 98 30t31 99v410q0 285 285 284h186v-122h-166q-84 0 -124 -39t-39 -125v-400q0 -90 -38 -140t-104 -54q66 -5 104 -55t38 -140z" />
    <glyph glyph-name="bar" unicode="|" horiz-adv-x="577" 
d="M225 -205v1843h127v-1843h-127z" />
    <glyph glyph-name="braceright" unicode="}" horiz-adv-x="870" 
d="M422 911v402q0 86 -40 125t-124 39h-166v120h187q285 0 284 -284v-410q0 -71 30 -99t99 -28h86v-117h-86q-68 1 -98 -29t-31 -100v-409q0 -285 -284 -285h-187v123h166q84 0 124 39t40 125v399q0 90 38 140t103 55q-65 4 -103 54t-38 140z" />
    <glyph glyph-name="asciitilde" unicode="~" horiz-adv-x="1034" 
d="M307 844q68 0 128 -33q61 -33 99 -72q103 -104 191 -104q57 0 90 44t37 87l4 43l117 -6q1 -36 -15 -95t-40 -99q-24 -39 -74 -71q-51 -32 -119 -32t-128 33t-98 73q-101 105 -192 105q-57 0 -90 -44t-37 -87l-2 -45l-117 6q0 99 54 193q23 40 73 72t119 32z" />
    <glyph glyph-name="exclamdown" unicode="&#xa1;" horiz-adv-x="516" 
d="M258 1245q-45 0 -75 30t-29 75q0 44 30 74t74 30q45 0 75 -30q29 -30 29 -74t-30 -75q-30 -30 -74 -30zM309 1004l35 -1004h-174l37 1004h102z" />
    <glyph glyph-name="cent" unicode="&#xa2;" horiz-adv-x="1038" 
d="M766 776h139v-18q0 -164 -91 -265t-241 -118v-170h-102v168q-154 14 -246 116t-92 269v301q0 166 92 269t246 120v170h102v-170q152 -16 242 -114t90 -263v-12h-139v4q0 121 -67 191t-177 69q-110 0 -178 -72q-66 -72 -65 -194v-291q1 -123 67 -195q66 -71 176 -71
t178 70q66 70 66 190v16z" />
    <glyph glyph-name="sterling" unicode="&#xa3;" horiz-adv-x="1079" 
d="M748 653h-388v-526h572v-127h-717v653h-174v99h174v305q-1 182 105 290q106 107 275 107t270 -104t102 -285v-37h-140v35q0 119 -63 189t-171 69q-108 0 -170 -70t-63 -188v-311h388v-99z" />
    <glyph glyph-name="currency" unicode="&#xa4;" horiz-adv-x="1210" 
d="M610 1167q154 0 271 -90l163 160l74 -74l-164 -153q104 -127 104 -292t-104 -292l164 -158l-74 -73l-167 161q-117 -90 -274 -90t-273 88l-164 -159l-74 73l162 156q-102 123 -102 290t106 292l-166 157l74 74l166 -160q124 90 278 90zM285 716q0 -138 92 -232t228 -93
q136 0 229 94q92 93 92 231t-92 232t-228 94t-229 -94q-92 -94 -92 -232z" />
    <glyph glyph-name="yen" unicode="&#xa5;" horiz-adv-x="1095" 
d="M473 0v399h-381v95h381v165l-14 27h-367v94h318l-359 654h168l332 -637l334 637h159l-358 -654h318v-94h-367l-12 -27v-165h379v-95h-379v-399h-152z" />
    <glyph glyph-name="brokenbar" unicode="&#xa6;" horiz-adv-x="577" 
d="M225 -205v680h127v-680h-127zM352 1638v-682h-127v682h127z" />
    <glyph glyph-name="section" unicode="&#xa7;" horiz-adv-x="1126" 
d="M225 1134q-1 142 99 231t254 89q92 0 164 -28t109 -68q75 -77 95 -146l6 -28l-129 -39l-5 20q-3 12 -19 44t-40 57t-71 44q-48 19 -122 19t-134 -52t-59 -128q0 -164 241 -252q410 -150 410 -393q0 -106 -70 -184t-182 -107q129 -103 129 -243t-99 -229t-253 -89
q-92 0 -164 28t-110 66q-76 78 -95 148l-6 26l127 41l5 -20q4 -12 20 -44q62 -120 219 -120q90 0 148 52t59 128q0 164 -240 252q-410 154 -410 393q0 104 70 182t180 107q-127 101 -127 243zM250 620q0 -81 71 -153t257 -141q27 -10 71 -31q100 8 163 58q62 50 62 131
t-70 154q-71 73 -257 142l-35 14q-25 9 -37 15q-101 -6 -163 -57t-62 -132z" />
    <glyph glyph-name="dieresis" unicode="&#xa8;" horiz-adv-x="1044" 
d="M343 1436q40 0 68 -28q27 -28 27 -68t-28 -68t-67 -27q-40 0 -68 27q-27 28 -27 68t27 68q28 28 68 28zM700 1436q41 0 68 -28t27 -68t-27 -68t-68 -27q-40 0 -68 27q-28 28 -28 68t28 68t68 28z" />
    <glyph glyph-name="copyright" unicode="&#xa9;" horiz-adv-x="1650" 
d="M825 80q268 0 452 184q183 184 183 452t-184 453t-450 185t-451 -184t-185 -453t184 -453t451 -184zM829 1454q315 0 527 -211t213 -522q0 -311 -216 -526q-215 -215 -531 -215t-528 210t-212 522t216 527t531 215zM434 713q0 172 118 291q118 118 284 118t273 -90
q29 -22 48 -49l-84 -70l-24 27q-15 18 -73 46t-126 28q-125 0 -212 -85t-87 -212t87 -212t195 -85t166 36q57 36 84 76l80 -67q-13 -19 -45 -50q-109 -102 -283 -103q-173 -1 -287 114t-114 287z" />
    <glyph glyph-name="ordfeminine" unicode="&#xaa;" horiz-adv-x="718" 
d="M123 569v88h493v-88h-493zM616 1188v-397h-96l-8 53q-60 -66 -170 -66t-175 54t-65 144q0 89 67 144q67 56 170 56t161 -52v62q0 76 -41 116t-101 40q-109 -1 -165 -33l-21 -11l-33 88q80 56 209 56q128 0 198 -66t70 -188zM359 864q62 0 105 33q42 33 42 83t-41 82
t-105 32t-102 -32q-39 -32 -39 -82t39 -83t101 -33z" />
    <glyph glyph-name="guillemotleft" unicode="&#xab;" horiz-adv-x="1357" 
d="M1225 1098l-394 -379l394 -379l-82 -86l-479 434v57l479 435zM643 1098l-393 -379l393 -379l-82 -86l-479 434v57l479 435z" />
    <glyph glyph-name="logicalnot" unicode="&#xac;" horiz-adv-x="1034" 
d="M827 358v367h-745v119h870v-486h-125z" />
    <glyph glyph-name="registered" unicode="&#xae;" horiz-adv-x="966" 
d="M338 862v387h172q61 0 100 -35t39 -92q0 -88 -90 -116l107 -144h-93l-94 135h-65v-135h-76zM166 1056q0 -138 90 -230t226 -91q136 0 228 91q91 92 91 230t-91 228q-92 90 -228 90t-226 -90t-90 -228zM82 1053q0 169 116 285t286 116q169 0 285 -115t116 -283t-117 -283
q-117 -116 -287 -116q-171 0 -285 114t-114 282zM500 1184h-86v-125h86q72 0 71 63q1 62 -71 62z" />
    <glyph glyph-name="macron" unicode="&#xaf;" horiz-adv-x="942" 
d="M158 1303v100h624v-100h-624z" />
    <glyph glyph-name="degree" unicode="&#xb0;" horiz-adv-x="768" 
d="M386 1454q134 0 222 -88t88 -221t-90 -222t-223 -89t-222 88t-89 221t90 222t224 89zM384 940q87 0 143 59q57 59 57 145t-56 145t-144 59q-87 0 -142 -58q-56 -58 -56 -145q0 -89 56 -147t142 -58z" />
    <glyph glyph-name="plusminus" unicode="&#xb1;" horiz-adv-x="1034" 
d="M952 106h-870v121h870v-121zM578 1325v-375h374v-119h-374v-376h-121v376h-375v119h375v375h121z" />
    <glyph glyph-name="twosuperior" unicode="&#xb2;" horiz-adv-x="616" 
d="M545 674v-101h-473v82l288 369q74 94 74 170t-35 114q-35 36 -93 36t-92 -36t-34 -100v-43h-108v41q0 112 66 176t170 64q105 0 171 -62q65 -62 65 -174q0 -114 -104 -247l-231 -289h336z" />
    <glyph glyph-name="threesuperior" unicode="&#xb3;" horiz-adv-x="632" 
d="M84 1202v15q0 102 64 165q65 64 164 64q98 0 162 -62t65 -159v-13q0 -125 -103 -188q115 -61 115 -203v-22q0 -102 -69 -170t-173 -68t-171 66t-66 170v26h104v-22q0 -66 36 -103q36 -36 96 -36t96 38t36 105v24q0 68 -36 108t-97 40h-65v90h65q55 0 88 36t33 95v19
q0 57 -33 93t-86 36t-87 -35t-34 -92v-17h-104z" />
    <glyph glyph-name="acute" unicode="&#xb4;" horiz-adv-x="757" 
d="M229 1182l142 334h155l-180 -334h-117z" />
    <glyph glyph-name="mu" unicode="&#xb5;" horiz-adv-x="1064" 
d="M774 418v624h148v-1042h-129l-9 145q-92 -166 -297 -165q-123 0 -198 73v-381h-146v1370h146v-641q0 -145 62 -218t174 -73t181 77q68 77 68 231z" />
    <glyph glyph-name="mu" unicode="&#x3bc;" horiz-adv-x="1064" 
d="M774 418v624h148v-1042h-129l-9 145q-92 -166 -297 -165q-123 0 -198 73v-381h-146v1370h146v-641q0 -145 62 -218t174 -73t181 77q68 77 68 231z" />
    <glyph glyph-name="paragraph" unicode="&#xb6;" horiz-adv-x="1282" 
d="M522 0v678h-33q-190 0 -299 105q-108 105 -108 271t112 272q112 108 302 108h581v-1434h-137v1311h-281v-1311h-137z" />
    <glyph glyph-name="periodcentered" unicode="&#xb7;" horiz-adv-x="372" 
d="M186 821q45 1 75 -29t30 -75t-30 -75t-75 -30q-44 0 -74 30t-30 75t30 75t74 29z" />
    <glyph glyph-name="cedilla" unicode="&#xb8;" horiz-adv-x="727" 
d="M604 -168q0 -109 -77 -170t-172 -61t-167 34l23 101q41 -29 117 -29t116 38t39 93q0 55 -22 93q-23 38 -45 53l-23 16l64 53q18 -6 59 -37t65 -85q23 -54 23 -99z" />
    <glyph glyph-name="onesuperior" unicode="&#xb9;" horiz-adv-x="505" 
d="M383 1434v-861h-111v723l-174 -145l-57 70l250 213h92z" />
    <glyph glyph-name="ordmasculine" unicode="&#xba;" horiz-adv-x="724" 
d="M123 569v88h479v-88h-479zM102 1038v142q0 122 72 192t190 70t188 -70t71 -190v-142q0 -122 -72 -192t-190 -70q-119 0 -189 68t-70 192zM219 1180v-142q0 -158 143 -157q143 0 144 157v142q0 160 -144 159q-143 1 -143 -159z" />
    <glyph glyph-name="guillemotright" unicode="&#xbb;" horiz-adv-x="1357" 
d="M715 336l393 379l-393 379l82 86l479 -435v-57l-479 -434zM133 336l393 379l-393 379l82 86l479 -435v-57l-479 -434z" />
    <glyph glyph-name="onequarter" unicode="&#xbc;" horiz-adv-x="1411" 
d="M225 0l965 1434h110l-964 -1434h-111zM1272 860v-551h98v-92h-98v-217h-109v217h-327v92l327 551h109zM1163 309v389l-233 -389h233zM383 1434v-861h-111v723l-174 -145l-57 70l250 213h92z" />
    <glyph glyph-name="onehalf" unicode="&#xbd;" horiz-adv-x="1544" 
d="M1493 100v-100h-473v82l289 369q73 95 73 171q-1 149 -129 148q-57 0 -91 -36t-34 -99v-43h-108v41q0 111 66 175t170 64q106 0 172 -61t65 -175q0 -114 -104 -247l-232 -289h336zM225 0l965 1434h110l-964 -1434h-111zM383 1434v-861h-111v723l-174 -145l-57 70l250 213
h92z" />
    <glyph glyph-name="threequarters" unicode="&#xbe;" horiz-adv-x="1431" 
d="M246 0l964 1434h111l-965 -1434h-110zM84 1202v15q0 102 64 165q65 64 164 64q98 0 162 -62t65 -159v-13q0 -125 -103 -188q115 -61 115 -203v-22q0 -102 -69 -170t-173 -68t-171 66t-66 170v26h104v-22q0 -66 36 -103q36 -36 96 -36t96 38t36 105v24q0 68 -36 108
t-97 40h-65v90h65q55 0 88 36t33 95v19q0 57 -33 93t-86 36t-87 -35t-34 -92v-17h-104zM1292 860v-551h99v-92h-99v-217h-108v217h-328v92l328 551h108zM1184 309v389l-234 -389h234z" />
    <glyph glyph-name="questiondown" unicode="&#xbf;" horiz-adv-x="983" 
d="M412 971v33h139v-41q0 -135 -107 -254q-45 -51 -90 -101q-106 -119 -106 -241q0 -123 64 -189t174 -66q108 0 171 72q63 70 64 191v51h139v-45q0 -182 -105 -292q-105 -109 -273 -109t-274 103t-106 265t109 291q45 53 91 103q110 120 110 229zM481 1245q-45 0 -75 30
t-29 75q0 44 30 74q31 30 75 30t74 -30t30 -74t-30 -75q-30 -30 -75 -30z" />
    <glyph glyph-name="Agrave" unicode="&#xc0;" horiz-adv-x="1099" 
d="M453 1884l141 -334h-117l-180 334h156zM625 1434l454 -1434h-159l-125 401h-498l-125 -401h-152l457 1434h148zM545 1223l-217 -705h434z" />
    <glyph glyph-name="Aacute" unicode="&#xc1;" horiz-adv-x="1099" 
d="M506 1550l141 334h156l-180 -334h-117zM625 1434l454 -1434h-159l-125 401h-498l-125 -401h-152l457 1434h148zM545 1223l-217 -705h434z" />
    <glyph glyph-name="Acircumflex" unicode="&#xc2;" horiz-adv-x="1099" 
d="M238 1550l247 334h127l250 -334h-129l-188 230l-187 -230h-120zM625 1434l454 -1434h-159l-125 401h-498l-125 -401h-152l457 1434h148zM545 1223l-217 -705h434z" />
    <glyph glyph-name="Atilde" unicode="&#xc3;" horiz-adv-x="1099" 
d="M418 1833q49 0 89 -24q41 -23 63 -53q58 -76 112 -77q33 0 53 32t25 63l4 32l98 -6q0 -136 -95 -198q-38 -24 -87 -25q-89 0 -149 77t-115 77q-34 0 -54 -32t-22 -63l-4 -30l-98 6q0 80 40 144q17 30 54 54t86 23zM625 1434l454 -1434h-159l-125 401h-498l-125 -401h-152
l457 1434h148zM545 1223l-217 -705h434z" />
    <glyph glyph-name="Adieresis" unicode="&#xc4;" horiz-adv-x="1099" 
d="M276 1708q0 40 28 68t68 28t68 -28t27 -67q0 -40 -28 -68q-27 -27 -67 -27t-68 26t-28 68zM729 1804q41 0 68 -28t27 -67q0 -40 -28 -68q-26 -27 -67 -27t-69 26t-27 68q0 41 27 69q28 27 69 27zM625 1434l454 -1434h-159l-125 401h-498l-125 -401h-152l457 1434h148z
M545 1223l-217 -705h434z" />
    <glyph glyph-name="Aring" unicode="&#xc5;" horiz-adv-x="1099" 
d="M550 1642q48 0 80 31t32 80t-32 80t-80 31t-81 -31t-33 -80t33 -80t81 -31zM549 1946q86 0 144 -56q59 -56 59 -137q0 -82 -58 -137t-145 -55q-86 0 -143 55t-58 137q0 81 58 137t143 56zM625 1434l454 -1434h-159l-125 401h-498l-125 -401h-152l457 1434h148zM545 1223
l-217 -705h434z" />
    <glyph glyph-name="AE" unicode="&#xc6;" horiz-adv-x="1556" 
d="M1475 1300h-566v-491h484v-125h-484v-551h576v-133h-727v401h-414l-188 -401h-156l670 1434h805v-134zM758 518v793l-367 -793h367z" />
    <glyph glyph-name="Ccedilla" unicode="&#xc7;" horiz-adv-x="1058" 
d="M811 434v62h145v-64q0 -190 -97 -309t-263 -139q55 -63 55 -162t-77 -160q-76 -61 -172 -61t-148 26l-18 8l22 101q41 -29 117 -29q75 0 115 38q40 37 40 109t-67 130q-170 20 -265 136t-96 308v573q0 211 118 332t315 121t309 -119t112 -329v-50h-145v41q0 152 -74 236
t-205 84q-130 0 -204 -84t-74 -236v-563q0 -150 74 -234t204 -85q130 1 205 85q74 84 74 234z" />
    <glyph glyph-name="Egrave" unicode="&#xc8;" horiz-adv-x="962" 
d="M487 1884l142 -334h-117l-180 334h155zM891 0h-727v1434h717v-134h-566v-491h484v-125h-484v-551h576v-133z" />
    <glyph glyph-name="Eacute" unicode="&#xc9;" horiz-adv-x="962" 
d="M475 1550l141 334h156l-180 -334h-117zM891 0h-727v1434h717v-134h-566v-491h484v-125h-484v-551h576v-133z" />
    <glyph glyph-name="Ecircumflex" unicode="&#xca;" horiz-adv-x="962" 
d="M213 1550l248 334h127l250 -334h-129l-189 230l-186 -230h-121zM891 0h-727v1434h717v-134h-566v-491h484v-125h-484v-551h576v-133z" />
    <glyph glyph-name="Edieresis" unicode="&#xcb;" horiz-adv-x="962" 
d="M252 1708q0 40 28 68t67 28q40 0 68 -28q27 -28 27 -67q0 -40 -28 -68q-28 -27 -67 -27t-67 26t-28 68zM705 1804q41 0 67 -28t27 -67q0 -40 -27 -68q-28 -27 -68 -27t-68 26t-28 68q0 40 28 68t69 28zM891 0h-727v1434h717v-134h-566v-491h484v-125h-484v-551h576v-133z
" />
    <glyph glyph-name="Igrave" unicode="&#xcc;" horiz-adv-x="503" 
d="M166 1884l141 -334h-117l-180 334h156zM174 0v1434h156v-1434h-156z" />
    <glyph glyph-name="Iacute" unicode="&#xcd;" horiz-adv-x="503" 
d="M197 1550l141 334h156l-181 -334h-116zM174 0v1434h156v-1434h-156z" />
    <glyph glyph-name="Icircumflex" unicode="&#xce;" horiz-adv-x="503" 
d="M-59 1550l247 334h127l250 -334h-129l-188 230l-187 -230h-120zM174 0v1434h156v-1434h-156z" />
    <glyph glyph-name="Idieresis" unicode="&#xcf;" horiz-adv-x="503" 
d="M75 1804q39 0 67 -28t28 -67q0 -40 -28 -68q-28 -27 -68 -27t-68 26q-27 26 -26 68q0 41 27 69q28 27 68 27zM432 1804q39 0 67 -28q27 -28 27 -67q0 -40 -26 -68q-26 -27 -68 -27q-40 0 -68 26t-28 68q0 40 28 68t68 28zM174 0v1434h156v-1434h-156z" />
    <glyph glyph-name="Eth" unicode="&#xd0;" horiz-adv-x="1232" 
d="M229 0v680h-188v98h188v656h406q219 0 337 -125t118 -359v-461q0 -233 -121 -361t-340 -128h-400zM381 1300v-522h315v-98h-315v-547h248q151 0 231 92t80 260v461q0 170 -80 262t-231 92h-248z" />
    <glyph glyph-name="Ntilde" unicode="&#xd1;" horiz-adv-x="1208" 
d="M471 1833q49 0 89 -24q40 -23 63 -53q60 -76 112 -77q33 0 53 32t25 63l4 32l98 -6q-1 -138 -95 -198q-38 -24 -87 -25q-90 0 -149 77t-115 77q-33 0 -53 -32t-23 -63l-4 -30l-98 6q0 80 40 144q17 30 54 54t86 23zM303 0h-139v1434h147l592 -1145v1145h141v-1434h-141
l-600 1159v-1159z" />
    <glyph glyph-name="Ograve" unicode="&#xd2;" 
d="M494 1884l141 -334h-117l-180 334h156zM143 438v553q0 215 121 339t323 124q201 0 319 -122t118 -337v-553q0 -215 -121 -339q-121 -123 -323 -123t-319 122q-118 122 -118 336zM295 987v-543q0 -154 77 -242t212 -87q135 0 212 88t76 241v543q0 156 -75 243
q-76 87 -213 87t-213 -87t-76 -243z" />
    <glyph glyph-name="Oacute" unicode="&#xd3;" 
d="M532 1550l142 334h155l-180 -334h-117zM143 438v553q0 215 121 339t323 124q201 0 319 -122t118 -337v-553q0 -215 -121 -339q-121 -123 -323 -123t-319 122q-118 122 -118 336zM295 987v-543q0 -154 77 -242t212 -87q135 0 212 88t76 241v543q0 156 -75 243
q-76 87 -213 87t-213 -87t-76 -243z" />
    <glyph glyph-name="Ocircumflex" unicode="&#xd4;" 
d="M270 1550l248 334h127l250 -334h-129l-188 230l-187 -230h-121zM143 438v553q0 215 121 339t323 124q201 0 319 -122t118 -337v-553q0 -215 -121 -339q-121 -123 -323 -123t-319 122q-118 122 -118 336zM295 987v-543q0 -154 77 -242t212 -87q135 0 212 88t76 241v543
q0 156 -75 243q-76 87 -213 87t-213 -87t-76 -243z" />
    <glyph glyph-name="Otilde" unicode="&#xd5;" 
d="M453 1833q49 0 89 -24q40 -23 62 -53q58 -76 113 -77q33 0 53 32t25 63l4 32l98 -6q0 -136 -95 -198q-38 -24 -87 -25q-89 0 -149 77t-115 77q-33 0 -53 -32t-25 -63l-2 -30l-99 6q0 76 40 144q16 30 54 54t87 23zM143 438v553q0 215 121 339t323 124q201 0 319 -122
t118 -337v-553q0 -215 -121 -339q-121 -123 -323 -123t-319 122q-118 122 -118 336zM295 987v-543q0 -154 77 -242t212 -87q135 0 212 88t76 241v543q0 156 -75 243q-76 87 -213 87t-213 -87t-76 -243z" />
    <glyph glyph-name="Odieresis" unicode="&#xd6;" 
d="M309 1708q-1 40 27 68t68 28t68 -28t28 -67q0 -40 -28 -68q-28 -27 -68 -27t-68 26t-27 68zM762 1804q42 0 68 -28t26 -67q0 -40 -27 -68q-27 -27 -67 -27t-69 26q-28 26 -27 68q0 41 27 69q28 27 69 27zM143 438v553q0 215 121 339t323 124q201 0 319 -122t118 -337
v-553q0 -215 -121 -339q-121 -123 -323 -123t-319 122q-118 122 -118 336zM295 987v-543q0 -154 77 -242t212 -87q135 0 212 88t76 241v543q0 156 -75 243q-76 87 -213 87t-213 -87t-76 -243z" />
    <glyph glyph-name="multiply" unicode="&#xd7;" horiz-adv-x="1034" 
d="M842 307l-326 330l-326 -330l-84 84l330 326l-330 325l84 84l326 -329l326 329l84 -84l-330 -325l330 -326z" />
    <glyph glyph-name="Oslash" unicode="&#xd8;" 
d="M877 444v543q0 74 -19 135l-496 -913q78 -96 218 -96q140 -1 219 87q78 88 78 244zM293 987v-543q0 -80 16 -135l498 914q-80 98 -220 98t-217 -88t-77 -246zM1024 995v-553q0 -215 -120 -339q-120 -123 -310 -123t-305 96l-74 -137h-106l114 211q-80 115 -80 288v553
q0 215 121 339q120 124 310 124t305 -96l75 137h107l-115 -211q78 -121 78 -289z" />
    <glyph glyph-name="Ugrave" unicode="&#xd9;" 
d="M518 1884l141 -334h-116l-181 334h156zM864 434v1000h150v-1002q0 -211 -118 -332q-118 -120 -316 -120t-312 118q-115 118 -114 330v1006h153v-1000q0 -150 74 -234t205 -85q130 1 204 85t74 234z" />
    <glyph glyph-name="Uacute" unicode="&#xda;" 
d="M526 1550l142 334h155l-180 -334h-117zM864 434v1000h150v-1002q0 -211 -118 -332q-118 -120 -316 -120t-312 118q-115 118 -114 330v1006h153v-1000q0 -150 74 -234t205 -85q130 1 204 85t74 234z" />
    <glyph glyph-name="Ucircumflex" unicode="&#xdb;" 
d="M272 1550l248 334h127l250 -334h-129l-188 230l-187 -230h-121zM864 434v1000h150v-1002q0 -211 -118 -332q-118 -120 -316 -120t-312 118q-115 118 -114 330v1006h153v-1000q0 -150 74 -234t205 -85q130 1 204 85t74 234z" />
    <glyph glyph-name="Udieresis" unicode="&#xdc;" 
d="M311 1708q0 40 28 68t68 28q39 0 67 -28t28 -67q0 -40 -28 -68q-28 -27 -68 -27t-68 26q-27 26 -27 68zM764 1804q38 0 66 -28t28 -67q0 -40 -27 -68q-27 -27 -67 -27t-69 26q-28 26 -27 68q0 41 28 69q29 27 68 27zM864 434v1000h150v-1002q0 -211 -118 -332
q-118 -120 -316 -120t-312 118q-115 118 -114 330v1006h153v-1000q0 -150 74 -234t205 -85q130 1 204 85t74 234z" />
    <glyph glyph-name="Yacute" unicode="&#xdd;" horiz-adv-x="1054" 
d="M465 1550l141 334h156l-180 -334h-117zM453 0v573l-443 861h172l348 -707l351 707h163l-440 -861v-573h-151z" />
    <glyph glyph-name="Thorn" unicode="&#xde;" horiz-adv-x="1095" 
d="M164 0v1434h151v-254h205q217 0 350 -122q134 -122 134 -306t-136 -308t-352 -125h-201v-319h-151zM315 1053v-604h203q150 0 242 86t92 215t-92 216t-242 87h-203z" />
    <glyph glyph-name="germandbls" unicode="&#xdf;" horiz-adv-x="1105" 
d="M598 682h-86v125h20q111 -1 178 67t66 179v22q0 113 -68 181t-177 67q-111 0 -177 -71t-65 -191v-1061h-146v1065q0 177 109 283t283 106t280 -98t107 -264v-23q0 -207 -168 -305q118 -35 184 -127t66 -234v-28q0 -183 -111 -289t-285 -106q-71 0 -131 16l17 125
q41 -10 104 -10q120 1 190 73t70 197v22q0 127 -72 203t-188 76z" />
    <glyph glyph-name="agrave" unicode="&#xe0;" horiz-adv-x="1024" 
d="M469 1516l141 -334h-116l-181 334h156zM891 651v-651h-115l-16 113q-96 -133 -297 -133q-164 0 -262 90t-99 231q0 141 102 233t274 93q173 0 267 -111v127q0 139 -71 214q-72 75 -197 75q-75 0 -141 -16t-94 -33l-29 -17l-45 117q48 32 138 56q91 24 190 24
q184 1 290 -107t105 -305zM499 94q113 0 185 60t72 153t-72 151t-186 58t-182 -58t-68 -152t68 -152q68 -60 183 -60z" />
    <glyph glyph-name="aacute" unicode="&#xe1;" horiz-adv-x="1024" 
d="M479 1182l142 334h155l-180 -334h-117zM891 651v-651h-115l-16 113q-96 -133 -297 -133q-164 0 -262 90t-99 231q0 141 102 233t274 93q173 0 267 -111v127q0 139 -71 214q-72 75 -197 75q-75 0 -141 -16t-94 -33l-29 -17l-45 117q48 32 138 56q91 24 190 24
q184 1 290 -107t105 -305zM499 94q113 0 185 60t72 153t-72 151t-186 58t-182 -58t-68 -152t68 -152q68 -60 183 -60z" />
    <glyph glyph-name="acircumflex" unicode="&#xe2;" horiz-adv-x="1024" 
d="M203 1182l248 334h127l249 -334h-129l-188 229l-186 -229h-121zM891 651v-651h-115l-16 113q-96 -133 -297 -133q-164 0 -262 90t-99 231q0 141 102 233t274 93q173 0 267 -111v127q0 139 -71 214q-72 75 -197 75q-75 0 -141 -16t-94 -33l-29 -17l-45 117q48 32 138 56
q91 24 190 24q184 1 290 -107t105 -305zM499 94q113 0 185 60t72 153t-72 151t-186 58t-182 -58t-68 -152t68 -152q68 -60 183 -60z" />
    <glyph glyph-name="atilde" unicode="&#xe3;" horiz-adv-x="1024" 
d="M657 1208q-90 0 -149 77t-115 77q-33 0 -53 -32t-25 -62l-2 -31l-98 6q0 78 40 145q17 30 54 54t86 22q49 0 89 -24t63 -52q61 -78 112 -77q33 0 54 31q20 32 24 63l4 33l99 -6q0 -78 -40 -146q-18 -30 -56 -54t-87 -24zM891 651v-651h-115l-16 113q-96 -133 -297 -133
q-164 0 -262 90t-99 231q0 141 102 233t274 93q173 0 267 -111v127q0 139 -71 214q-72 75 -197 75q-75 0 -141 -16t-94 -33l-29 -17l-45 117q48 32 138 56q91 24 190 24q184 1 290 -107t105 -305zM499 94q113 0 185 60t72 153t-72 151t-186 58t-182 -58t-68 -152t68 -152
q68 -60 183 -60z" />
    <glyph glyph-name="adieresis" unicode="&#xe4;" horiz-adv-x="1024" 
d="M337 1436q39 0 67 -28t28 -68t-28 -68t-68 -27q-40 0 -68 27q-26 28 -26 68t27 68q28 28 68 28zM694 1436q39 0 67 -28q27 -28 27 -68t-26 -68t-68 -27q-40 0 -68 27q-28 28 -28 68t28 68t68 28zM891 651v-651h-115l-16 113q-96 -133 -297 -133q-164 0 -262 90t-99 231
q0 141 102 233t274 93q173 0 267 -111v127q0 139 -71 214q-72 75 -197 75q-75 0 -141 -16t-94 -33l-29 -17l-45 117q48 32 138 56q91 24 190 24q184 1 290 -107t105 -305zM499 94q113 0 185 60t72 153t-72 151t-186 58t-182 -58t-68 -152t68 -152q68 -60 183 -60z" />
    <glyph glyph-name="aring" unicode="&#xe5;" horiz-adv-x="1024" 
d="M401 1384q0 -50 33 -80t81 -30t80 31t32 79t-32 80q-32 31 -80 31t-81 -31t-33 -80zM514 1577q86 0 144 -55q58 -56 58 -138t-58 -137t-144 -55t-143 55t-58 137t57 138t144 55zM891 651v-651h-115l-16 113q-96 -133 -297 -133q-164 0 -262 90t-99 231q0 141 102 233
t274 93q173 0 267 -111v127q0 139 -71 214q-72 75 -197 75q-75 0 -141 -16t-94 -33l-29 -17l-45 117q48 32 138 56q91 24 190 24q184 1 290 -107t105 -305zM499 94q113 0 185 60t72 153t-72 151t-186 58t-182 -58t-68 -152t68 -152q68 -60 183 -60z" />
    <glyph glyph-name="ae" unicode="&#xe6;" horiz-adv-x="1660" 
d="M499 94q113 0 185 60t72 153t-72 151t-186 58t-182 -58t-68 -152t68 -152q68 -60 183 -60zM469 -20q-166 0 -266 90t-101 231q0 141 102 233t273 93q172 0 268 -111v127q0 139 -71 214q-72 75 -197 75q-75 0 -141 -16t-94 -33l-29 -17l-45 117q48 32 138 56q91 24 190 24
q238 0 323 -191q94 190 328 191q179 -1 285 -107t106 -292v-138h-647v-141q1 -127 69 -201t185 -73q68 -1 119 25q50 26 74 63q50 79 57 137l2 24l139 -24q-2 -14 -5 -39t-28 -86t-62 -108q-38 -46 -117 -85t-183 -38q-231 0 -324 182q-43 -84 -134 -133t-214 -49zM891 668
v-39h506v39q0 126 -69 200q-68 74 -184 74t-184 -74t-69 -200z" />
    <glyph glyph-name="ccedilla" unicode="&#xe7;" horiz-adv-x="1017" 
d="M756 385h139v-18q0 -161 -87 -263t-235 -120q55 -63 55 -162t-76 -160q-77 -61 -174 -61t-165 34l23 101q40 -29 116 -29t116 38q40 37 40 109t-68 130q-145 18 -231 120t-86 265v301q0 180 108 286q109 106 282 106t277 -101q104 -102 105 -281v-12h-139v6
q0 118 -67 188t-177 70t-178 -72q-66 -72 -66 -192v-293q0 -121 67 -193t177 -72t178 70q66 70 66 189v16z" />
    <glyph glyph-name="egrave" unicode="&#xe8;" horiz-adv-x="1038" 
d="M446 1516l142 -334h-117l-180 334h155zM123 659q0 184 111 294q112 110 290 110q178 -1 284 -107t107 -292v-138h-647v-141q0 -127 70 -201t184 -73q171 0 234 161q14 37 18 64l2 24l137 -24q-2 -14 -5 -39q-4 -25 -28 -86t-62 -107t-117 -86q-79 -39 -181 -38
q-178 0 -288 108t-109 291v280zM268 668v-35h508v35q0 128 -70 200t-184 72t-184 -72t-70 -200z" />
    <glyph glyph-name="eacute" unicode="&#xe9;" horiz-adv-x="1038" 
d="M471 1182l141 334h156l-180 -334h-117zM123 659q0 184 111 294q112 110 290 110q178 -1 284 -107t107 -292v-138h-647v-141q0 -127 70 -201t184 -73q171 0 234 161q14 37 18 64l2 24l137 -24q-2 -14 -5 -39q-4 -25 -28 -86t-62 -107t-117 -86q-79 -39 -181 -38
q-178 0 -288 108t-109 291v280zM268 668v-35h508v35q0 128 -70 200t-184 72t-184 -72t-70 -200z" />
    <glyph glyph-name="ecircumflex" unicode="&#xea;" horiz-adv-x="1038" 
d="M207 1182l248 334h127l249 -334h-129l-188 229l-186 -229h-121zM123 659q0 184 111 294q112 110 290 110q178 -1 284 -107t107 -292v-138h-647v-141q0 -127 70 -201t184 -73q171 0 234 161q14 37 18 64l2 24l137 -24q-2 -14 -5 -39q-4 -25 -28 -86t-62 -107t-117 -86
q-79 -39 -181 -38q-178 0 -288 108t-109 291v280zM268 668v-35h508v35q0 128 -70 200t-184 72t-184 -72t-70 -200z" />
    <glyph glyph-name="edieresis" unicode="&#xeb;" horiz-adv-x="1038" 
d="M341 1436q40 0 68 -28q27 -28 27 -68t-28 -68t-68 -27q-41 0 -68 27q-26 28 -26 68t27 68q28 28 68 28zM698 1436q39 0 67 -28t28 -68t-27 -68t-68 -27q-40 0 -68 27q-28 28 -28 68t28 68t68 28zM123 659q0 184 111 294q112 110 290 110q178 -1 284 -107t107 -292v-138
h-647v-141q0 -127 70 -201t184 -73q171 0 234 161q14 37 18 64l2 24l137 -24q-2 -14 -5 -39q-4 -25 -28 -86t-62 -107t-117 -86q-79 -39 -181 -38q-178 0 -288 108t-109 291v280zM268 668v-35h508v35q0 128 -70 200t-184 72t-184 -72t-70 -200z" />
    <glyph glyph-name="igrave" unicode="&#xec;" horiz-adv-x="458" 
d="M154 0v1042h151v-1042h-151zM145 1516l142 -334h-117l-180 334h155z" />
    <glyph glyph-name="iacute" unicode="&#xed;" horiz-adv-x="458" 
d="M154 0v1042h151v-1042h-151zM172 1182l141 334h156l-180 -334h-117z" />
    <glyph glyph-name="icircumflex" unicode="&#xee;" horiz-adv-x="458" 
d="M154 0v1042h151v-1042h-151zM-84 1182l248 334h127l250 -334h-129l-189 229l-186 -229h-121z" />
    <glyph glyph-name="idieresis" unicode="&#xef;" horiz-adv-x="458" 
d="M154 0v1042h151v-1042h-151zM49 1245q-41 0 -67 27q-26 28 -27 68t27 68t68 28t68 -28t28 -68t-28 -68t-69 -27zM408 1436q38 0 66 -28t28 -68t-27 -68t-67 -27q-40 0 -69 27q-28 28 -28 68t29 68t68 28z" />
    <glyph glyph-name="eth" unicode="&#xf0;" horiz-adv-x="1044" 
d="M922 629v-246q0 -184 -112 -294q-112 -109 -290 -109t-288 108t-109 291v250q0 182 106 287t281 106q104 0 192 -64l-133 256l-282 -63v94l235 53l-69 136h151l49 -105l269 60v-95l-226 -51l158 -323q68 -139 68 -291zM268 627v-242q0 -127 70 -201t184 -74t185 74
q70 74 69 201v242q0 127 -70 201t-184 73q-114 1 -184 -73t-70 -201z" />
    <glyph glyph-name="ntilde" unicode="&#xf1;" horiz-adv-x="1054" 
d="M662 1208q-48 0 -88 24t-62 54q-58 76 -115 76q-33 0 -53 -32t-25 -62l-2 -31l-98 6q0 78 40 145q17 30 54 54t86 22q49 0 89 -24t63 -52q61 -78 113 -77q33 -1 53 31t24 63l4 33l99 -6q0 -138 -95 -200q-38 -24 -87 -24zM143 0v1042h127l9 -147q94 168 305 168
q156 0 246 -102t92 -302v-659h-146v627q0 305 -235 305q-113 0 -183 -74t-69 -217v-641h-146z" />
    <glyph glyph-name="ograve" unicode="&#xf2;" horiz-adv-x="1044" 
d="M432 1516l141 -334h-116l-181 334h156zM123 379v280q0 184 111 294q112 110 291 110q179 -1 288 -107t109 -292v-281q0 -184 -112 -294q-112 -109 -290 -109t-288 107q-109 108 -109 292zM268 657v-272q0 -127 70 -201t184 -74t185 74q70 74 69 201v272q0 127 -69 201
q-70 74 -185 74q-114 0 -184 -74t-70 -201z" />
    <glyph glyph-name="oacute" unicode="&#xf3;" horiz-adv-x="1044" 
d="M471 1182l141 334h156l-180 -334h-117zM123 379v280q0 184 111 294q112 110 291 110q179 -1 288 -107t109 -292v-281q0 -184 -112 -294q-112 -109 -290 -109t-288 107q-109 108 -109 292zM268 657v-272q0 -127 70 -201t184 -74t185 74q70 74 69 201v272q0 127 -69 201
q-70 74 -185 74q-114 0 -184 -74t-70 -201z" />
    <glyph glyph-name="ocircumflex" unicode="&#xf4;" horiz-adv-x="1044" 
d="M209 1182l248 334h127l250 -334h-129l-189 229l-186 -229h-121zM123 379v280q0 184 111 294q112 110 291 110q179 -1 288 -107t109 -292v-281q0 -184 -112 -294q-112 -109 -290 -109t-288 107q-109 108 -109 292zM268 657v-272q0 -127 70 -201t184 -74t185 74
q70 74 69 201v272q0 127 -69 201q-70 74 -185 74q-114 0 -184 -74t-70 -201z" />
    <glyph glyph-name="otilde" unicode="&#xf5;" horiz-adv-x="1044" 
d="M651 1208q-90 0 -149 77t-115 77q-33 0 -53 -32t-23 -62l-4 -31l-98 6q0 78 40 145q17 30 54 54t86 22q49 0 89 -24t63 -52q61 -78 112 -77q33 0 54 31q20 32 24 63l4 33l99 -6q0 -78 -40 -146q-18 -30 -56 -54t-87 -24zM123 379v280q0 184 111 294q112 110 291 110
q179 -1 288 -107t109 -292v-281q0 -184 -112 -294q-112 -109 -290 -109t-288 107q-109 108 -109 292zM268 657v-272q0 -127 70 -201t184 -74t185 74q70 74 69 201v272q0 127 -69 201q-70 74 -185 74q-114 0 -184 -74t-70 -201z" />
    <glyph glyph-name="odieresis" unicode="&#xf6;" horiz-adv-x="1044" 
d="M343 1436q40 0 68 -28q27 -28 27 -68t-28 -68t-67 -27q-40 0 -68 27q-27 28 -27 68t27 68q28 28 68 28zM700 1436q41 0 68 -28t27 -68t-27 -68t-68 -27q-40 0 -68 27q-28 28 -28 68t28 68t68 28zM123 379v280q0 184 111 294q112 110 291 110q179 -1 288 -107t109 -292
v-281q0 -184 -112 -294q-112 -109 -290 -109t-288 107q-109 108 -109 292zM268 657v-272q0 -127 70 -201t184 -74t185 74q70 74 69 201v272q0 127 -69 201q-70 74 -185 74q-114 0 -184 -74t-70 -201z" />
    <glyph glyph-name="divide" unicode="&#xf7;" horiz-adv-x="1034" 
d="M516 428q41 0 71 -29q29 -29 29 -69t-30 -71q-30 -30 -70 -30q-41 0 -70 30q-28 30 -28 70q0 39 28 69t70 30zM952 668h-870v125h870v-125zM516 1231q41 0 71 -29q29 -30 29 -70t-30 -70t-70 -30q-41 0 -70 30q-28 30 -28 70t28 70t70 29z" />
    <glyph glyph-name="oslash" unicode="&#xf8;" horiz-adv-x="1044" 
d="M780 387v270q0 68 -22 125l-420 -606q70 -70 186 -70t187 75q69 75 69 206zM264 657v-270q0 -76 21 -129l420 608q-68 72 -185 72q-116 0 -186 -75t-70 -206zM922 666v-281q0 -186 -112 -296q-112 -109 -280 -109t-272 81l-84 -122h-111l132 190q-72 96 -72 250v280
q0 184 111 295q112 111 280 111t270 -84l86 125h111l-131 -191q72 -104 72 -249z" />
    <glyph glyph-name="ugrave" unicode="&#xf9;" horiz-adv-x="1054" 
d="M451 1516l141 -334h-117l-180 334h156zM911 1042v-1042h-127l-8 147q-94 -168 -305 -167q-156 0 -247 102t-91 301v659h146v-626q0 -305 235 -305q112 -1 182 73t70 217v641h145z" />
    <glyph glyph-name="uacute" unicode="&#xfa;" horiz-adv-x="1054" 
d="M469 1182l141 334h156l-180 -334h-117zM911 1042v-1042h-127l-8 147q-94 -168 -305 -167q-156 0 -247 102t-91 301v659h146v-626q0 -305 235 -305q112 -1 182 73t70 217v641h145z" />
    <glyph glyph-name="ucircumflex" unicode="&#xfb;" horiz-adv-x="1054" 
d="M219 1182l248 334h127l250 -334h-129l-189 229l-186 -229h-121zM911 1042v-1042h-127l-8 147q-94 -168 -305 -167q-156 0 -247 102t-91 301v659h146v-626q0 -305 235 -305q112 -1 182 73t70 217v641h145z" />
    <glyph glyph-name="udieresis" unicode="&#xfc;" horiz-adv-x="1054" 
d="M352 1245q-42 0 -68 27q-26 28 -26 68t28 68t67 28q40 0 68 -28t28 -68t-28 -68t-69 -27zM711 1436q39 0 67 -28t27 -68q0 -40 -27 -68q-28 -28 -68 -27q-40 0 -68 27q-28 28 -28 68t29 68t68 28zM911 1042v-1042h-127l-8 147q-94 -168 -305 -167q-156 0 -247 102
t-91 301v659h146v-626q0 -305 235 -305q112 -1 182 73t70 217v641h145z" />
    <glyph glyph-name="yacute" unicode="&#xfd;" horiz-adv-x="901" 
d="M408 1182l141 334h156l-181 -334h-116zM172 -219q66 0 118 48t91 171l-361 1042h158l277 -856l274 856h152l-375 -1083q-59 -168 -140 -238q-81 -69 -180 -69t-145 29l31 116q34 -16 100 -16z" />
    <glyph glyph-name="thorn" unicode="&#xfe;" horiz-adv-x="1064" 
d="M143 -328v1762h146v-519q92 147 291 148q166 0 264 -101t98 -280v-315q0 -179 -101 -283t-282 -104t-270 141v-449h-146zM289 657v-272q-1 -127 69 -201t185 -74t185 74t69 201v272q0 127 -70 201q-71 74 -185 74t-184 -74t-69 -201z" />
    <glyph glyph-name="ydieresis" unicode="&#xff;" horiz-adv-x="901" 
d="M373 1340q0 -40 -28 -68t-68 -27q-39 0 -67 27q-28 28 -28 68t28 68t67 28q40 0 68 -28t28 -68zM635 1436q41 0 67 -28t27 -68q0 -40 -27 -68q-28 -28 -68 -27q-40 0 -68 27q-28 28 -28 68t28 68t69 28zM172 -219q66 0 118 48t91 171l-361 1042h158l277 -856l274 856h152
l-375 -1083q-59 -168 -140 -238q-81 -69 -180 -69t-145 29l31 116q34 -16 100 -16z" />
    <glyph glyph-name="Amacron" unicode="&#x100;" horiz-adv-x="1099" 
d="M238 1640v101h624v-101h-624zM625 1434l454 -1434h-159l-125 401h-498l-125 -401h-152l457 1434h148zM545 1223l-217 -705h434z" />
    <glyph glyph-name="amacron" unicode="&#x101;" horiz-adv-x="1024" 
d="M219 1272v100h625v-100h-625zM891 651v-651h-115l-16 113q-96 -133 -297 -133q-164 0 -262 90t-99 231q0 141 102 233t274 93q173 0 267 -111v127q0 139 -71 214q-72 75 -197 75q-75 0 -141 -16t-94 -33l-29 -17l-45 117q48 32 138 56q91 24 190 24q184 1 290 -107
t105 -305zM499 94q113 0 185 60t72 153t-72 151t-186 58t-182 -58t-68 -152t68 -152q68 -60 183 -60z" />
    <glyph glyph-name="Abreve" unicode="&#x102;" horiz-adv-x="1099" 
d="M270 1884h113v-59q0 -78 44 -126t122 -48t122 48t44 126v59h112v-55q-1 -123 -79 -201t-200 -78t-200 77t-78 200v57zM625 1434l454 -1434h-159l-125 401h-498l-125 -401h-152l457 1434h148zM545 1223l-217 -705h434z" />
    <glyph glyph-name="abreve" unicode="&#x103;" horiz-adv-x="1024" 
d="M254 1516h113v-60q0 -78 44 -126q43 -48 121 -48t122 48t44 126v60h113v-56q0 -122 -79 -200t-201 -78q-121 0 -199 76t-78 200v58zM891 651v-651h-115l-16 113q-96 -133 -297 -133q-164 0 -262 90t-99 231q0 141 102 233t274 93q173 0 267 -111v127q0 139 -71 214
q-72 75 -197 75q-75 0 -141 -16t-94 -33l-29 -17l-45 117q48 32 138 56q91 24 190 24q184 1 290 -107t105 -305zM499 94q113 0 185 60t72 153t-72 151t-186 58t-182 -58t-68 -152t68 -152q68 -60 183 -60z" />
    <glyph glyph-name="Aogonek" unicode="&#x104;" horiz-adv-x="1099" 
d="M545 1223l-217 -705h434zM1128 -272q62 0 107 18l18 -94q-41 -31 -141 -31t-176 66t-76 162t55 159l-120 393h-498l-125 -401h-152l457 1434h148l454 -1434h-55q-53 -34 -53 -112t47 -119q48 -41 110 -41z" />
    <glyph glyph-name="aogonek" unicode="&#x105;" horiz-adv-x="1024" 
d="M499 94q113 0 185 60t72 153t-72 151t-186 58t-182 -58t-68 -152t68 -152q68 -60 183 -60zM960 -272q62 0 107 18l18 -94q-41 -31 -141 -31t-176 66t-76 171t78 175l-10 80q-96 -133 -297 -133q-164 0 -262 90t-99 231q0 141 102 233t274 93q173 0 267 -111v127
q0 139 -71 214q-72 75 -197 75q-75 0 -141 -16t-94 -33l-29 -17l-45 117q48 32 138 56q91 24 190 24q184 1 290 -107t105 -305v-651h-35q-53 -34 -53 -112t47 -119q48 -41 110 -41z" />
    <glyph glyph-name="Cacute" unicode="&#x106;" horiz-adv-x="1140" 
d="M496 1550l141 334h156l-181 -334h-116zM852 434v62h145v-64q1 -211 -115 -332q-116 -120 -313 -120t-311 118t-115 330v573q0 211 118 332q119 121 315 121t309 -119t112 -329v-50h-145v41q0 152 -74 236t-205 84t-205 -84t-73 -236v-563q0 -150 74 -234q75 -84 205 -85
q130 1 204 85t74 234z" />
    <glyph glyph-name="cacute" unicode="&#x107;" horiz-adv-x="1017" 
d="M434 1182l141 334h156l-180 -334h-117zM756 385h139v-18q0 -179 -108 -283q-107 -104 -279 -104t-279 104q-106 104 -106 285v301q0 180 108 286q109 106 282 106t277 -101q104 -102 105 -281v-12h-139v6q0 118 -67 188t-177 70t-178 -72q-66 -72 -66 -192v-293
q0 -121 67 -193t177 -72t178 70q66 70 66 189v16z" />
    <glyph glyph-name="Ccircumflex" unicode="&#x108;" horiz-adv-x="1140" 
d="M258 1550l248 334h127l250 -334h-129l-189 230l-186 -230h-121zM852 434v62h145v-64q1 -211 -115 -332q-116 -120 -313 -120t-311 118t-115 330v573q0 211 118 332q119 121 315 121t309 -119t112 -329v-50h-145v41q0 152 -74 236t-205 84t-205 -84t-73 -236v-563
q0 -150 74 -234q75 -84 205 -85q130 1 204 85t74 234z" />
    <glyph glyph-name="ccircumflex" unicode="&#x109;" horiz-adv-x="1017" 
d="M197 1182l247 334h127l250 -334h-129l-188 229l-187 -229h-120zM756 385h139v-18q0 -179 -108 -283q-107 -104 -279 -104t-279 104q-106 104 -106 285v301q0 180 108 286q109 106 282 106t277 -101q104 -102 105 -281v-12h-139v6q0 118 -67 188t-177 70t-178 -72
q-66 -72 -66 -192v-293q0 -121 67 -193t177 -72t178 70q66 70 66 189v16z" />
    <glyph glyph-name="Cdotaccent" unicode="&#x10a;" horiz-adv-x="1140" 
d="M571 1806q39 0 67 -28t28 -67t-28 -67t-68 -28t-68 26t-27 67t29 69t67 28zM852 434v62h145v-64q1 -211 -115 -332q-116 -120 -313 -120t-311 118t-115 330v573q0 211 118 332q119 121 315 121t309 -119t112 -329v-50h-145v41q0 152 -74 236t-205 84t-205 -84t-73 -236
v-563q0 -150 74 -234q75 -84 205 -85q130 1 204 85t74 234z" />
    <glyph glyph-name="cdotaccent" unicode="&#x10b;" horiz-adv-x="1017" 
d="M510 1438q39 0 67 -28q27 -28 27 -68t-28 -68t-67 -27q-40 0 -68 27q-27 26 -27 66t28 69q29 29 68 29zM756 385h139v-18q0 -179 -108 -283q-107 -104 -279 -104t-279 104q-106 104 -106 285v301q0 180 108 286q109 106 282 106t277 -101q104 -102 105 -281v-12h-139v6
q0 118 -67 188t-177 70t-178 -72q-66 -72 -66 -192v-293q0 -121 67 -193t177 -72t178 70q66 70 66 189v16z" />
    <glyph glyph-name="Ccaron" unicode="&#x10c;" horiz-adv-x="1140" 
d="M883 1884l-248 -334h-127l-250 334h129l188 -229l187 229h121zM852 434v62h145v-64q1 -211 -115 -332q-116 -120 -313 -120t-311 118t-115 330v573q0 211 118 332q119 121 315 121t309 -119t112 -329v-50h-145v41q0 152 -74 236t-205 84t-205 -84t-73 -236v-563
q0 -150 74 -234q75 -84 205 -85q130 1 204 85t74 234z" />
    <glyph glyph-name="ccaron" unicode="&#x10d;" horiz-adv-x="1017" 
d="M821 1516l-248 -334h-127l-249 334h129l188 -230l186 230h121zM756 385h139v-18q0 -179 -108 -283q-107 -104 -279 -104t-279 104q-106 104 -106 285v301q0 180 108 286q109 106 282 106t277 -101q104 -102 105 -281v-12h-139v6q0 118 -67 188t-177 70t-178 -72
q-66 -72 -66 -192v-293q0 -121 67 -193t177 -72t178 70q66 70 66 189v16z" />
    <glyph glyph-name="Dcaron" unicode="&#x10e;" 
d="M895 1884l-248 -334h-127l-250 334h129l189 -229l186 229h121zM164 1434h403q219 0 338 -125t119 -359v-461q0 -233 -121 -361t-340 -128h-399v1434zM315 1300v-1167h248q150 0 230 92t79 260v461q0 170 -79 262q-80 92 -230 92h-248z" />
    <glyph glyph-name="dcaron" unicode="&#x10f;" horiz-adv-x="1277" 
d="M922 1434v-1434h-129l-9 139q-92 -160 -299 -159q-166 0 -264 101t-98 279v318q0 178 101 281t282 103t270 -140v512h146zM776 385v272q0 127 -69 201q-70 74 -185 74q-114 0 -184 -74t-70 -201v-272q0 -127 70 -201t184 -74t185 74q69 74 69 201zM1171 963h-106l55 471
h158z" />
    <glyph glyph-name="Dcroat" unicode="&#x110;" horiz-adv-x="1232" 
d="M229 0v680h-188v98h188v656h406q219 0 337 -125t118 -359v-461q0 -233 -121 -361t-340 -128h-400zM381 1300v-522h315v-98h-315v-547h248q151 0 231 92t80 260v461q0 170 -80 262t-231 92h-248z" />
    <glyph glyph-name="dcroat" unicode="&#x111;" horiz-adv-x="1099" 
d="M922 1434v-138h137v-100h-137v-1196h-129l-9 139q-92 -160 -299 -159q-166 0 -264 101t-98 279v318q0 178 101 281t282 103t270 -140v274h-307v100h307v138h146zM776 385v272q0 127 -69 201q-70 74 -185 74q-114 0 -184 -74t-70 -201v-272q0 -127 70 -201t184 -74t185 74
q69 74 69 201z" />
    <glyph glyph-name="Emacron" unicode="&#x112;" horiz-adv-x="962" 
d="M209 1640v101h625v-101h-625zM891 0h-727v1434h717v-134h-566v-491h484v-125h-484v-551h576v-133z" />
    <glyph glyph-name="emacron" unicode="&#x113;" horiz-adv-x="1038" 
d="M207 1272v100h624v-100h-624zM123 659q0 184 111 294q112 110 290 110q178 -1 284 -107t107 -292v-138h-647v-141q0 -127 70 -201t184 -73q171 0 234 161q14 37 18 64l2 24l137 -24q-2 -14 -5 -39q-4 -25 -28 -86t-62 -107t-117 -86q-79 -39 -181 -38q-178 0 -288 108
t-109 291v280zM268 668v-35h508v35q0 128 -70 200t-184 72t-184 -72t-70 -200z" />
    <glyph glyph-name="Ebreve" unicode="&#x114;" horiz-adv-x="962" 
d="M254 1884h113v-59q0 -78 44 -126q43 -48 121 -48t122 48t44 126v59h113v-55q0 -123 -79 -201t-201 -78q-121 0 -199 77t-78 200v57zM891 0h-727v1434h717v-134h-566v-491h484v-125h-484v-551h576v-133z" />
    <glyph glyph-name="ebreve" unicode="&#x115;" horiz-adv-x="1038" 
d="M242 1516h112v-60q0 -78 44 -126t122 -48t122 48t44 126v60h113v-56q0 -122 -79 -200t-201 -78t-200 76t-77 200v58zM123 659q0 184 111 294q112 110 290 110q178 -1 284 -107t107 -292v-138h-647v-141q0 -127 70 -201t184 -73q171 0 234 161q14 37 18 64l2 24l137 -24
q-2 -14 -5 -39q-4 -25 -28 -86t-62 -107t-117 -86q-79 -39 -181 -38q-178 0 -288 108t-109 291v280zM268 668v-35h508v35q0 128 -70 200t-184 72t-184 -72t-70 -200z" />
    <glyph glyph-name="Edotaccent" unicode="&#x116;" horiz-adv-x="962" 
d="M543 1806q39 0 67 -28t27 -67q0 -39 -28 -67q-27 -28 -67 -28t-68 26t-28 67t29 69t68 28zM891 0h-727v1434h717v-134h-566v-491h484v-125h-484v-551h576v-133z" />
    <glyph glyph-name="edotaccent" unicode="&#x117;" horiz-adv-x="1038" 
d="M520 1247q-40 0 -68 27q-28 26 -28 66t28 69t67 29q40 0 68 -28q27 -28 27 -68t-26 -68t-68 -27zM123 659q0 184 111 294q112 110 290 110q178 -1 284 -107t107 -292v-138h-647v-141q0 -127 70 -201t184 -73q171 0 234 161q14 37 18 64l2 24l137 -24q-2 -14 -5 -39
q-4 -25 -28 -86t-62 -107t-117 -86q-79 -39 -181 -38q-178 0 -288 108t-109 291v280zM268 668v-35h508v35q0 128 -70 200t-184 72t-184 -72t-70 -200z" />
    <glyph glyph-name="Eogonek" unicode="&#x118;" horiz-adv-x="962" 
d="M781 -272q58 0 112 18l18 -94q-41 -31 -141 -31t-176 66t-76 158t47 155h-401v1434h717v-134h-566v-491h484v-125h-484v-551h576v-133h-209q-53 -34 -53 -112t47 -119t105 -41z" />
    <glyph glyph-name="eogonek" unicode="&#x119;" horiz-adv-x="1038" 
d="M268 668v-35h508v35q0 128 -70 200t-184 72t-184 -72t-70 -200zM758 -272q62 0 108 18l19 -94q-41 -31 -141 -31t-177 66q-76 66 -75 170q0 70 34 123h-6q-178 0 -288 108t-109 291v280q0 184 111 294q112 110 290 110q178 -1 284 -107t107 -292v-138h-647v-141
q0 -127 70 -201t184 -73q171 0 234 161q14 37 18 64l2 24l137 -24q0 -28 -19 -88t-45 -102t-78 -85t-120 -63q-18 -9 -34 -49q-15 -39 -15 -89t47 -91t109 -41z" />
    <glyph glyph-name="Ecaron" unicode="&#x11a;" horiz-adv-x="962" 
d="M844 1884l-248 -334h-127l-250 334h129l189 -229l186 229h121zM891 0h-727v1434h717v-134h-566v-491h484v-125h-484v-551h576v-133z" />
    <glyph glyph-name="ecaron" unicode="&#x11b;" horiz-adv-x="1038" 
d="M831 1516l-247 -334h-127l-250 334h129l188 -230l187 230h120zM123 659q0 184 111 294q112 110 290 110q178 -1 284 -107t107 -292v-138h-647v-141q0 -127 70 -201t184 -73q171 0 234 161q14 37 18 64l2 24l137 -24q-2 -14 -5 -39q-4 -25 -28 -86t-62 -107t-117 -86
q-79 -39 -181 -38q-178 0 -288 108t-109 291v280zM268 668v-35h508v35q0 128 -70 200t-184 72t-184 -72t-70 -200z" />
    <glyph glyph-name="Gcircumflex" unicode="&#x11c;" 
d="M270 1550l248 334h127l250 -334h-129l-188 230l-187 -230h-121zM1024 442q0 -214 -120 -338t-323 -124q-202 0 -320 122t-118 336v553q0 215 121 339t323 124q201 0 319 -122t118 -337v-24h-152v16q0 156 -75 243q-76 87 -213 87t-213 -87t-76 -243v-538q0 -158 77 -247
t214 -89t215 89t78 247v163h-281v117h426v-287z" />
    <glyph glyph-name="gcircumflex" unicode="&#x11d;" horiz-adv-x="1064" 
d="M219 1182l248 334h127l250 -334h-129l-189 229l-186 -229h-121zM466 -217q158 0 234 80t76 229v121q-100 -147 -278 -147t-277 102q-98 102 -98 281v229q0 178 101 281t268 104q201 0 292 -154l9 133h129v-944q0 -210 -116 -328t-321 -118q-98 0 -182 18t-119 35l-37 19
l50 120q111 -61 269 -61zM776 467v190q0 127 -69 201q-70 74 -185 74q-114 0 -184 -74t-70 -201v-190q0 -127 70 -201t184 -74t185 74q69 74 69 201z" />
    <glyph glyph-name="Gbreve" unicode="&#x11e;" 
d="M305 1884h113v-59q0 -78 44 -126t122 -48t122 48t44 126v59h112v-55q0 -123 -79 -201t-201 -78t-199 77q-78 77 -78 200v57zM1024 442q0 -214 -120 -338t-323 -124q-202 0 -320 122t-118 336v553q0 215 121 339t323 124q201 0 319 -122t118 -337v-24h-152v16
q0 156 -75 243q-76 87 -213 87t-213 -87t-76 -243v-538q0 -158 77 -247t214 -89t215 89t78 247v163h-281v117h426v-287z" />
    <glyph glyph-name="gbreve" unicode="&#x11f;" horiz-adv-x="1064" 
d="M254 1516h113v-60q0 -78 44 -126q43 -48 121 -48t122 48t44 126v60h113v-56q0 -122 -79 -200t-201 -78q-121 0 -199 76t-78 200v58zM466 -217q158 0 234 80t76 229v121q-100 -147 -278 -147t-277 102q-98 102 -98 281v229q0 178 101 281t268 104q201 0 292 -154l9 133
h129v-944q0 -210 -116 -328t-321 -118q-98 0 -182 18t-119 35l-37 19l50 120q111 -61 269 -61zM776 467v190q0 127 -69 201q-70 74 -185 74q-114 0 -184 -74t-70 -201v-190q0 -127 70 -201t184 -74t185 74q69 74 69 201z" />
    <glyph glyph-name="Gdotaccent" unicode="&#x120;" 
d="M584 1806q38 0 66 -28t28 -67t-28 -67t-68 -28t-67 26q-28 26 -28 67t29 69t68 28zM1024 442q0 -214 -120 -338t-323 -124q-202 0 -320 122t-118 336v553q0 215 121 339t323 124q201 0 319 -122t118 -337v-24h-152v16q0 156 -75 243q-76 87 -213 87t-213 -87t-76 -243
v-538q0 -158 77 -247t214 -89t215 89t78 247v163h-281v117h426v-287z" />
    <glyph glyph-name="gdotaccent" unicode="&#x121;" horiz-adv-x="1064" 
d="M532 1247q-40 0 -68 27q-28 26 -28 66t28 69t67 29q40 0 68 -28t28 -68t-27 -68t-68 -27zM466 -217q158 0 234 80t76 229v121q-100 -147 -278 -147t-277 102q-98 102 -98 281v229q0 178 101 281t268 104q201 0 292 -154l9 133h129v-944q0 -210 -116 -328t-321 -118
q-98 0 -182 18t-119 35l-37 19l50 120q111 -61 269 -61zM776 467v190q0 127 -69 201q-70 74 -185 74q-114 0 -184 -74t-70 -201v-190q0 -127 70 -201t184 -74t185 74q69 74 69 201z" />
    <glyph glyph-name="Gcommaaccent" unicode="&#x122;" 
d="M365 -436l141 334h156l-181 -334h-116zM1024 442q0 -214 -120 -338t-323 -124q-202 0 -320 122t-118 336v553q0 215 121 339t323 124q201 0 319 -122t118 -337v-24h-152v16q0 156 -75 243q-76 87 -213 87t-213 -87t-76 -243v-538q0 -158 77 -247t214 -89t215 89t78 247
v163h-281v117h426v-287z" />
    <glyph glyph-name="gcommaaccent" unicode="&#x123;" horiz-adv-x="1064" 
d="M754 1516l-142 -334h-155l180 334h117zM466 -217q158 0 234 80t76 229v121q-100 -147 -278 -147t-277 102q-98 102 -98 281v229q0 178 101 281t268 104q201 0 292 -154l9 133h129v-944q0 -210 -116 -328t-321 -118q-98 0 -182 18t-119 35l-37 19l50 120q111 -61 269 -61z
M776 467v190q0 127 -69 201q-70 74 -185 74q-114 0 -184 -74t-70 -201v-190q0 -127 70 -201t184 -74t185 74q69 74 69 201z" />
    <glyph glyph-name="Hcircumflex" unicode="&#x124;" horiz-adv-x="1187" 
d="M281 1550l247 334h127l250 -334h-129l-188 230l-187 -230h-120zM872 0v688h-557v-688h-151v1434h151v-611h557v611h152v-1434h-152z" />
    <glyph glyph-name="hcircumflex" unicode="&#x125;" horiz-adv-x="1054" 
d="M215 1550l248 334h127l250 -334h-129l-189 230l-186 -230h-121zM143 0v1434h146v-533q92 162 295 162q156 0 246 -102t92 -302v-659h-146v627q0 305 -235 305q-115 0 -184 -76t-68 -225v-631h-146z" />
    <glyph glyph-name="Hbar" unicode="&#x126;" horiz-adv-x="1290" 
d="M215 0v1073h-174v101h174v260h152v-260h557v260h151v-260h174v-101h-174v-1073h-151v688h-557v-688h-152zM367 1073v-250h557v250h-557z" />
    <glyph glyph-name="hbar" unicode="&#x127;" horiz-adv-x="1089" 
d="M178 0v1196h-137v100h137v138h148v-138h307v-100h-307v-295q88 162 292 162q156 0 247 -102t91 -302v-659h-145v627q0 305 -233 305q-113 0 -183 -73t-69 -216v-643h-148z" />
    <glyph glyph-name="Itilde" unicode="&#x128;" horiz-adv-x="503" 
d="M121 1833q49 0 89 -24q40 -23 62 -53q58 -76 113 -77q33 0 53 32t25 63l4 32l98 -6q0 -136 -95 -198q-38 -24 -87 -25q-89 0 -149 77t-115 77q-33 0 -53 -32t-25 -63l-2 -30l-98 6q0 80 40 144q17 30 54 54t86 23zM174 0v1434h156v-1434h-156z" />
    <glyph glyph-name="itilde" unicode="&#x129;" horiz-adv-x="458" 
d="M358 1208q-90 0 -149 77t-115 77q-33 0 -53 -32t-25 -62l-2 -31l-98 6q0 78 40 145q17 30 54 54t86 22q49 0 89 -24t63 -52q61 -78 112 -77q33 0 54 31q20 32 24 63l4 33l99 -6q0 -78 -40 -146q-17 -30 -55 -54t-88 -24zM154 0v1042h151v-1042h-151z" />
    <glyph glyph-name="Imacron" unicode="&#x12a;" horiz-adv-x="503" 
d="M-61 1640v101h624v-101h-624zM174 0v1434h156v-1434h-156z" />
    <glyph glyph-name="imacron" unicode="&#x12b;" horiz-adv-x="458" 
d="M-84 1272v100h625v-100h-625zM154 0v1042h151v-1042h-151z" />
    <glyph glyph-name="Ibreve" unicode="&#x12c;" horiz-adv-x="503" 
d="M-27 1884h113v-59q0 -78 44 -126t122 -48t122 48t44 126v59h112v-55q0 -123 -78 -201t-201 -78q-122 0 -200 77t-78 200v57zM174 0v1434h156v-1434h-156z" />
    <glyph glyph-name="ibreve" unicode="&#x12d;" horiz-adv-x="458" 
d="M-49 1516h112v-60q1 -78 45 -126t122 -48t121 48q44 48 44 126v60h113v-56q0 -122 -79 -200t-201 -78t-200 76t-77 200v58zM154 0v1042h151v-1042h-151z" />
    <glyph glyph-name="Iogonek" unicode="&#x12e;" horiz-adv-x="503" 
d="M378 -272q62 0 107 18l19 -94q-42 -31 -142 -31t-176 66t-76 166t64 163v1418h156v-1434h-56q-53 -34 -53 -112t47 -119q48 -41 110 -41z" />
    <glyph glyph-name="iogonek" unicode="&#x12f;" horiz-adv-x="458" 
d="M229 1448q45 0 75 -31t30 -75t-30 -74t-75 -29q-45 0 -75 30q-30 29 -29 73q-1 44 29 75t75 31zM354 -272q62 0 107 18l18 -94q-41 -31 -141 -31t-176 66t-76 168t68 165v1022h151v-1042h-55q-53 -34 -53 -112t47 -119q48 -41 110 -41z" />
    <glyph glyph-name="Idotaccent" unicode="&#x130;" horiz-adv-x="503" 
d="M252 1806q38 0 66 -28t28 -67t-28 -67t-68 -28t-67 26t-27 67q0 40 28 69q29 28 68 28zM174 0v1434h156v-1434h-156z" />
    <glyph glyph-name="dotlessi" unicode="&#x131;" horiz-adv-x="458" 
d="M154 0v1042h151v-1042h-151z" />
    <glyph glyph-name="IJ" unicode="&#x132;" horiz-adv-x="1200" 
d="M909 1434h158v-1043q0 -195 -105 -303t-286 -108q-83 0 -131 16l26 133q35 -10 101 -10q115 0 176 74t61 206v1035zM174 0v1434h156v-1434h-156z" />
    <glyph glyph-name="ij" unicode="&#x133;" horiz-adv-x="917" 
d="M688 1448q45 0 75 -31t30 -75t-30 -74t-75 -29q-45 0 -75 30q-29 29 -29 73t29 75q30 31 75 31zM612 1042h152v-1085q0 -147 -77 -226t-202 -79q-60 0 -108 16l20 123q43 -10 82 -10q133 0 133 156v1105zM229 1448q45 0 75 -31t30 -75t-30 -74t-75 -29q-45 0 -75 30
q-30 29 -29 73q-1 44 29 75t75 31zM154 0v1042h151v-1042h-151z" />
    <glyph glyph-name="Jcircumflex" unicode="&#x134;" horiz-adv-x="696" 
d="M174 1550l248 334h127l250 -334h-129l-189 230l-186 -230h-121zM406 1434h157v-1043q0 -195 -105 -303t-286 -108q-83 0 -131 16l27 133q35 -10 100 -10q115 0 176 74t62 206v1035z" />
    <glyph glyph-name="jcircumflex" unicode="&#x135;" horiz-adv-x="458" 
d="M-82 1182l248 334h127l250 -334h-129l-189 229l-186 -229h-121zM154 1042h151v-1085q0 -147 -77 -226t-201 -79q-61 0 -109 16l21 123q43 -10 81 -10q133 0 134 156v1105z" />
    <glyph glyph-name="Kcommaaccent" unicode="&#x136;" horiz-adv-x="1015" 
d="M334 -436l141 334h156l-180 -334h-117zM164 0v1434h151v-676l500 676h180l-532 -689l553 -745h-180l-521 715v-715h-151z" />
    <glyph glyph-name="kcommaaccent" unicode="&#x137;" horiz-adv-x="925" 
d="M272 -436l142 334h155l-180 -334h-117zM143 0v1434h146v-854l432 462h184l-465 -471l486 -571h-187l-450 543v-543h-146z" />
    <glyph glyph-name="Lacute" unicode="&#x139;" horiz-adv-x="901" 
d="M188 1550l142 334h155l-180 -334h-117zM164 0v1434h151v-1299h535v-135h-686z" />
    <glyph glyph-name="lacute" unicode="&#x13a;" horiz-adv-x="458" 
d="M172 1550l141 334h156l-180 -334h-117zM154 0v1434h151v-1434h-151z" />
    <glyph glyph-name="Lcommaaccent" unicode="&#x13b;" horiz-adv-x="901" 
d="M303 -436l141 334h156l-180 -334h-117zM164 0v1434h151v-1299h535v-135h-686z" />
    <glyph glyph-name="lcommaaccent" unicode="&#x13c;" horiz-adv-x="434" 
d="M4 -436l141 334h156l-180 -334h-117zM154 0v1434h151v-1434h-151z" />
    <glyph glyph-name="Lcaron" unicode="&#x13d;" horiz-adv-x="901" 
d="M164 0v1434h151v-1299h535v-135h-686zM686 963h-108l57 471h156z" />
    <glyph glyph-name="lcaron" unicode="&#x13e;" horiz-adv-x="659" 
d="M154 0v1434h151v-1434h-151zM555 963h-109l58 471h155z" />
    <glyph glyph-name="Ldot" unicode="&#x13f;" horiz-adv-x="901" 
d="M618 829q45 1 75 -29t30 -75t-30 -75t-75 -30q-44 0 -74 30t-30 75t30 75t74 29zM164 0v1434h151v-1299h535v-135h-686z" />
    <glyph glyph-name="ldot" unicode="&#x140;" horiz-adv-x="722" 
d="M578 821q44 1 74 -29t30 -75t-30 -75t-74 -30t-75 30q-30 30 -30 75t30 75t75 29zM154 0v1434h151v-1434h-151z" />
    <glyph glyph-name="Lslash" unicode="&#x141;" horiz-adv-x="952" 
d="M901 0h-686v672l-174 -37v102l174 37v660h150v-631l383 82v-103l-383 -82v-563h536v-137z" />
    <glyph glyph-name="lslash" unicode="&#x142;" horiz-adv-x="559" 
d="M193 0v680l-152 -31v103l152 30v652h151v-623l174 33v-103l-174 -32v-709h-151z" />
    <glyph glyph-name="Nacute" unicode="&#x143;" horiz-adv-x="1208" 
d="M537 1550l141 334h156l-181 -334h-116zM303 0h-139v1434h147l592 -1145v1145h141v-1434h-141l-600 1159v-1159z" />
    <glyph glyph-name="nacute" unicode="&#x144;" horiz-adv-x="1054" 
d="M479 1182l142 334h155l-180 -334h-117zM143 0v1042h127l9 -147q94 168 305 168q156 0 246 -102t92 -302v-659h-146v627q0 305 -235 305q-113 0 -183 -74t-69 -217v-641h-146z" />
    <glyph glyph-name="Ncommaaccent" unicode="&#x145;" horiz-adv-x="1208" 
d="M375 -436l141 334h156l-180 -334h-117zM303 0h-139v1434h147l592 -1145v1145h141v-1434h-141l-600 1159v-1159z" />
    <glyph glyph-name="ncommaaccent" unicode="&#x146;" horiz-adv-x="1054" 
d="M313 -436l142 334h155l-180 -334h-117zM143 0v1042h127l9 -147q94 168 305 168q156 0 246 -102t92 -302v-659h-146v627q0 305 -235 305q-113 0 -183 -74t-69 -217v-641h-146z" />
    <glyph glyph-name="Ncaron" unicode="&#x147;" horiz-adv-x="1208" 
d="M915 1884l-247 -334h-127l-250 334h129l188 -229l187 229h120zM303 0h-139v1434h147l592 -1145v1145h141v-1434h-141l-600 1159v-1159z" />
    <glyph glyph-name="ncaron" unicode="&#x148;" horiz-adv-x="1054" 
d="M840 1516l-248 -334h-127l-250 334h129l188 -230l187 230h121zM143 0v1042h127l9 -147q94 168 305 168q156 0 246 -102t92 -302v-659h-146v627q0 305 -235 305q-113 0 -183 -74t-69 -217v-641h-146z" />
    <glyph glyph-name="Eng" unicode="&#x14a;" horiz-adv-x="1208" 
d="M721 -225q178 0 184 225l-602 1159v-1159h-139v1434h147l594 -1143v1143h139v-1405q0 -190 -81 -284q-82 -93 -228 -93q-64 0 -112 16l22 117q39 -10 76 -10z" />
    <glyph glyph-name="eng" unicode="&#x14b;" horiz-adv-x="1054" 
d="M289 627v-627h-146v1042h127l9 -147q94 168 305 168q156 0 246 -102t92 -302v-702q0 -147 -74 -226t-197 -79q-56 0 -92 12l-12 2l18 125q39 -10 89 -10t86 39t36 114v693q0 305 -235 305q-115 0 -183 -76t-69 -229z" />
    <glyph glyph-name="Omacron" unicode="&#x14c;" 
d="M270 1640v101h625v-101h-625zM143 438v553q0 215 121 339t323 124q201 0 319 -122t118 -337v-553q0 -215 -121 -339q-121 -123 -323 -123t-319 122q-118 122 -118 336zM295 987v-543q0 -154 77 -242t212 -87q135 0 212 88t76 241v543q0 156 -75 243q-76 87 -213 87
t-213 -87t-76 -243z" />
    <glyph glyph-name="omacron" unicode="&#x14d;" horiz-adv-x="1044" 
d="M209 1272v100h625v-100h-625zM123 379v280q0 184 111 294q112 110 291 110q179 -1 288 -107t109 -292v-281q0 -184 -112 -294q-112 -109 -290 -109t-288 107q-109 108 -109 292zM268 657v-272q0 -127 70 -201t184 -74t185 74q70 74 69 201v272q0 127 -69 201
q-70 74 -185 74q-114 0 -184 -74t-70 -201z" />
    <glyph glyph-name="Obreve" unicode="&#x14e;" 
d="M305 1884h113v-59q0 -78 44 -126t122 -48t122 48t44 126v59h112v-55q0 -123 -79 -201t-201 -78t-199 77q-78 77 -78 200v57zM143 438v553q0 215 121 339t323 124q201 0 319 -122t118 -337v-553q0 -215 -121 -339q-121 -123 -323 -123t-319 122q-118 122 -118 336z
M295 987v-543q0 -154 77 -242t212 -87q135 0 212 88t76 241v543q0 156 -75 243q-76 87 -213 87t-213 -87t-76 -243z" />
    <glyph glyph-name="obreve" unicode="&#x14f;" horiz-adv-x="1044" 
d="M244 1516h112v-60q0 -78 44 -126t122 -48t122 48t44 126v60h113v-56q0 -122 -79 -200t-201 -78q-121 0 -199 76t-78 200v58zM123 379v280q0 184 111 294q112 110 291 110q179 -1 288 -107t109 -292v-281q0 -184 -112 -294q-112 -109 -290 -109t-288 107
q-109 108 -109 292zM268 657v-272q0 -127 70 -201t184 -74t185 74q70 74 69 201v272q0 127 -69 201q-70 74 -185 74q-114 0 -184 -74t-70 -201z" />
    <glyph glyph-name="Ohungarumlaut" unicode="&#x150;" 
d="M358 1550l105 334h153l-143 -334h-115zM692 1550l107 334h151l-143 -334h-115zM143 438v553q0 215 121 339t323 124q201 0 319 -122t118 -337v-553q0 -215 -121 -339q-121 -123 -323 -123t-319 122q-118 122 -118 336zM295 987v-543q0 -154 77 -242t212 -87q135 0 212 88
t76 241v543q0 156 -75 243q-76 87 -213 87t-213 -87t-76 -243z" />
    <glyph glyph-name="ohungarumlaut" unicode="&#x151;" horiz-adv-x="1044" 
d="M297 1182l104 334h154l-143 -334h-115zM631 1182l106 334h152l-144 -334h-114zM123 379v280q0 184 111 294q112 110 291 110q179 -1 288 -107t109 -292v-281q0 -184 -112 -294q-112 -109 -290 -109t-288 107q-109 108 -109 292zM268 657v-272q0 -127 70 -201t184 -74
t185 74q70 74 69 201v272q0 127 -69 201q-70 74 -185 74q-114 0 -184 -74t-70 -201z" />
    <glyph glyph-name="OE" unicode="&#x152;" horiz-adv-x="1630" 
d="M1559 0h-959q-219 0 -338 126t-119 359v461q0 232 121 360t340 128h944v-134h-565v-489h483v-125h-483v-553h576v-133zM831 133v1167h-227q-150 0 -230 -92t-79 -260v-461q0 -170 80 -262t229 -92h227z" />
    <glyph glyph-name="oe" unicode="&#x153;" horiz-adv-x="1691" 
d="M922 668v-35h508v35q0 128 -70 200t-184 72t-184 -72t-70 -200zM268 657v-272q0 -127 70 -201t184 -74t185 74q70 74 69 201v272q0 127 -69 201q-70 74 -185 74q-114 0 -184 -74t-70 -201zM123 659q0 184 111 294q112 110 290 110q223 0 326 -162q106 162 328 162
q178 -1 284 -107t107 -292v-138h-647v-141q0 -127 70 -201t184 -73q170 0 233 161q14 37 16 64l5 24l137 -24q-2 -14 -5 -39t-28 -86t-63 -107q-39 -46 -117 -86q-78 -39 -180 -38q-225 0 -328 161q-102 -162 -326 -161q-178 0 -288 108t-109 291v280z" />
    <glyph glyph-name="Racute" unicode="&#x154;" horiz-adv-x="1126" 
d="M475 1550l141 334h156l-180 -334h-117zM522 578h-207v-578h-151v1434h381q209 0 339 -123t130 -305q0 -132 -74 -236t-203 -149l307 -621h-174l-276 582q-41 -4 -72 -4zM315 1303v-607h224q143 0 233 88t90 216t-89 215t-232 88h-226z" />
    <glyph glyph-name="racute" unicode="&#x155;" horiz-adv-x="688" 
d="M328 1182l141 334h156l-181 -334h-116zM143 0v1042h127l11 -188q100 209 366 209v-143h-53q-143 0 -224 -92t-81 -279v-549h-146z" />
    <glyph glyph-name="Rcommaaccent" unicode="&#x156;" horiz-adv-x="1126" 
d="M354 -436l142 334h155l-180 -334h-117zM522 578h-207v-578h-151v1434h381q209 0 339 -123t130 -305q0 -132 -74 -236t-203 -149l307 -621h-174l-276 582q-41 -4 -72 -4zM315 1303v-607h224q143 0 233 88t90 216t-89 215t-232 88h-226z" />
    <glyph glyph-name="rcommaaccent" unicode="&#x157;" horiz-adv-x="688" 
d="M-10 -436l141 334h156l-181 -334h-116zM143 0v1042h127l11 -188q100 209 366 209v-143h-53q-143 0 -224 -92t-81 -279v-549h-146z" />
    <glyph glyph-name="Rcaron" unicode="&#x158;" horiz-adv-x="1126" 
d="M874 1884l-247 -334h-127l-250 334h129l188 -229l187 229h120zM522 578h-207v-578h-151v1434h381q209 0 339 -123t130 -305q0 -132 -74 -236t-203 -149l307 -621h-174l-276 582q-41 -4 -72 -4zM315 1303v-607h224q143 0 233 88t90 216t-89 215t-232 88h-226z" />
    <glyph glyph-name="rcaron" unicode="&#x159;" horiz-adv-x="688" 
d="M698 1516l-247 -334h-127l-250 334h129l188 -230l187 230h120zM143 0v1042h127l11 -188q100 209 366 209v-143h-53q-143 0 -224 -92t-81 -279v-549h-146z" />
    <glyph glyph-name="Sacute" unicode="&#x15a;" horiz-adv-x="1024" 
d="M469 1550l141 334h156l-180 -334h-117zM147 1110q-1 154 105 249t270 95q90 0 164 -30t116 -72q85 -86 109 -160l11 -29l-125 -47q-5 21 -33 65q-26 45 -54 71t-77 48t-107 23q-102 0 -164 -54q-62 -55 -63 -149q0 -94 67 -167t209 -156q332 -190 332 -443
q-1 -174 -111 -274t-284 -100q-96 0 -175 34t-124 85q-96 107 -119 186l-12 34l125 46q4 -9 10 -27t33 -62q26 -44 58 -78q32 -32 86 -60t116 -27q114 0 180 63q66 64 66 168t-68 182t-215 162q-326 186 -326 424z" />
    <glyph glyph-name="sacute" unicode="&#x15b;" horiz-adv-x="813" 
d="M346 1182l141 334h156l-180 -334h-117zM412 102q80 0 132 46t52 115t-50 123t-186 103q-264 96 -264 302q0 117 87 195t231 77q90 0 167 -27t107 -53l31 -27l-78 -102q-26 32 -91 59q-66 27 -139 27t-120 -41t-47 -96q0 -127 205 -203q293 -104 292 -321q0 -131 -93 -215
t-247 -84q-102 0 -189 32t-124 64l-37 33l78 102q41 -41 122 -75t161 -34z" />
    <glyph glyph-name="Scircumflex" unicode="&#x15c;" horiz-adv-x="1024" 
d="M203 1550l248 334h127l249 -334h-129l-188 230l-186 -230h-121zM147 1110q-1 154 105 249t270 95q90 0 164 -30t116 -72q85 -86 109 -160l11 -29l-125 -47q-5 21 -33 65q-26 45 -54 71t-77 48t-107 23q-102 0 -164 -54q-62 -55 -63 -149q0 -94 67 -167t209 -156
q332 -190 332 -443q-1 -174 -111 -274t-284 -100q-96 0 -175 34t-124 85q-96 107 -119 186l-12 34l125 46q4 -9 10 -27t33 -62q26 -44 58 -78q32 -32 86 -60t116 -27q114 0 180 63q66 64 66 168t-68 182t-215 162q-326 186 -326 424z" />
    <glyph glyph-name="scircumflex" unicode="&#x15d;" horiz-adv-x="813" 
d="M102 1182l248 334h127l250 -334h-129l-188 229l-187 -229h-121zM412 102q80 0 132 46t52 115t-50 123t-186 103q-264 96 -264 302q0 117 87 195t231 77q90 0 167 -27t107 -53l31 -27l-78 -102q-26 32 -91 59q-66 27 -139 27t-120 -41t-47 -96q0 -127 205 -203
q293 -104 292 -321q0 -131 -93 -215t-247 -84q-102 0 -189 32t-124 64l-37 33l78 102q41 -41 122 -75t161 -34z" />
    <glyph glyph-name="Scedilla" unicode="&#x15e;" horiz-adv-x="1024" 
d="M147 1110q-1 154 105 249t270 95q90 0 164 -30t116 -72q85 -86 109 -160l11 -29l-125 -47q-5 21 -33 65q-26 45 -54 71t-77 48t-107 23q-102 0 -164 -54q-62 -55 -63 -149q0 -94 67 -167t209 -156q332 -190 332 -443q0 -158 -91 -256t-238 -114q55 -63 55 -162t-77 -160
t-174 -61t-165 34l23 101q40 -29 116 -29t116 38q40 37 40 109t-68 130q-80 10 -148 49t-105 86q-77 95 -101 170l-8 30l125 46q4 -9 10 -27t33 -62q26 -44 58 -78q32 -32 86 -60t116 -27q114 0 180 63q66 64 66 168t-68 182t-215 162q-326 186 -326 424z" />
    <glyph glyph-name="scedilla" unicode="&#x15f;" horiz-adv-x="813" 
d="M516 -178q0 -99 -77 -160t-173 -61t-147 26l-19 8l23 101q41 -29 117 -29t116 38q40 37 39 109q0 72 -67 130q-82 10 -151 41t-97 57l-29 27l78 102q41 -41 122 -75t161 -34t132 46t52 115t-50 123t-186 103q-264 96 -264 302q0 117 87 195t231 77q90 0 167 -27t107 -53
l31 -27l-78 -102q-26 32 -91 59q-66 27 -139 27t-120 -41t-47 -96q0 -127 205 -203q293 -104 292 -321q1 -117 -75 -198t-205 -97q55 -63 55 -162z" />
    <glyph glyph-name="Scaron" unicode="&#x160;" horiz-adv-x="1011" 
d="M823 1884l-248 -334h-126l-250 334h129l188 -229l186 229h121zM147 1110q-1 154 105 249t270 95q90 0 164 -30t116 -72q85 -86 109 -160l11 -29l-125 -47q-5 21 -33 65q-26 45 -54 71t-77 48t-107 23q-102 0 -164 -54q-62 -55 -63 -149q0 -94 67 -167t209 -156
q332 -190 332 -443q-1 -174 -111 -274t-284 -100q-96 0 -175 34t-124 85q-96 107 -119 186l-12 34l125 46q4 -9 10 -27t33 -62q26 -44 58 -78q32 -32 86 -60t116 -27q114 0 180 63q66 64 66 168t-68 182t-215 162q-326 186 -326 424z" />
    <glyph glyph-name="scaron" unicode="&#x161;" horiz-adv-x="813" 
d="M731 1516l-248 -334h-127l-250 334h130l188 -230l186 230h121zM412 102q80 0 132 46t52 115t-50 123t-186 103q-264 96 -264 302q0 117 87 195t231 77q90 0 167 -27t107 -53l31 -27l-78 -102q-26 32 -91 59q-66 27 -139 27t-120 -41t-47 -96q0 -127 205 -203
q293 -104 292 -321q0 -131 -93 -215t-247 -84q-102 0 -189 32t-124 64l-37 33l78 102q41 -41 122 -75t161 -34z" />
    <glyph glyph-name="Tcommaaccent" unicode="&#x162;" horiz-adv-x="952" 
d="M252 -436l141 334h156l-180 -334h-117zM901 1298h-348v-1298h-154v1298h-348v136h850v-136z" />
    <glyph glyph-name="tcommaaccent" unicode="&#x163;" horiz-adv-x="737" 
d="M252 -436l141 334h156l-180 -334h-117zM360 1311v-269h326v-116h-326v-650q0 -166 162 -165q73 0 121 16l21 4l22 -121q-80 -30 -204 -30t-196 72t-71 204v670h-174v116h174v269h145z" />
    <glyph glyph-name="Tcaron" unicode="&#x164;" horiz-adv-x="952" 
d="M788 1884l-247 -334h-127l-250 334h129l188 -229l187 229h120zM901 1298h-348v-1298h-154v1298h-348v136h850v-136z" />
    <glyph glyph-name="tcaron" unicode="&#x165;" horiz-adv-x="737" 
d="M360 1311v-269h326v-116h-326v-650q0 -166 162 -165q73 0 121 16l21 4l22 -121q-80 -30 -204 -30t-196 72t-71 204v670h-174v116h174v269h145zM596 1167h-107l56 451h155z" />
    <glyph glyph-name="Tbar" unicode="&#x166;" horiz-adv-x="952" 
d="M901 1298h-348v-505h293v-99h-293v-694h-154v694h-290v99h290v505h-348v136h850v-136z" />
    <glyph glyph-name="tbar" unicode="&#x167;" horiz-adv-x="737" 
d="M360 1311v-269h326v-114h-326v-334h326v-96h-326v-224q0 -166 162 -165q58 0 121 14l21 6l22 -119q-80 -30 -204 -30t-196 72t-71 204v242h-174v96h174v334h-174v114h174v269h145z" />
    <glyph glyph-name="Utilde" unicode="&#x168;" 
d="M451 1833q49 0 89 -24q40 -23 62 -53q58 -76 113 -77q33 0 53 32t25 63l4 32l98 -6q0 -136 -95 -198q-38 -24 -87 -25q-89 0 -149 77t-115 77q-33 0 -53 -32t-23 -63l-4 -30l-99 6q0 76 40 144q16 30 54 54t87 23zM864 434v1000h150v-1002q0 -211 -118 -332
q-118 -120 -316 -120t-312 118q-115 118 -114 330v1006h153v-1000q0 -150 74 -234t205 -85q130 1 204 85t74 234z" />
    <glyph glyph-name="utilde" unicode="&#x169;" horiz-adv-x="1054" 
d="M662 1208q-48 0 -88 24t-62 54q-58 76 -115 76q-33 0 -53 -32t-25 -62l-2 -31l-98 6q0 78 40 145q17 30 54 54t86 22q49 0 89 -24t63 -52q61 -78 113 -77q33 -1 53 31t24 63l4 33l99 -6q0 -138 -95 -200q-38 -24 -87 -24zM911 1042v-1042h-127l-8 147q-94 -168 -305 -167
q-156 0 -247 102t-91 301v659h146v-626q0 -305 235 -305q112 -1 182 73t70 217v641h145z" />
    <glyph glyph-name="Umacron" unicode="&#x16a;" 
d="M270 1640v101h625v-101h-625zM864 434v1000h150v-1002q0 -211 -118 -332q-118 -120 -316 -120t-312 118q-115 118 -114 330v1006h153v-1000q0 -150 74 -234t205 -85q130 1 204 85t74 234z" />
    <glyph glyph-name="umacron" unicode="&#x16b;" horiz-adv-x="1054" 
d="M219 1272v100h625v-100h-625zM911 1042v-1042h-127l-8 147q-94 -168 -305 -167q-156 0 -247 102t-91 301v659h146v-626q0 -305 235 -305q112 -1 182 73t70 217v641h145z" />
    <glyph glyph-name="Ubreve" unicode="&#x16c;" 
d="M305 1884h113v-59q0 -78 44 -126t122 -48t122 48t44 126v59h112v-55q0 -123 -79 -201t-201 -78t-199 77q-78 77 -78 200v57zM864 434v1000h150v-1002q0 -211 -118 -332q-118 -120 -316 -120t-312 118q-115 118 -114 330v1006h153v-1000q0 -150 74 -234t205 -85
q130 1 204 85t74 234z" />
    <glyph glyph-name="ubreve" unicode="&#x16d;" horiz-adv-x="1054" 
d="M254 1516h113v-60q0 -78 44 -126q43 -48 121 -48t122 48t44 126v60h113v-56q0 -122 -79 -200t-201 -78q-121 0 -199 76t-78 200v58zM911 1042v-1042h-127l-8 147q-94 -168 -305 -167q-156 0 -247 102t-91 301v659h146v-626q0 -305 235 -305q112 -1 182 73t70 217v641h145
z" />
    <glyph glyph-name="Uring" unicode="&#x16e;" 
d="M583 1642q48 0 80 31t31 80q0 49 -31 80q-32 31 -80 31t-81 -31t-33 -80t33 -80t81 -31zM582 1946q86 0 144 -56t58 -137q0 -82 -58 -137t-144 -55t-144 55q-57 55 -57 137q-1 81 57 137t144 56zM864 434v1000h150v-1002q0 -211 -118 -332q-118 -120 -316 -120t-312 118
q-115 118 -114 330v1006h153v-1000q0 -150 74 -234t205 -85q130 1 204 85t74 234z" />
    <glyph glyph-name="uring" unicode="&#x16f;" horiz-adv-x="1054" 
d="M418 1384q0 -50 32 -80t81 -30q48 0 80 31t32 79t-32 80q-32 31 -80 31q-49 0 -81 -31t-32 -80zM530 1577q86 0 144 -55q58 -56 59 -138q0 -82 -58 -137q-59 -55 -145 -55t-143 55t-57 137t57 138t143 55zM911 1042v-1042h-127l-8 147q-94 -168 -305 -167
q-156 0 -247 102t-91 301v659h146v-626q0 -305 235 -305q112 -1 182 73t70 217v641h145z" />
    <glyph glyph-name="Uhungarumlaut" unicode="&#x170;" 
d="M358 1550l105 334h153l-143 -334h-115zM692 1550l107 334h151l-143 -334h-115zM864 434v1000h150v-1002q0 -211 -118 -332q-118 -120 -316 -120t-312 118q-115 118 -114 330v1006h153v-1000q0 -150 74 -234t205 -85q130 1 204 85t74 234z" />
    <glyph glyph-name="uhungarumlaut" unicode="&#x171;" horiz-adv-x="1054" 
d="M297 1182l104 334h154l-143 -334h-115zM631 1182l106 334h152l-144 -334h-114zM911 1042v-1042h-127l-8 147q-94 -168 -305 -167q-156 0 -247 102t-91 301v659h146v-626q0 -305 235 -305q112 -1 182 73t70 217v641h145z" />
    <glyph glyph-name="Uogonek" unicode="&#x172;" 
d="M822 -272q58 0 112 18l18 -94q-42 -31 -142 -31t-176 66t-75 170q0 70 35 123h-12q-199 0 -314 118t-114 330v1006h153v-1000q0 -150 74 -234t205 -85q130 1 204 85t74 234v1000h150v-1002q0 -170 -79 -284t-216 -150q-49 -40 -49 -114t47 -115t105 -41z" />
    <glyph glyph-name="uogonek" unicode="&#x173;" horiz-adv-x="1054" 
d="M965 -272q58 0 112 18l19 -94q-42 -31 -142 -31t-176 66t-76 171t80 175l-6 114q-94 -168 -305 -167q-156 0 -247 102t-91 301v659h146v-626q0 -305 235 -305q112 -1 182 73t70 217v641h145v-1042h-45q-53 -34 -53 -112t47 -119t105 -41z" />
    <glyph glyph-name="Wcircumflex" unicode="&#x174;" horiz-adv-x="1576" 
d="M479 1550l248 334h127l250 -334h-129l-189 230l-186 -230h-121zM401 0l-381 1434h164l291 -1158l264 1158h107l262 -1158l291 1158h157l-382 -1434h-134l-252 1085l-251 -1085h-136z" />
    <glyph glyph-name="wcircumflex" unicode="&#x175;" horiz-adv-x="1320" 
d="M352 1182l248 334h127l250 -334h-129l-189 229l-186 -229h-121zM332 0l-312 1042h158l228 -811l208 811h99l209 -813l227 813h151l-313 -1042h-129l-199 745l-196 -745h-131z" />
    <glyph glyph-name="Ycircumflex" unicode="&#x176;" horiz-adv-x="1054" 
d="M219 1550l248 334h127l250 -334h-129l-189 230l-186 -230h-121zM453 0v573l-443 861h172l348 -707l351 707h163l-440 -861v-573h-151z" />
    <glyph glyph-name="ycircumflex" unicode="&#x177;" horiz-adv-x="901" 
d="M143 1182l248 334h127l250 -334h-129l-188 229l-187 -229h-121zM172 -219q66 0 118 48t91 171l-361 1042h158l277 -856l274 856h152l-375 -1083q-59 -168 -140 -238q-81 -69 -180 -69t-145 29l31 116q34 -16 100 -16z" />
    <glyph glyph-name="Ydieresis" unicode="&#x178;" horiz-adv-x="1054" 
d="M258 1708q0 40 28 68t67 28q40 0 68 -28t28 -67q0 -40 -28 -68q-28 -27 -69 -27q-42 0 -68 26t-26 68zM711 1804q39 0 67 -28t27 -67q0 -40 -27 -68q-28 -27 -68 -27t-68 26t-28 68q0 40 29 68t68 28zM453 0v573l-443 861h172l348 -707l351 707h163l-440 -861v-573h-151z
" />
    <glyph glyph-name="Zacute" unicode="&#x179;" horiz-adv-x="983" 
d="M434 1550l141 334h156l-180 -334h-117zM891 0h-799v104l625 1199h-584v131h758v-105l-625 -1198h625v-131z" />
    <glyph glyph-name="zacute" unicode="&#x17a;" horiz-adv-x="849" 
d="M367 1182l141 334h156l-181 -334h-116zM123 915v127h635v-100l-498 -815h498v-127h-666v100l496 815h-465z" />
    <glyph glyph-name="Zdotaccent" unicode="&#x17b;" horiz-adv-x="983" 
d="M511 1806q40 0 68 -28q27 -28 27 -67t-26 -67t-68 -28q-41 0 -69 26q-27 26 -27 67q0 40 27 69q28 28 68 28zM891 0h-799v104l625 1199h-584v131h758v-105l-625 -1198h625v-131z" />
    <glyph glyph-name="zdotaccent" unicode="&#x17c;" horiz-adv-x="849" 
d="M444 1438q39 0 67 -28t28 -68t-28 -68t-68 -27q-39 0 -67 27q-28 26 -28 66t28 69t68 29zM123 915v127h635v-100l-498 -815h498v-127h-666v100l496 815h-465z" />
    <glyph glyph-name="Zcaron" unicode="&#x17d;" horiz-adv-x="983" 
d="M823 1884l-248 -334h-126l-250 334h129l188 -229l186 229h121zM891 0h-799v104l625 1199h-584v131h758v-105l-625 -1198h625v-131z" />
    <glyph glyph-name="zcaron" unicode="&#x17e;" horiz-adv-x="849" 
d="M741 1516l-247 -334h-127l-250 334h129l188 -230l187 230h120zM123 915v127h635v-100l-498 -815h498v-127h-666v100l496 815h-465z" />
    <glyph glyph-name="florin" unicode="&#x192;" horiz-adv-x="1003" 
d="M41 631v100h264l27 344q14 175 109 277t251 102q66 0 120 -14t77 -27l22 -14l-55 -117q-59 35 -156 35q-203 0 -223 -248l-26 -338h389v-100h-398l-71 -959h-146l72 959h-256z" />
    <glyph glyph-name="Aringacute" unicode="&#x1fa;" horiz-adv-x="1099" 
d="M550 1452q48 0 80 31t32 80t-32 79t-80 31q-48 0 -81 -31q-33 -32 -33 -80t33 -79t81 -31zM545 1223l-217 -705h434zM348 1563q0 80 53 134t134 58l73 170h156l-109 -199q97 -54 97 -170t-113 -167l440 -1389h-159l-125 401h-498l-125 -401h-152l443 1386
q-115 51 -115 177z" />
    <glyph glyph-name="aringacute" unicode="&#x1fb;" horiz-adv-x="1024" 
d="M536 1073q48 0 80 31t31 80q0 49 -32 80q-31 30 -79 30t-81 -30t-33 -80q0 -49 33 -80t81 -31zM499 94q113 0 185 60t72 153t-72 151t-186 58t-182 -58t-68 -152t68 -152q68 -60 183 -60zM535 1376h2l77 180h156l-119 -215q86 -53 86 -152t-73 -157q227 -88 227 -381
v-651h-115l-16 113q-96 -133 -297 -133q-164 0 -262 90t-99 231q0 141 102 233t274 93q173 0 267 -111v127q0 139 -71 214q-72 75 -197 75q-75 0 -141 -16t-94 -33l-29 -17l-45 117q72 51 213 72q-47 53 -47 132t57 134q58 55 144 55z" />
    <glyph glyph-name="AEacute" unicode="&#x1fc;" horiz-adv-x="1556" 
d="M1018 1550l141 334h156l-180 -334h-117zM1475 1300h-566v-491h484v-125h-484v-551h576v-133h-727v401h-414l-188 -401h-156l670 1434h805v-134zM758 518v793l-367 -793h367z" />
    <glyph glyph-name="aeacute" unicode="&#x1fd;" horiz-adv-x="1660" 
d="M795 1182l141 334h156l-181 -334h-116zM499 94q113 0 185 60t72 153t-72 151t-186 58t-182 -58t-68 -152t68 -152q68 -60 183 -60zM469 -20q-166 0 -266 90t-101 231q0 141 102 233t273 93q172 0 268 -111v127q0 139 -71 214q-72 75 -197 75q-75 0 -141 -16t-94 -33
l-29 -17l-45 117q48 32 138 56q91 24 190 24q238 0 323 -191q94 190 328 191q179 -1 285 -107t106 -292v-138h-647v-141q1 -127 69 -201t185 -73q68 -1 119 25q50 26 74 63q50 79 57 137l2 24l139 -24q-2 -14 -5 -39t-28 -86t-62 -108q-38 -46 -117 -85t-183 -38
q-231 0 -324 182q-43 -84 -134 -133t-214 -49zM891 668v-39h506v39q0 126 -69 200q-68 74 -184 74t-184 -74t-69 -200z" />
    <glyph glyph-name="Oslashacute" unicode="&#x1fe;" 
d="M532 1550l142 334h155l-180 -334h-117zM877 444v543q0 74 -19 135l-496 -913q78 -96 218 -96q140 -1 219 87q78 88 78 244zM293 987v-543q0 -80 16 -135l498 914q-80 98 -220 98t-217 -88t-77 -246zM1024 995v-553q0 -215 -120 -339q-120 -123 -310 -123t-305 96
l-74 -137h-106l114 211q-80 115 -80 288v553q0 215 121 339q120 124 310 124t305 -96l75 137h107l-115 -211q78 -121 78 -289z" />
    <glyph glyph-name="oslashacute" unicode="&#x1ff;" horiz-adv-x="1044" 
d="M471 1182l141 334h156l-180 -334h-117zM780 387v270q0 68 -22 125l-420 -606q70 -70 186 -70t187 75q69 75 69 206zM264 657v-270q0 -76 21 -129l420 608q-68 72 -185 72q-116 0 -186 -75t-70 -206zM922 666v-281q0 -186 -112 -296q-112 -109 -280 -109t-272 81l-84 -122
h-111l132 190q-72 96 -72 250v280q0 184 111 295q112 111 280 111t270 -84l86 125h111l-131 -191q72 -104 72 -249z" />
    <glyph glyph-name="Scommaaccent" unicode="&#x218;" horiz-adv-x="1024" 
d="M272 -436l142 334h155l-180 -334h-117zM147 1110q-1 154 105 249t270 95q90 0 164 -30t116 -72q85 -86 109 -160l11 -29l-125 -47q-5 21 -33 65q-26 45 -54 71t-77 48t-107 23q-102 0 -164 -54q-62 -55 -63 -149q0 -94 67 -167t209 -156q332 -190 332 -443
q-1 -174 -111 -274t-284 -100q-96 0 -175 34t-124 85q-96 107 -119 186l-12 34l125 46q4 -9 10 -27t33 -62q26 -44 58 -78q32 -32 86 -60t116 -27q114 0 180 63q66 64 66 168t-68 182t-215 162q-326 186 -326 424z" />
    <glyph glyph-name="scommaaccent" unicode="&#x219;" horiz-adv-x="813" 
d="M170 -436l141 334h156l-180 -334h-117zM412 102q80 0 132 46t52 115t-50 123t-186 103q-264 96 -264 302q0 117 87 195t231 77q90 0 167 -27t107 -53l31 -27l-78 -102q-26 32 -91 59q-66 27 -139 27t-120 -41t-47 -96q0 -127 205 -203q293 -104 292 -321q0 -131 -93 -215
t-247 -84q-102 0 -189 32t-124 64l-37 33l78 102q41 -41 122 -75t161 -34z" />
    <glyph glyph-name="circumflex" unicode="&#x2c6;" horiz-adv-x="1085" 
d="M229 1182l248 334h127l250 -334h-129l-188 229l-187 -229h-121z" />
    <glyph glyph-name="caron" unicode="&#x2c7;" horiz-adv-x="1085" 
d="M854 1516l-248 -334h-127l-250 334h129l189 -230l186 230h121z" />
    <glyph glyph-name="breve" unicode="&#x2d8;" horiz-adv-x="925" 
d="M184 1516h113v-60q0 -78 44 -126t122 -48t122 48t44 126v60h112v-56q-1 -122 -79 -200t-200 -78t-200 76t-78 200v58z" />
    <glyph glyph-name="dotaccent" unicode="&#x2d9;" horiz-adv-x="471" 
d="M236 1438q38 0 66 -28t28 -68t-28 -68t-68 -27q-40 0 -67 27q-28 26 -28 66t29 69t68 29z" />
    <glyph glyph-name="ring" unicode="&#x2da;" horiz-adv-x="655" 
d="M213 1384q0 -50 33 -80t81 -30t80 31q31 31 31 79t-31 80q-32 31 -80 31t-81 -31t-33 -80zM326 1577q86 0 144 -55q58 -56 58 -138t-58 -137t-144 -55t-144 55q-57 55 -57 137t57 138q58 55 144 55z" />
    <glyph glyph-name="ogonek" unicode="&#x2db;" horiz-adv-x="706" 
d="M396 -272q58 0 112 18l18 -94q-42 -31 -142 -31t-176 66t-75 170q0 63 30 114t58 70l31 20l45 -61q-53 -34 -53 -112t47 -119t105 -41z" />
    <glyph glyph-name="tilde" unicode="&#x2dc;" horiz-adv-x="956" 
d="M608 1208q-90 0 -149 77t-115 77q-33 0 -53 -32t-25 -62l-2 -31l-98 6q0 78 40 145q17 30 54 54t86 22q49 0 89 -24t63 -52q61 -78 112 -77q33 0 54 31q20 32 24 63l4 33l99 -6q0 -78 -40 -146q-17 -30 -55 -54t-88 -24z" />
    <glyph glyph-name="hungarumlaut" unicode="&#x2dd;" 
d="M287 1182l104 334h154l-144 -334h-114zM621 1182l106 334h152l-144 -334h-114z" />
    <glyph glyph-name="Delta" unicode="&#x394;" horiz-adv-x="1120" 
d="M20 0l467 1434h148l465 -1434h-1080zM555 1227l-344 -1092h690z" />
    <glyph glyph-name="Delta" unicode="&#x2206;" horiz-adv-x="1120" 
d="M20 0l467 1434h148l465 -1434h-1080zM555 1227l-344 -1092h690z" />
    <glyph glyph-name="pi" unicode="&#x3c0;" horiz-adv-x="1208" 
d="M1040 109q43 0 95 16l22 -119q-43 -26 -155 -26t-173 60t-61 179v705h-387v-924h-145v924h-195v118h1116v-118h-244v-686q0 -129 127 -129z" />
    <glyph glyph-name="Wgrave" unicode="&#x1e80;" horiz-adv-x="1576" 
d="M692 1884l142 -334h-117l-180 334h155zM401 0l-381 1434h164l291 -1158l264 1158h107l262 -1158l291 1158h157l-382 -1434h-134l-252 1085l-251 -1085h-136z" />
    <glyph glyph-name="wgrave" unicode="&#x1e81;" horiz-adv-x="1320" 
d="M563 1516l142 -334h-117l-180 334h155zM332 0l-312 1042h158l228 -811l208 811h99l209 -813l227 813h151l-313 -1042h-129l-199 745l-196 -745h-131z" />
    <glyph glyph-name="Wacute" unicode="&#x1e82;" horiz-adv-x="1576" 
d="M762 1550l141 334h156l-180 -334h-117zM401 0l-381 1434h164l291 -1158l264 1158h107l262 -1158l291 1158h157l-382 -1434h-134l-252 1085l-251 -1085h-136z" />
    <glyph glyph-name="wacute" unicode="&#x1e83;" horiz-adv-x="1320" 
d="M633 1182l141 334h156l-180 -334h-117zM332 0l-312 1042h158l228 -811l208 811h99l209 -813l227 813h151l-313 -1042h-129l-199 745l-196 -745h-131z" />
    <glyph glyph-name="Wdieresis" unicode="&#x1e84;" horiz-adv-x="1576" 
d="M518 1708q0 40 28 68t67 28q40 0 68 -28t28 -67q0 -40 -28 -68q-28 -27 -68 -27q-39 0 -67 26t-28 68zM971 1804q41 0 67 -28t27 -67q0 -40 -27 -68q-28 -27 -68 -27t-68 26t-28 68q0 40 28 68t69 28zM401 0l-381 1434h164l291 -1158l264 1158h107l262 -1158l291 1158
h157l-382 -1434h-134l-252 1085l-251 -1085h-136z" />
    <glyph glyph-name="wdieresis" unicode="&#x1e85;" horiz-adv-x="1320" 
d="M582 1340q0 -40 -28 -68t-68 -27q-40 0 -68 27q-28 28 -27 68q-1 40 27 68t68 28t68 -28t28 -68zM844 1436q42 0 68 -28t26 -68t-27 -68t-67 -27q-40 0 -69 27q-27 28 -27 68t27 68q28 28 69 28zM332 0l-312 1042h158l228 -811l208 811h99l209 -813l227 813h151
l-313 -1042h-129l-199 745l-196 -745h-131z" />
    <glyph glyph-name="uni1E9E" unicode="&#x1e9e;" 
d="M1085 473v-41q1 -209 -117 -331t-311 -121l-96 8l14 133q31 -6 70 -6q137 0 213 84t76 231v41q0 147 -76 230t-213 83h-70v99l265 331q-92 102 -236 102t-221 -88q-78 -89 -78 -251v-977h-151v981q0 219 122 346q123 127 330 127q184 0 340 -138q35 -32 51 -54l17 -23
l-262 -328q158 -29 246 -143t87 -295z" />
    <glyph glyph-name="Ygrave" unicode="&#x1ef2;" horiz-adv-x="1054" 
d="M461 1884l141 -334h-117l-180 334h156zM453 0v573l-443 861h172l348 -707l351 707h163l-440 -861v-573h-151z" />
    <glyph glyph-name="ygrave" unicode="&#x1ef3;" horiz-adv-x="901" 
d="M375 1516l141 -334h-117l-180 334h156zM172 -219q66 0 118 48t91 171l-361 1042h158l277 -856l274 856h152l-375 -1083q-59 -168 -140 -238q-81 -69 -180 -69t-145 29l31 116q34 -16 100 -16z" />
    <glyph glyph-name="endash" unicode="&#x2013;" horiz-adv-x="1044" 
d="M963 666h-881v131h881v-131z" />
    <glyph glyph-name="emdash" unicode="&#x2014;" horiz-adv-x="1454" 
d="M1372 666h-1290v131h1290v-131z" />
    <glyph glyph-name="quoteleft" unicode="&#x2018;" horiz-adv-x="358" 
d="M156 1434h120l-32 -486h-162z" />
    <glyph glyph-name="quoteright" unicode="&#x2019;" horiz-adv-x="358" 
d="M203 948h-121l33 486h161z" />
    <glyph glyph-name="quotesinglbase" unicode="&#x201a;" horiz-adv-x="358" 
d="M203 -266h-121l33 485h161z" />
    <glyph glyph-name="quotedblleft" unicode="&#x201c;" horiz-adv-x="665" 
d="M463 1434h121l-33 -486h-162zM156 1434h120l-32 -486h-162z" />
    <glyph glyph-name="quotedblright" unicode="&#x201d;" horiz-adv-x="665" 
d="M510 948h-121l33 486h162zM203 948h-121l33 486h161z" />
    <glyph glyph-name="quotedblbase" unicode="&#x201e;" horiz-adv-x="665" 
d="M510 -266h-121l33 485h162zM203 -266h-121l33 485h161z" />
    <glyph glyph-name="dagger" unicode="&#x2020;" horiz-adv-x="778" 
d="M696 1069h-245v-485h-121v485h-248v107h248v258h121v-258h245v-107z" />
    <glyph glyph-name="daggerdbl" unicode="&#x2021;" horiz-adv-x="778" 
d="M696 1069h-245v-315h245v-109h-245v-256h-121v256h-248v109h248v315h-248v107h248v258h121v-258h245v-107z" />
    <glyph glyph-name="bullet" unicode="&#x2022;" horiz-adv-x="624" 
d="M314 926q88 0 148 -60t60 -149q0 -91 -61 -151t-151 -60t-148 60q-60 60 -60 148t62 150t150 62z" />
    <glyph glyph-name="perthousand" unicode="&#x2030;" horiz-adv-x="2017" 
d="M356 1145q-70 0 -116 -48t-45 -120q0 -72 46 -120q45 -48 115 -48t117 48t47 120t-47 120t-117 48zM217 0l803 1229h113l-801 -1229h-115zM358 1249q117 0 196 -77q79 -78 79 -194t-81 -195t-198 -79q-116 0 -194 78q-78 76 -78 193t80 195t196 79zM719 249q0 117 80 195
q81 78 197 78t195 -77t79 -193t-81 -194t-198 -78t-195 76t-77 193zM994 418q-71 0 -118 -47t-47 -120q-1 -73 47 -120t118 -47t117 47q46 47 46 120t-46 120t-117 47zM1384 249q0 117 80 195t197 78t196 -77t79 -193t-82 -194t-198 -78t-194 76t-78 193zM1495 251
q0 -73 47 -120t118 -47t117 47t46 120t-46 120t-117 47t-118 -47t-47 -120z" />
    <glyph glyph-name="guilsinglleft" unicode="&#x2039;" horiz-adv-x="776" 
d="M643 1098l-393 -379l393 -379l-82 -86l-479 434v57l479 435z" />
    <glyph glyph-name="guilsinglright" unicode="&#x203a;" horiz-adv-x="776" 
d="M133 336l393 379l-393 379l82 86l479 -435v-57l-479 -434z" />
    <glyph glyph-name="fraction" unicode="&#x2044;" horiz-adv-x="296" 
d="M-389 0l964 1434h111l-965 -1434h-110z" />
    <glyph glyph-name="zerosuperior" unicode="&#x2070;" horiz-adv-x="669" 
d="M92 811v381q0 118 68 186t178 68t174 -68q66 -68 66 -182v-381q0 -117 -67 -185t-177 -69q-110 1 -176 67t-66 183zM203 1204v-401q0 -66 36 -104q36 -37 96 -37t96 38t36 103v401q0 64 -36 102t-95 38t-96 -39q-37 -38 -37 -101z" />
    <glyph glyph-name="foursuperior" unicode="&#x2074;" horiz-adv-x="636" 
d="M487 1434v-551h99v-92h-99v-218h-108v218h-328v92l328 551h108zM379 883v389l-234 -389h234z" />
    <glyph glyph-name="fivesuperior" unicode="&#x2075;" horiz-adv-x="636" 
d="M530 1333h-331v-231q45 51 140 51t155 -63t61 -170v-107q0 -115 -66 -183t-173 -69q-107 0 -171 66q-63 66 -63 178v12h111v-20q0 -63 32 -100q33 -35 91 -35t93 36q34 37 33 103v121q0 61 -33 97t-87 36t-84 -24t-37 -46l-4 -22h-103v471h436v-101z" />
    <glyph glyph-name="sixsuperior" unicode="&#x2076;" horiz-adv-x="661" 
d="M352 1128q102 0 165 -66q62 -67 63 -185v-52q0 -123 -69 -193t-181 -71q-112 0 -180 70t-68 190v31q0 109 43 188l213 394h119l-181 -322q33 16 76 16zM469 813v70q0 71 -36 111q-35 40 -101 40t-103 -40t-36 -111v-70q1 -72 37 -112q36 -39 102 -39t102 40t35 111z" />
    <glyph glyph-name="sevensuperior" unicode="&#x2077;" horiz-adv-x="610" 
d="M72 1333v101h467v-82l-287 -779h-115l283 760h-348z" />
    <glyph glyph-name="eightsuperior" unicode="&#x2078;" horiz-adv-x="673" 
d="M193 831v-22q1 -72 39 -113t105 -41t105 41t39 113v22q0 72 -39 114q-38 42 -104 42t-106 -42t-39 -114zM100 1212v13q0 94 69 157q69 64 170 64t168 -62t66 -155v-12q0 -119 -102 -185q121 -61 121 -209v-12q0 -111 -73 -181t-183 -69q-110 0 -182 68t-72 178v12
q0 145 121 213q-103 63 -103 180zM211 1225v-25q0 -53 35 -90t91 -37t91 37t35 90v25q0 53 -35 89t-91 36t-91 -36t-35 -89z" />
    <glyph glyph-name="ninesuperior" unicode="&#x2079;" horiz-adv-x="661" 
d="M309 879q-102 0 -165 66q-62 67 -62 185v52q0 124 69 194t181 70t180 -70t68 -190v-31q0 -109 -43 -188l-213 -394h-119l180 322q-33 -16 -76 -16zM193 1194v-70q-1 -72 35 -112t102 -39q66 0 102 40t37 111v70q0 72 -37 112q-36 40 -102 40t-102 -40t-35 -112z" />
    <glyph glyph-name="zeroinferior" unicode="&#x2080;" horiz-adv-x="669" 
d="M92 238v380q0 117 68 186q68 68 178 68t174 -68q66 -68 66 -181v-381q0 -117 -67 -186q-67 -68 -177 -68t-176 66t-66 184zM203 631v-402q0 -65 36 -103t96 -38t96 38t36 103v402q0 63 -36 101t-95 38t-96 -38t-37 -101z" />
    <glyph glyph-name="oneinferior" unicode="&#x2081;" horiz-adv-x="505" 
d="M383 860v-860h-111v723l-174 -145l-57 69l250 213h92z" />
    <glyph glyph-name="twoinferior" unicode="&#x2082;" horiz-adv-x="616" 
d="M545 100v-100h-473v82l288 369q74 95 74 171t-35 112t-93 36t-92 -36t-34 -99v-43h-108v41q0 111 66 175t170 64q105 0 171 -61q65 -61 65 -175t-104 -247l-231 -289h336z" />
    <glyph glyph-name="threeinferior" unicode="&#x2083;" horiz-adv-x="632" 
d="M84 629v14q0 102 64 166q65 63 164 63q98 0 162 -62t65 -159v-12q0 -125 -103 -188q115 -61 115 -203v-23q0 -102 -69 -170q-69 -67 -173 -67t-171 66t-66 169v27h104v-23q0 -67 36 -103t96 -36t96 39t36 104v25q0 68 -36 108t-97 39h-65v91h65q55 0 88 36t33 95v18
q0 57 -33 93t-86 36t-87 -35t-34 -92v-16h-104z" />
    <glyph glyph-name="fourinferior" unicode="&#x2084;" horiz-adv-x="636" 
d="M487 860v-551h99v-92h-99v-217h-108v217h-328v92l328 551h108zM379 309v389l-234 -389h234z" />
    <glyph glyph-name="fiveinferior" unicode="&#x2085;" horiz-adv-x="636" 
d="M530 760h-331v-232q45 52 140 52t155 -64t61 -170v-106q0 -115 -66 -184q-66 -68 -173 -68t-171 65q-63 66 -63 178v13h111v-21q1 -63 33 -99t90 -36t93 37q34 37 33 102v121q0 61 -33 97t-87 36q-54 -1 -84 -23t-37 -44l-4 -25h-103v471h436v-100z" />
    <glyph glyph-name="sixinferior" unicode="&#x2086;" horiz-adv-x="661" 
d="M352 555q102 0 164 -67t64 -185v-51q0 -123 -69 -194q-69 -70 -181 -70t-180 70t-68 190v31q0 109 43 188l213 393h119l-181 -321q33 16 76 16zM469 240v69q0 72 -36 112q-35 40 -101 40t-103 -40t-36 -112v-69q1 -72 37 -112t102 -40t102 40t35 112z" />
    <glyph glyph-name="seveninferior" unicode="&#x2087;" horiz-adv-x="610" 
d="M72 760v100h467v-82l-287 -778h-115l283 760h-348z" />
    <glyph glyph-name="eightinferior" unicode="&#x2088;" horiz-adv-x="673" 
d="M193 258v-22q1 -72 39 -113t105 -41t105 41t39 113v22q0 72 -39 114q-38 42 -104 42t-106 -42t-39 -114zM100 639v12q0 93 69 157t170 64t168 -62t66 -155v-12q0 -119 -102 -184q121 -61 121 -209v-12q0 -111 -73 -181q-73 -69 -183 -69t-182 68t-72 177v13
q0 145 121 213q-103 63 -103 180zM211 651v-24q0 -53 35 -90t91 -37t91 37t35 90v24q0 53 -35 89t-91 36t-91 -36t-35 -89z" />
    <glyph glyph-name="nineinferior" unicode="&#x2089;" horiz-adv-x="661" 
d="M309 305q-102 0 -165 67q-62 67 -62 185v51q0 123 69 194q69 70 181 70t180 -70t68 -190v-30q0 -109 -43 -189l-213 -393h-119l180 322q-33 -17 -76 -17zM193 621v-70q-1 -72 35 -112t102 -40t102 40t37 112v70q0 71 -37 111q-36 40 -102 40t-102 -40t-35 -111z" />
    <glyph glyph-name="Euro" unicode="&#x20ac;" horiz-adv-x="1079" 
d="M827 369v30h140v-28q1 -179 -103 -285t-273 -106t-273 105q-103 105 -103 286v155h-174v92h174v195h-174v92h174v152q-1 182 105 290q106 107 275 107t270 -103t102 -284v-33h-140v31q0 119 -63 189t-171 69q-108 0 -170 -70t-63 -188v-160h490v-92h-490v-195h449v-92
h-449v-157q0 -119 62 -189t170 -70t172 70q63 70 63 189z" />
    <glyph glyph-name="trademark" unicode="&#x2122;" horiz-adv-x="1292" 
d="M541 1339h-164v-551h-109v551h-166v95h439v-95zM756 788h-105v646h111l160 -383l163 383h105v-646h-105v439l-141 -328h-47l-141 330v-441z" />
    <glyph glyph-name="minus" unicode="&#x2212;" horiz-adv-x="1034" 
d="M952 666h-870v131h870v-131z" />
    <glyph glyph-name="fi" unicode="&#xfb01;" horiz-adv-x="1175" 
d="M946 1448q45 0 75 -31t30 -75t-30 -74t-75 -29q-45 0 -75 30q-29 29 -29 73t29 75q30 31 75 31zM870 0v1042h152v-1042h-152zM360 1145v-144h316v-116h-316v-885h-145v885h-174v116h174v156q0 143 76 220t196 77t189 -24l20 -9l-22 -114q-63 20 -133 20q-181 0 -181 -182
z" />
    <glyph glyph-name="fl" unicode="&#xfb02;" horiz-adv-x="1175" 
d="M870 0v1434h152v-1434h-152zM360 1145v-144h316v-116h-316v-885h-145v885h-174v116h174v156q0 143 76 220t196 77t189 -24l20 -9l-22 -114q-63 20 -133 20q-181 0 -181 -182z" />
    <glyph glyph-name="one.onum" horiz-adv-x="759" 
d="M586 1311v-1311h-146v1126l-315 -258l-74 99l418 344h117z" />
    <glyph glyph-name="two.onum" horiz-adv-x="962" 
d="M850 129v-129h-737v98l458 545q133 158 133 289q0 130 -60 198q-62 68 -166 68t-164 -68q-62 -68 -62 -184v-61h-139v57q0 178 102 284t266 105q165 0 267 -101t102 -265q0 -201 -193 -424l-352 -412h545z" />
    <glyph glyph-name="three.onum" horiz-adv-x="954" 
d="M123 946v37q0 152 99 250t255 98t255 -93t99 -237v-16q0 -98 -48 -177t-132 -120q93 -41 147 -123t54 -192v-39q0 -156 -106 -255t-273 -99q-166 0 -268 99t-103 261v53h138v-43q0 -112 62 -178t171 -66t171 67t63 177v35q-1 111 -63 177t-173 67h-98v114h98
q95 -1 155 61t60 157v24q0 95 -59 157t-155 62t-154 -63t-58 -160v-35h-137z" />
    <glyph glyph-name="four.onum" horiz-adv-x="1013" 
d="M762 1311v-873h164v-116h-164v-322h-139v322h-537v118l532 871h144zM623 438v664l-412 -664h412z" />
    <glyph glyph-name="five.onum" horiz-adv-x="980" 
d="M817 1180h-541v-398q80 102 237 102t251 -96t94 -262v-161q0 -177 -102 -281t-268 -104t-266 102q-99 102 -99 278v23h141v-23q0 -116 60 -182t164 -66q103 0 164 67q60 67 61 181v156q1 110 -61 176t-158 66t-149 -43q-54 -43 -62 -84l-11 -43h-129v723h674v-131z" />
    <glyph glyph-name="six.onum" horiz-adv-x="993" 
d="M106 381v57q0 160 72 279l346 594h158l-301 -502q70 41 149 41q160 0 257 -104t98 -283v-78q0 -186 -108 -296q-107 -109 -283 -109t-282 108t-106 293zM252 459v-78q0 -123 66 -196t178 -73t178 74q66 72 65 195v78q1 123 -65 195t-178 73q-112 -1 -178 -73t-66 -195z
" />
    <glyph glyph-name="seven.onum" horiz-adv-x="880" 
d="M72 1182v129h737v-99l-467 -1212h-149l462 1182h-583z" />
    <glyph glyph-name="eight.onum" horiz-adv-x="993" 
d="M242 387v-22q0 -115 68 -187t186 -72t186 72t68 187v22q0 115 -69 187t-185 71q-116 1 -186 -71q-68 -72 -68 -187zM127 981v20q0 141 105 235q106 94 266 95q160 0 263 -93t103 -232v-21q0 -90 -47 -165t-127 -118q94 -41 150 -125q55 -85 55 -198v-21q0 -168 -113 -273
q-112 -105 -288 -105t-287 103t-111 271v21q0 113 54 197t151 128q-82 43 -128 117t-46 164zM272 989v-20q0 -89 62 -151t162 -62t161 61t62 152v20q1 91 -61 153t-162 62t-162 -62t-62 -153z" />
    <glyph glyph-name="nine.onum" horiz-adv-x="993" 
d="M887 930v-58q0 -160 -72 -278l-346 -594h-158l301 502q-70 -41 -149 -41q-160 0 -257 104t-97 283v78q0 186 107 296q108 110 284 110t282 -108t105 -294zM741 852v78q1 124 -65 196t-178 72t-179 -73q-66 -73 -65 -195v-78q0 -123 66 -196q66 -72 178 -72q113 0 178 72
t65 196z" />
    <glyph glyph-name="zero.onum" horiz-adv-x="993" 
d="M117 371v563q0 182 105 290q106 108 276 108t273 -106q103 -105 103 -288v-563q0 -180 -105 -288q-105 -107 -275 -107t-274 105q-103 106 -103 286zM262 940v-569q0 -119 62 -189t170 -70t172 70q63 70 63 189v569q0 118 -63 188t-171 70q-109 0 -171 -70t-62 -188z" />
    <glyph glyph-name="numbersign.onum" horiz-adv-x="1013" 
d="M41 315v97h199l47 323h-185v96h199l45 316h107l-45 -316h272l45 316h106l-45 -316h187v-96h-201l-47 -323h186v-97h-198l-45 -315h-107l45 315h-274l-43 -315h-107l43 315h-184zM393 735l-47 -323h272l48 323h-273z" />
    <glyph glyph-name="cent.onum" horiz-adv-x="956" 
d="M715 684h139v-18q0 -158 -88 -257t-234 -116v-170h-102v168q-150 14 -239 113t-89 262v280q0 162 90 262t238 117v170h102v-170q146 -17 234 -113t88 -254v-12h-139v4q1 115 -63 183q-64 67 -170 67t-171 -68q-63 -69 -63 -188v-270q0 -119 63 -188q63 -68 169 -68
t171 67q63 68 64 183v16z" />
    <glyph glyph-name="dollar.onum" horiz-adv-x="976" 
d="M127 997q0 133 86 223t227 105v170h103v-170q145 -14 230 -105t85 -237v-20h-139v24q-1 95 -63 155t-164 60t-160 -56q-60 -56 -60 -143t65 -154t215 -135t230 -159q82 -91 82 -231t-88 -232t-233 -106v-170h-103v170q-152 12 -240 106t-87 246v55h139v-59
q0 -100 65 -164q67 -64 173 -64t167 60t61 151q0 92 -62 161q-62 70 -212 136t-233 158q-84 92 -84 225z" />
    <glyph glyph-name="sterling.onum" horiz-adv-x="1048" 
d="M727 592h-367v-465h551v-127h-696v592h-174v98h174v254q0 178 102 282q101 104 267 105q166 0 264 -101t98 -278v-26h-139v24q0 115 -59 182q-60 66 -164 66t-164 -66q-59 -67 -60 -182v-260h367v-98z" />
    <glyph glyph-name="Euro.onum" horiz-adv-x="1048" 
d="M807 356v33h139v-29q0 -174 -100 -277t-265 -103t-266 102q-100 102 -100 278v127h-174v88h174v160h-174v88h174v121q0 178 102 282q101 104 267 105q166 0 264 -100t98 -277v-32h-139v32q0 115 -59 183q-60 67 -164 67t-164 -67q-59 -68 -60 -183v-131h469v-88h-469
v-160h428v-88h-428v-131q0 -114 60 -182t164 -68t164 68t59 182z" />
    <glyph glyph-name="yen.onum" horiz-adv-x="1075" 
d="M463 0v338h-371v94h371v166l-14 27h-357v94h303l-344 592h166l324 -586l325 586h158l-346 -592h305v-94h-354l-15 -27v-166h369v-94h-369v-338h-151z" />
    <glyph glyph-name="florin.onum" horiz-adv-x="976" 
d="M41 571v99h262l23 291q14 174 107 272t243 98q64 0 116 -14t72 -27l21 -14l-56 -115q-53 35 -145 35q-197 0 -213 -242l-22 -284h385v-99h-394l-67 -899h-146l68 899h-254z" />
    <glyph glyph-name="percent.onum" horiz-adv-x="1351" 
d="M997 412q-71 0 -115 -46t-44 -118t45 -118t115 -46t115 47q46 47 46 117t-46 117t-116 47zM725 245q0 115 80 193q81 78 195 78t192 -76t78 -192t-79 -192t-196 -76t-193 74t-77 191zM354 1063q-70 0 -114 -46t-45 -118q0 -72 45 -118q44 -46 114 -46t116 47t46 117
t-46 117t-116 47zM217 0l805 1147h113l-803 -1147h-115zM352 631q-118 1 -194 75t-76 190t80 194t194 78t193 -76q78 -76 78 -192t-79 -192t-196 -77z" />
    <glyph glyph-name="perthousand.onum" horiz-adv-x="2017" 
d="M1663 412q-70 0 -115 -46t-45 -118t45 -118t115 -46t116 47t46 117t-46 117t-116 47zM1391 245q-1 115 79 193t195 78t193 -76t78 -192t-80 -192q-78 -76 -195 -76t-194 74q-76 75 -76 191zM997 412q-71 0 -115 -46t-44 -118t45 -118t115 -46t115 47q46 47 46 117
t-46 117t-116 47zM725 245q0 115 80 193q81 78 195 78t192 -76t78 -192t-79 -192t-196 -76t-193 74t-77 191zM354 1063q-70 0 -114 -46t-45 -118q0 -72 45 -118q44 -46 114 -46t116 47t46 117t-46 117t-116 47zM217 0l805 1147h113l-803 -1147h-115zM352 631q-118 1 -194 75
t-76 190t80 194t194 78t193 -76q78 -76 78 -192t-79 -192t-196 -77z" />
    <glyph glyph-name="one.lnum" horiz-adv-x="1034" 
d="M956 0h-833v123h369v1124l-326 -262l-74 100l428 349h117v-1311h319v-123z" />
    <glyph glyph-name="two.lnum" horiz-adv-x="1034" 
d="M905 131v-131h-778v100l502 639q131 171 131 305t-67 206t-181 71q-114 0 -180 -73t-66 -199v-64h-139v59q0 190 107 301q108 109 282 109t282 -104t107 -281q0 -109 -42 -206t-142 -224l-406 -508h590z" />
    <glyph glyph-name="three.lnum" horiz-adv-x="1034" 
d="M141 1049v24q1 169 105 275t270 106t270 -99t105 -263v-15q0 -113 -52 -199t-145 -128q102 -42 160 -134t57 -217v-26q1 -176 -111 -285q-112 -108 -288 -108t-284 108t-107 291v35h137v-25q0 -129 68 -204t186 -75t186 76t68 203v21q0 130 -69 204t-187 74h-117v119h117
q106 0 171 69t64 179v18q-1 113 -65 181t-168 69q-104 0 -169 -70t-64 -184v-20h-138z" />
    <glyph glyph-name="four.lnum" horiz-adv-x="1034" 
d="M782 1434v-934h164v-119h-164v-381h-141v381h-555v121l553 932h143zM641 500v721l-430 -721h430z" />
    <glyph glyph-name="five.lnum" horiz-adv-x="1034" 
d="M864 1303h-581v-465q88 114 255 114t267 -102t100 -277v-188q1 -186 -107 -296q-108 -109 -283 -109t-281 107q-105 108 -105 294v22h143v-22q0 -123 66 -196t178 -73t178 74q64 72 64 195v182q0 119 -66 190t-168 71t-160 -45q-58 -44 -71 -87l-12 -43h-131v785h714
v-131z" />
    <glyph glyph-name="six.lnum" horiz-adv-x="1034" 
d="M551 911q164 0 264 -106t100 -291v-119q-1 -190 -111 -303q-110 -112 -290 -112t-289 110t-108 301v88q0 172 71 299l357 656h162l-324 -570q78 47 168 47zM770 391v119q0 127 -69 203q-69 75 -187 75t-184 -74q-68 -74 -68 -204v-119q0 -129 68 -204t186 -75t186 76
t68 203z" />
    <glyph glyph-name="seven.lnum" horiz-adv-x="1034" 
d="M96 1303v131h840v-101l-518 -1333h-150l512 1303h-684z" />
    <glyph glyph-name="eight.lnum" horiz-adv-x="1034" 
d="M252 422v-33q0 -129 73 -205t191 -76t192 76q73 76 72 205v33q0 129 -72 206q-73 77 -192 77q-120 0 -192 -77t-72 -206zM137 1073v21q0 156 108 258q109 102 273 102t270 -100t107 -256v-21q0 -102 -49 -184t-135 -129q100 -45 157 -136t58 -218v-21q0 -184 -116 -297
q-116 -112 -296 -112t-294 110t-114 295v21q0 127 58 219t155 137q-86 45 -134 127t-48 184zM283 1090v-35q-1 -100 65 -168t168 -68t168 68t66 168v35q0 100 -66 168t-168 67q-102 1 -168 -67t-65 -168z" />
    <glyph glyph-name="nine.lnum" horiz-adv-x="1034" 
d="M483 522q-164 0 -264 106t-100 292v118q0 190 110 303q111 113 291 113t289 -111t109 -301v-88q0 -172 -72 -299l-357 -655h-161l323 569q-78 -47 -168 -47zM264 1042v-118q0 -127 69 -203t187 -76t185 75q68 75 67 204v118q0 129 -67 204q-68 75 -186 75
q-119 0 -187 -76t-68 -203z" />
    <glyph glyph-name="zero.lnum" horiz-adv-x="1034" 
d="M127 381v666q-1 187 107 297t284 110t282 -108q105 -109 105 -295v-666q1 -186 -107 -296q-108 -109 -284 -109t-282 107q-105 108 -105 294zM272 1053v-672q0 -123 66 -196t178 -73t178 74q66 72 66 195v672q0 123 -66 195t-178 73q-112 -1 -178 -73t-66 -195z" />
    <glyph glyph-name="numbersign.lnum" horiz-adv-x="1034" 
d="M51 438v97h201l43 364h-182v96h192l51 439h107l-51 -439h272l51 439h107l-51 -439h192v-96h-203l-41 -364h183v-97h-195l-49 -438h-107l50 438h-273l-49 -438h-106l49 438h-191zM401 899l-43 -364h275l41 364h-273z" />
    <glyph glyph-name="cent.lnum" horiz-adv-x="1034" 
d="M764 776h139v-18q0 -162 -91 -264t-241 -119v-170h-102v168q-154 14 -246 116t-92 269v301q0 166 92 269t246 120v170h102v-170q152 -16 242 -116t90 -261v-12h-139v4q0 121 -67 191t-177 69q-110 0 -178 -72q-66 -72 -66 -194v-291q0 -123 67 -195q67 -71 177 -71
t178 70q66 70 66 190v16z" />
    <glyph glyph-name="dollar.lnum" horiz-adv-x="1034" 
d="M145 1096q0 142 89 240q89 97 235 112v170h102v-170q152 -14 239 -114t87 -265v-41h-139v45q0 115 -65 183t-172 67q-107 0 -169 -62q-62 -63 -61 -161q0 -98 73 -173t220 -152t233 -178t86 -250t-90 -247t-242 -114v-170h-102v170q-158 14 -248 116t-90 273v59h139v-63
q0 -119 68 -190t180 -71t176 66q64 64 64 167t-71 180t-217 154t-236 177q-89 100 -89 242z" />
    <glyph glyph-name="sterling.lnum" horiz-adv-x="1034" 
d="M727 653h-387v-526h571v-127h-716v653h-154v99h154v305q0 182 105 290q105 107 274 107q168 0 270 -104t102 -285v-37h-139v35q1 119 -63 189t-172 69q-108 0 -170 -70t-62 -188v-311h387v-99z" />
    <glyph glyph-name="Euro.lnum" horiz-adv-x="1034" 
d="M807 369v30h139v-28q0 -179 -103 -285t-273 -106t-272 105q-103 105 -103 286v155h-154v92h154v195h-154v92h154v152q0 182 105 290q105 107 274 107q168 0 270 -103t102 -284v-33h-139v31q1 119 -63 189t-172 69q-108 0 -170 -70t-62 -188v-160h489v-92h-489v-195h448
v-92h-448v-157q0 -119 62 -189t170 -70t171 70q64 70 64 189z" />
    <glyph glyph-name="yen.lnum" horiz-adv-x="1034" 
d="M440 0v399h-350v95h350v165l-12 27h-338v94h293l-334 654h168l301 -619l305 619h160l-334 -654h293v-94h-338l-12 -27v-165h350v-95h-350v-399h-152z" />
    <glyph glyph-name="florin.lnum" horiz-adv-x="1034" 
d="M61 631v100h265l26 344q14 175 110 277t251 102q66 0 120 -14t76 -27l23 -14l-55 -117q-57 35 -156 35q-203 0 -223 -248l-27 -338h389v-100h-397l-72 -959h-145l71 959h-256z" />
    <glyph glyph-name="percent.lnum" horiz-adv-x="1464" 
d="M221 0l907 1434h115l-907 -1434h-115zM389 1348q-82 0 -137 -56t-55 -141q0 -84 54 -139q54 -56 137 -56t137 56t55 139q0 85 -54 141t-137 56zM391 1454q131 0 217 -85t86 -216t-88 -218t-219 -87t-218 85t-87 216t89 218t220 87zM1078 584q130 0 217 -85t87 -214
t-89 -217t-219 -88t-217 85t-87 215t89 217t219 87zM1077 477q-82 0 -137 -55t-55 -140q0 -84 54 -140t137 -56t137 55q55 55 55 141t-54 140q-54 55 -137 55z" />
    <glyph glyph-name="perthousand.lnum" horiz-adv-x="2211" 
d="M221 0l907 1434h115l-907 -1434h-115zM389 1348q-82 0 -137 -56t-55 -141q0 -84 54 -139q54 -56 137 -56t137 56t55 139q0 85 -54 141t-137 56zM391 1454q131 0 217 -85t86 -216t-88 -218t-219 -87t-218 85t-87 216t89 218t220 87zM1078 584q130 0 217 -85t87 -214
t-89 -217t-219 -88t-217 85t-87 215t89 217t219 87zM1077 477q-82 0 -137 -55t-55 -140q0 -84 54 -140t137 -56t137 55q55 55 55 141t-54 140q-54 55 -137 55zM1518 280q0 130 89 217t220 87t217 -85t86 -215t-88 -217t-219 -87t-218 85t-87 215zM1825 477q-82 0 -137 -55
q-56 -55 -56 -140q0 -84 54 -140t138 -56q83 0 138 55t55 139t-55 141q-55 56 -137 56z" />
    <glyph glyph-name="numbersignsuperior" horiz-adv-x="686" 
d="M61 827v76h115l23 201h-101v76h109l29 254h83l-30 -254h145l31 254h82l-29 -254h107v-76h-115l-23 -201h101v-76h-111l-28 -254h-82l28 254h-145l-29 -254h-84l29 254h-105zM281 1104l-23 -201h145l23 201h-145z" />
    <glyph glyph-name="centsuperior" horiz-adv-x="645" 
d="M457 1040h106v-10q0 -96 -54 -158t-147 -75v-101h-77v101q-94 10 -149 74q-54 65 -54 167v160q0 102 55 167t148 77v102h77v-102q94 -10 148 -70t53 -160v-6h-106v6q0 62 -36 98t-95 36q-58 0 -96 -36t-37 -102v-176q1 -66 37 -102t96 -35q60 0 95 35q36 35 36 98v12z
" />
    <glyph glyph-name="dollarsuperior" horiz-adv-x="645" 
d="M90 1231q0 84 52 141t143 70v102h80v-102q90 -10 143 -70t53 -158v-24h-108v27q0 59 -35 95t-92 36q-58 0 -92 -33t-33 -82q0 -100 166 -184q197 -100 196 -267q0 -88 -54 -147t-144 -72v-100h-80v100q-95 11 -149 73t-54 163v37h106v-39q0 -63 37 -101t97 -37
q60 0 96 34q35 34 35 89q0 102 -162 187q-201 102 -201 262z" />
    <glyph glyph-name="sterlingsuperior" horiz-adv-x="686" 
d="M483 956h-227v-284h338v-99h-449v383h-104v78h104v164q0 112 66 180t172 68q107 0 169 -65t62 -179v-12h-106v20q0 62 -35 98t-92 36t-91 -36q-34 -34 -34 -98v-176h227v-78z" />
    <glyph glyph-name="Eurosuperior" horiz-adv-x="686" 
d="M508 795v18h106v-14q0 -111 -63 -174t-171 -63t-171 64q-63 65 -64 179v78h-104v69h104v103h-104v69h104v74q0 116 65 182t172 66q108 0 170 -62t62 -172v-20h-106v20q0 62 -34 98t-92 36t-92 -35t-34 -99v-88h289v-69h-289v-103h264v-69h-264v-88q0 -63 34 -99t92 -34
q58 0 92 35t34 98z" />
    <glyph glyph-name="yensuperior" horiz-adv-x="700" 
d="M295 573v240h-227v72h227v84l-8 16h-219v72h178l-205 377h123l188 -369l189 369h118l-204 -377h178v-72h-217l-8 -16v-84h225v-72h-225v-240h-113z" />
    <glyph glyph-name="florinsuperior" horiz-adv-x="622" 
d="M41 944v78h160l14 186q9 111 69 174q60 64 151 64t130 -25l17 -8l-37 -92q-39 23 -99 22q-109 0 -118 -129l-17 -192h228v-78h-234l-43 -567h-110l43 567h-154z" />
    <glyph glyph-name="percentsuperior" horiz-adv-x="952" 
d="M158 573l544 861h91l-543 -861h-92zM682 926q80 0 134 -52t54 -129q0 -78 -55 -131t-135 -53t-133 52t-53 130q0 79 54 131t134 52zM681 844q-42 0 -71 -29q-28 -29 -28 -72t30 -71t70 -29q41 0 70 29q28 30 28 72t-28 71q-29 29 -71 29zM270 1446q78 0 132 -52t54 -130
t-54 -131q-56 -53 -135 -53t-132 52t-53 130t55 131t133 53zM369 1262q0 42 -29 72t-71 30q-41 0 -71 -29t-30 -73t30 -71q30 -28 72 -28t70 28q29 28 29 71z" />
    <glyph glyph-name="perthousandsuperior" horiz-adv-x="1388" 
d="M158 573l544 861h91l-543 -861h-92zM1120 926q80 0 133 -52t53 -129q0 -78 -54 -131t-134 -53t-133 52t-53 130q0 79 54 131t134 52zM1119 844q-41 0 -71 -29t-30 -72t30 -71t72 -29q42 0 70 29q29 30 29 72t-29 71t-71 29zM682 926q80 0 134 -52t54 -129q0 -78 -55 -131
t-135 -53t-133 52t-53 130q0 79 54 131t134 52zM681 844q-42 0 -71 -29q-28 -29 -28 -72t30 -71t70 -29q41 0 70 29q28 30 28 72t-28 71q-29 29 -71 29zM270 1446q78 0 132 -52t54 -130t-54 -131q-56 -53 -135 -53t-132 52t-53 130t55 131t133 53zM369 1262q0 42 -29 72
t-71 30q-41 0 -71 -29t-30 -73t30 -71q30 -28 72 -28t70 28q29 28 29 71z" />
    <glyph glyph-name="G.ss01" 
d="M602 -20q-215 0 -337 120t-122 338v553q0 215 121 339t323 124q201 0 319 -122t118 -337v-24h-152v16q0 156 -75 243q-76 87 -213 87t-213 -87t-76 -243v-538q0 -160 80 -248t231 -88q86 -1 155 23t95 48l25 25v403h-283v117h426v-588q-161 -161 -422 -161z" />
    <glyph glyph-name="Gbreve.ss01" 
d="M305 1884h113v-59q0 -78 44 -126t122 -48t122 48t44 126v59h112v-55q0 -123 -79 -201t-201 -78t-199 77q-78 77 -78 200v57zM602 -20q-215 0 -337 120t-122 338v553q0 215 121 339t323 124q201 0 319 -122t118 -337v-24h-152v16q0 156 -75 243q-76 87 -213 87t-213 -87
t-76 -243v-538q0 -160 80 -248t231 -88q86 -1 155 23t95 48l25 25v403h-283v117h426v-588q-161 -161 -422 -161z" />
    <glyph glyph-name="Gcommaaccent.ss01" 
d="M375 -436l141 334h156l-180 -334h-117zM602 -20q-215 0 -337 120t-122 338v553q0 215 121 339t323 124q201 0 319 -122t118 -337v-24h-152v16q0 156 -75 243q-76 87 -213 87t-213 -87t-76 -243v-538q0 -160 80 -248t231 -88q86 -1 155 23t95 48l25 25v403h-283v117h426
v-588q-161 -161 -422 -161z" />
    <glyph glyph-name="Gdotaccent.ss01" 
d="M584 1806q38 0 66 -28t28 -67t-28 -67t-68 -28t-67 26q-28 26 -28 67t29 69t68 28zM602 -20q-215 0 -337 120t-122 338v553q0 215 121 339t323 124q201 0 319 -122t118 -337v-24h-152v16q0 156 -75 243q-76 87 -213 87t-213 -87t-76 -243v-538q0 -160 80 -248t231 -88
q86 -1 155 23t95 48l25 25v403h-283v117h426v-588q-161 -161 -422 -161z" />
    <glyph glyph-name="Gcircumflex.ss01" 
d="M270 1550l248 334h127l250 -334h-129l-188 230l-187 -230h-121zM602 -20q-215 0 -337 120t-122 338v553q0 215 121 339t323 124q201 0 319 -122t118 -337v-24h-152v16q0 156 -75 243q-76 87 -213 87t-213 -87t-76 -243v-538q0 -160 80 -248t231 -88q86 -1 155 23t95 48
l25 25v403h-283v117h426v-588q-161 -161 -422 -161z" />
    <glyph glyph-name="a.ss01" horiz-adv-x="1064" 
d="M922 1042v-1042h-129l-9 139q-92 -160 -299 -159q-166 0 -264 101t-98 279v318q0 178 101 281t268 104q201 0 292 -154l9 133h129zM776 385v272q0 127 -69 201q-70 74 -185 74q-114 0 -184 -74t-70 -201v-272q0 -127 70 -201t184 -74t185 74q69 74 69 201z" />
    <glyph glyph-name="agrave.ss01" horiz-adv-x="1064" 
d="M469 1516l141 -334h-116l-181 334h156zM922 1042v-1042h-129l-9 139q-92 -160 -299 -159q-166 0 -264 101t-98 279v318q0 178 101 281t268 104q201 0 292 -154l9 133h129zM776 385v272q0 127 -69 201q-70 74 -185 74q-114 0 -184 -74t-70 -201v-272q0 -127 70 -201
t184 -74t185 74q69 74 69 201z" />
    <glyph glyph-name="aacute.ss01" horiz-adv-x="1064" 
d="M479 1182l142 334h155l-180 -334h-117zM922 1042v-1042h-129l-9 139q-92 -160 -299 -159q-166 0 -264 101t-98 279v318q0 178 101 281t268 104q201 0 292 -154l9 133h129zM776 385v272q0 127 -69 201q-70 74 -185 74q-114 0 -184 -74t-70 -201v-272q0 -127 70 -201
t184 -74t185 74q69 74 69 201z" />
    <glyph glyph-name="acircumflex.ss01" horiz-adv-x="1064" 
d="M219 1182l248 334h127l250 -334h-129l-189 229l-186 -229h-121zM922 1042v-1042h-129l-9 139q-92 -160 -299 -159q-166 0 -264 101t-98 279v318q0 178 101 281t268 104q201 0 292 -154l9 133h129zM776 385v272q0 127 -69 201q-70 74 -185 74q-114 0 -184 -74t-70 -201
v-272q0 -127 70 -201t184 -74t185 74q69 74 69 201z" />
    <glyph glyph-name="atilde.ss01" horiz-adv-x="1064" 
d="M682 1208q-89 0 -149 77t-115 77q-33 0 -53 -32t-25 -62l-2 -31l-98 6q0 78 40 145q17 30 54 54t86 22q49 0 89 -24q41 -24 63 -52q60 -78 112 -77q33 -1 53 31t25 63l4 33l98 -6q0 -139 -95 -199q-38 -25 -87 -25zM922 1042v-1042h-129l-9 139q-92 -160 -299 -159
q-166 0 -264 101t-98 279v318q0 178 101 281t268 104q201 0 292 -154l9 133h129zM776 385v272q0 127 -69 201q-70 74 -185 74q-114 0 -184 -74t-70 -201v-272q0 -127 70 -201t184 -74t185 74q69 74 69 201z" />
    <glyph glyph-name="adieresis.ss01" horiz-adv-x="1064" 
d="M356 1245q-42 0 -68 27q-26 28 -26 68t28 68t67 28q40 0 68 -28t28 -68t-28 -68t-69 -27zM715 1436q39 0 67 -28t27 -68q0 -40 -27 -68q-28 -28 -68 -27q-40 0 -68 27q-28 28 -28 68t29 68t68 28zM922 1042v-1042h-129l-9 139q-92 -160 -299 -159q-166 0 -264 101
t-98 279v318q0 178 101 281t268 104q201 0 292 -154l9 133h129zM776 385v272q0 127 -69 201q-70 74 -185 74q-114 0 -184 -74t-70 -201v-272q0 -127 70 -201t184 -74t185 74q69 74 69 201z" />
    <glyph glyph-name="aring.ss01" horiz-adv-x="1064" 
d="M422 1384q0 -50 33 -80t81 -30t80 31t31 79q0 48 -32 80q-31 31 -79 31t-81 -31t-33 -80zM535 1577q86 0 144 -55q58 -56 58 -138t-58 -137t-144 -55t-144 55q-57 55 -57 137t57 138q58 55 144 55zM922 1042v-1042h-129l-9 139q-92 -160 -299 -159q-166 0 -264 101
t-98 279v318q0 178 101 281t268 104q201 0 292 -154l9 133h129zM776 385v272q0 127 -69 201q-70 74 -185 74q-114 0 -184 -74t-70 -201v-272q0 -127 70 -201t184 -74t185 74q69 74 69 201z" />
    <glyph glyph-name="abreve.ss01" horiz-adv-x="1064" 
d="M254 1516h113v-60q0 -78 44 -126q43 -48 121 -48t122 48t44 126v60h113v-56q0 -122 -79 -200t-201 -78q-121 0 -199 76t-78 200v58zM922 1042v-1042h-129l-9 139q-92 -160 -299 -159q-166 0 -264 101t-98 279v318q0 178 101 281t268 104q201 0 292 -154l9 133h129z
M776 385v272q0 127 -69 201q-70 74 -185 74q-114 0 -184 -74t-70 -201v-272q0 -127 70 -201t184 -74t185 74q69 74 69 201z" />
    <glyph glyph-name="amacron.ss01" horiz-adv-x="1064" 
d="M240 1272v100h624v-100h-624zM922 1042v-1042h-129l-9 139q-92 -160 -299 -159q-166 0 -264 101t-98 279v318q0 178 101 281t268 104q201 0 292 -154l9 133h129zM776 385v272q0 127 -69 201q-70 74 -185 74q-114 0 -184 -74t-70 -201v-272q0 -127 70 -201t184 -74t185 74
q69 74 69 201z" />
    <glyph glyph-name="aogonek.ss01" horiz-adv-x="1064" 
d="M776 385v272q0 127 -69 201q-70 74 -185 74q-114 0 -184 -74t-70 -201v-272q0 -127 70 -201t184 -74t185 74q69 74 69 201zM980 -272q62 0 107 18l19 -94q-42 -31 -142 -31t-176 66t-75 170q0 104 78 174l-7 108q-92 -160 -299 -159q-166 0 -264 101t-98 279v318
q0 178 101 281t268 104q201 0 292 -154l9 133h129v-1042h-45q-53 -34 -53 -112t46 -119q48 -41 110 -41z" />
    <glyph glyph-name="aringacute.ss01" horiz-adv-x="1064" 
d="M442 1204q0 -50 33 -80t81 -30t80 30t32 80q0 49 -32 80t-80 31t-81 -31t-33 -80zM776 385v272q0 127 -69 201q-70 74 -185 74q-114 0 -184 -74t-70 -201v-272q0 -127 70 -201t184 -74t185 74q69 74 69 201zM555 1397h10l70 159h156l-109 -200q76 -55 76 -152
q0 -57 -31 -104t-80 -70q86 -37 137 -121l9 133h129v-1042h-129l-9 139q-92 -160 -299 -159q-166 0 -264 101t-98 279v318q0 158 81 258t218 121q-68 55 -68 142t58 143t143 55z" />
    <glyph glyph-name="K.ss01" horiz-adv-x="1085" 
d="M164 0v1434h151v-781l555 781h174l-442 -617l483 -817h-170l-413 688l-187 -254v-434h-151z" />
    <glyph glyph-name="Kcommaaccent.ss01" horiz-adv-x="1085" 
d="M395 -436l142 334h155l-180 -334h-117zM164 0v1434h151v-781l555 781h174l-442 -617l483 -817h-170l-413 688l-187 -254v-434h-151z" />
    <glyph glyph-name="k.ss01" horiz-adv-x="1003" 
d="M143 0v1434h146v-914l504 522h190l-401 -415l422 -627h-177l-352 520l-186 -184v-336h-146z" />
    <glyph glyph-name="kcommaaccent.ss01" horiz-adv-x="1003" 
d="M334 -436l141 334h156l-180 -334h-117zM143 0v1434h146v-914l504 522h190l-401 -415l422 -627h-177l-352 520l-186 -184v-336h-146z" />
    <glyph glyph-name="Sarcasm" horiz-adv-x="1030" 
d="M516 188q45 0 75 -30t30 -74q0 -45 -30 -75q-30 -29 -75 -29t-75 30t-29 74q0 45 29 75q30 29 75 29zM369 412l-267 999l168 43l197 -1018zM928 1411l-266 -999l-99 24l197 1018z" />
    </font>
</defs>
</svg>
